<svg width="271" height="52" viewBox="0 0 271 52" fill="none" xmlns="http://www.w3.org/2000/svg">
<g clip-path="url(#clip0_245_48458)">
<path d="M44.798 42.1672L43.391 43.9801H43.3639V42.1672H42.6604V46.1448H43.3639V44.9813L43.9321 44.2778L45.0144 46.1448H45.7991L44.3651 43.7366L45.5827 42.1672H44.798Z" fill="#AFAEB1"/>
<path d="M46.9357 43.1685H46.2322V46.1448H46.9357V43.1685Z" fill="#AFAEB1"/>
<path d="M46.5838 41.8425C46.3403 41.8425 46.1509 42.0049 46.1509 42.2484C46.1509 42.4919 46.3403 42.6543 46.5838 42.6543C46.8273 42.6543 47.0167 42.4919 47.0167 42.2484C47.0167 42.0049 46.8273 41.8425 46.5838 41.8425Z" fill="#AFAEB1"/>
<path d="M49.4518 43.0874C49.046 43.0874 48.7483 43.3039 48.4778 43.5745H48.4507L48.3966 43.1686H47.8284V46.145H48.5319V44.0615C48.7754 43.818 48.9377 43.6827 49.2083 43.6827C49.533 43.6827 49.6683 43.8721 49.6683 44.3591V46.145H50.3718V44.278C50.3718 43.5203 50.0742 43.0874 49.4518 43.0874Z" fill="#AFAEB1"/>
<path d="M52.7532 45.685H52.212C51.8603 45.685 51.725 45.5767 51.725 45.4144C51.725 45.2791 51.7791 45.1979 51.8603 45.1168C51.9956 45.1709 52.1309 45.1979 52.2662 45.1979C52.8885 45.1979 53.4026 44.8462 53.4026 44.1697C53.4026 43.9533 53.3214 43.7909 53.2402 43.6827H53.7814V43.1686H52.7261C52.6179 43.1145 52.4556 43.0874 52.2932 43.0874C51.6709 43.0874 51.1027 43.4662 51.1027 44.1697C51.1027 44.5215 51.2921 44.8191 51.5085 44.9544V44.9815C51.3462 45.0897 51.1838 45.3062 51.1838 45.5497C51.1838 45.7932 51.2921 45.9556 51.4544 46.0367V46.0638C51.1838 46.2261 51.0215 46.4426 51.0215 46.6861C51.0215 47.2002 51.5626 47.4708 52.2662 47.4708C53.2402 47.4708 53.8626 47.0108 53.8626 46.4156C53.8355 45.9014 53.4567 45.685 52.7532 45.685ZM52.2932 43.5745C52.5908 43.5745 52.8073 43.7909 52.8073 44.1697C52.8073 44.5485 52.5638 44.765 52.2932 44.765C51.9956 44.765 51.7791 44.5485 51.7791 44.1697C51.7791 43.7909 51.9956 43.5745 52.2932 43.5745ZM52.3473 47.0108C51.8873 47.0108 51.5897 46.8485 51.5897 46.5779C51.5897 46.4426 51.6709 46.3073 51.8332 46.172C51.9415 46.1991 52.0767 46.2261 52.2391 46.2261H52.645C52.9967 46.2261 53.1591 46.3073 53.1591 46.5238C53.1591 46.7944 52.8344 47.0108 52.3473 47.0108Z" fill="#AFAEB1"/>
<path d="M57.4339 43.9803L56.8927 43.7638C56.568 43.6285 56.2704 43.5203 56.2704 43.1956C56.2704 42.898 56.5139 42.7356 56.8927 42.7356C57.2445 42.7356 57.5151 42.8709 57.7586 43.0874L58.1103 42.6274C57.8127 42.3027 57.3527 42.1133 56.8927 42.1133C56.108 42.1133 55.5669 42.6003 55.5669 43.2227C55.5669 43.7909 55.9728 44.1156 56.3786 44.2779L56.9198 44.5215C57.2715 44.6838 57.5421 44.792 57.5421 45.1167C57.5421 45.4144 57.2986 45.6308 56.8386 45.6308C56.4598 45.6308 56.081 45.4414 55.8104 45.1708L55.4045 45.6579C55.7834 46.0367 56.2975 46.2532 56.8386 46.2532C57.7315 46.2532 58.2727 45.712 58.2727 45.0626C58.2186 44.4673 57.8939 44.1697 57.4339 43.9803Z" fill="#AFAEB1"/>
<path d="M60.0859 43.0874C59.5988 43.0874 59.1929 43.2768 58.8682 43.4662L59.1388 43.9262C59.4094 43.7639 59.68 43.6286 59.9776 43.6286C60.3835 43.6286 60.5188 43.8991 60.5188 44.2238C59.3012 44.3591 58.76 44.6838 58.76 45.3332C58.76 45.8473 59.1118 46.1991 59.6529 46.1991C60.0047 46.1991 60.3023 46.0367 60.5729 45.7932H60.6L60.6541 46.1179H61.2223V44.3591C61.1952 43.5474 60.8164 43.0874 60.0859 43.0874ZM60.4917 45.3603C60.2753 45.5767 60.0859 45.685 59.8423 45.685C59.5988 45.685 59.4094 45.5767 59.4094 45.3062C59.4094 45.0085 59.68 44.7921 60.4917 44.6838V45.3603Z" fill="#AFAEB1"/>
<path d="M62.8727 45.6578C62.7915 45.6578 62.7103 45.6036 62.7103 45.4142V41.8696H62.0068V45.3872C62.0068 45.9013 62.1962 46.226 62.6833 46.226C62.8456 46.226 62.9809 46.1989 63.0621 46.1719L62.9809 45.6578C62.9268 45.6578 62.8997 45.6578 62.8727 45.6578Z" fill="#AFAEB1"/>
<path d="M67.2292 44.3591V46.145H67.9327V44.278C67.9327 43.5203 67.635 43.0874 67.0127 43.0874C66.6339 43.0874 66.3363 43.3309 66.0657 43.6286C65.9304 43.3039 65.6869 43.0874 65.2539 43.0874C64.8751 43.0874 64.6045 43.3039 64.334 43.5745H64.3069L64.2528 43.1686H63.6846V46.145H64.3881V44.0615C64.6316 43.818 64.821 43.6827 65.0104 43.6827C65.3351 43.6827 65.4704 43.8721 65.4704 44.3591V46.145H66.1739V44.0615C66.4174 43.818 66.6068 43.6827 66.7962 43.6827C67.0939 43.6827 67.2292 43.8721 67.2292 44.3591Z" fill="#AFAEB1"/>
<path d="M68.636 45.3332C68.636 45.8473 68.9877 46.199 69.5289 46.199C69.8807 46.199 70.1783 46.0367 70.4489 45.7932H70.4759L70.53 46.1179H71.0983V44.3591C71.0983 43.5203 70.7194 43.0603 69.9889 43.0603C69.5018 43.0603 69.096 43.2497 68.7713 43.4391L69.0419 43.8991C69.3124 43.7367 69.583 43.6015 69.8807 43.6015C70.2865 43.6015 70.4218 43.872 70.4218 44.1967C69.1501 44.3861 68.636 44.7108 68.636 45.3332ZM70.3677 44.6838V45.3602C70.1512 45.5767 69.9618 45.6849 69.7183 45.6849C69.4748 45.6849 69.2854 45.5767 69.2854 45.3061C69.3124 44.9814 69.583 44.792 70.3677 44.6838Z" fill="#AFAEB1"/>
<path d="M73.5334 43.0874C73.1275 43.0874 72.8299 43.3039 72.5593 43.5745H72.5323L72.4781 43.1686H71.9099V46.145H72.6134V44.0615C72.8569 43.818 73.0193 43.6827 73.2899 43.6827C73.6146 43.6827 73.7499 43.8721 73.7499 44.3591V46.145H74.4534V44.278C74.4534 43.5203 74.1828 43.0874 73.5334 43.0874Z" fill="#AFAEB1"/>
<path d="M78.2417 46.2261C78.7829 46.2261 79.2429 46.0096 79.5134 45.7661V44.0073H78.1335V44.5755H78.8911V45.4414C78.7558 45.5496 78.5394 45.6037 78.3229 45.6037C77.5382 45.6037 77.1053 45.0626 77.1053 44.1426C77.1053 43.2497 77.5653 42.7085 78.2958 42.7085C78.6746 42.7085 78.8911 42.8709 79.1076 43.0603L79.4864 42.6003C79.2429 42.3568 78.837 42.0862 78.2958 42.0862C77.2406 42.0862 76.4288 42.8709 76.4288 44.1696C76.3747 45.4955 77.1864 46.2261 78.2417 46.2261Z" fill="#AFAEB1"/>
<path d="M81.0285 46.226C81.1908 46.226 81.2991 46.1989 81.4073 46.1719L81.3261 45.6578C81.272 45.6578 81.245 45.6578 81.2179 45.6578C81.1367 45.6578 81.0556 45.6036 81.0556 45.4142V41.8696H80.3521V45.3872C80.3521 45.9013 80.5144 46.226 81.0285 46.226Z" fill="#AFAEB1"/>
<path d="M83.2203 46.2261C83.9509 46.2261 84.6273 45.6579 84.6273 44.6568C84.6273 43.6556 83.9509 43.0874 83.2203 43.0874C82.4897 43.0874 81.8133 43.6556 81.8133 44.6568C81.7862 45.6579 82.4627 46.2261 83.2203 46.2261ZM83.2203 43.6556C83.6532 43.6556 83.9238 44.0615 83.9238 44.6568C83.9238 45.2521 83.6532 45.6579 83.2203 45.6579C82.7874 45.6579 82.5168 45.2521 82.5168 44.6568C82.5168 44.0615 82.7603 43.6556 83.2203 43.6556Z" fill="#AFAEB1"/>
<path d="M85.899 45.8201C86.1696 46.0636 86.4672 46.1989 86.7378 46.1989C87.4142 46.1989 88.0095 45.6036 88.0095 44.5754C88.0095 43.6554 87.5766 43.0601 86.846 43.0601C86.5484 43.0601 86.2237 43.2225 85.9802 43.439L86.0072 42.9519V41.8425H85.3037V46.1177H85.8449L85.899 45.8201ZM85.9802 44.0072C86.1966 43.7907 86.4131 43.6825 86.6296 43.6825C87.0895 43.6825 87.279 44.0342 87.279 44.6295C87.279 45.306 86.9813 45.6577 86.5754 45.6577C86.4131 45.6577 86.1966 45.6036 85.9802 45.4142V44.0072Z" fill="#AFAEB1"/>
<path d="M90.2824 45.8203L90.3635 46.145H90.9318V44.3862C90.9318 43.5474 90.5529 43.0874 89.8224 43.0874C89.3624 43.0874 88.9295 43.2768 88.6048 43.4662L88.8483 43.9262C89.1189 43.7639 89.3895 43.6286 89.6871 43.6286C90.093 43.6286 90.2283 43.8991 90.2283 44.2238C89.0106 44.3591 88.4695 44.6838 88.4695 45.3332C88.4695 45.8473 88.8212 46.1991 89.3624 46.1991C89.6871 46.2261 90.0118 46.0367 90.2824 45.8203ZM89.1459 45.2791C89.1459 44.9815 89.4165 44.765 90.2283 44.6568V45.3332C90.0118 45.5497 89.8224 45.6579 89.5789 45.6579C89.3353 45.6579 89.1459 45.5497 89.1459 45.2791Z" fill="#AFAEB1"/>
<path d="M92.6095 45.6578C92.5283 45.6578 92.4472 45.6036 92.4472 45.4142V41.8696H91.7437V45.3872C91.7437 45.9013 91.9331 46.226 92.4201 46.226C92.5825 46.226 92.7177 46.1989 92.7989 46.1719L92.7177 45.6578C92.6636 45.6578 92.6366 45.6578 92.6095 45.6578Z" fill="#AFAEB1"/>
<path d="M95.18 45.0624H96.5059L96.8035 46.1448H97.5611L96.2623 42.1672H95.4235L94.1248 46.1448H94.8553L95.18 45.0624ZM95.4777 44.0342C95.6129 43.6013 95.7212 43.1684 95.8294 42.7354H95.8565C95.9647 43.1684 96.1 43.6284 96.2082 44.0342L96.3435 44.5213H95.3424L95.4777 44.0342Z" fill="#AFAEB1"/>
<path d="M99.9423 45.3873C99.78 45.5226 99.5635 45.6579 99.32 45.6579C98.86 45.6579 98.5353 45.2521 98.5353 44.6568C98.5353 44.0615 98.86 43.6556 99.347 43.6556C99.5364 43.6556 99.6717 43.7368 99.8341 43.8721L100.186 43.4121C99.9694 43.2227 99.6988 43.0874 99.32 43.0874C98.5353 43.0874 97.8318 43.6556 97.8318 44.6568C97.8318 45.6579 98.4541 46.2261 99.2659 46.2261C99.6176 46.2261 99.9694 46.1179 100.24 45.8473L99.9423 45.3873Z" fill="#AFAEB1"/>
<path d="M103.054 44.3862C103.054 43.5474 102.675 43.0874 101.944 43.0874C101.457 43.0874 101.052 43.2768 100.727 43.4662L100.997 43.9262C101.268 43.7639 101.539 43.6286 101.836 43.6286C102.242 43.6286 102.377 43.8991 102.377 44.2238C101.16 44.3591 100.619 44.6838 100.619 45.3332C100.619 45.8473 100.97 46.1991 101.512 46.1991C101.863 46.1991 102.161 46.0367 102.432 45.7932H102.459L102.513 46.1179H103.081V44.3862H103.054ZM102.35 45.3603C102.134 45.5767 101.944 45.685 101.701 45.685C101.457 45.685 101.268 45.5767 101.268 45.3062C101.268 45.0085 101.539 44.7921 102.35 44.6838V45.3603Z" fill="#AFAEB1"/>
<path d="M106.409 46.1448V41.8696H105.706V42.9519L105.733 43.439C105.489 43.2496 105.3 43.1143 104.948 43.1143C104.299 43.1143 103.676 43.7096 103.676 44.6837C103.676 45.6578 104.163 46.253 104.894 46.253C105.219 46.253 105.516 46.0907 105.733 45.8472H105.76L105.814 46.1719H106.409V46.1448ZM105.706 45.306C105.516 45.5495 105.327 45.6307 105.083 45.6307C104.65 45.6307 104.407 45.2789 104.407 44.6295C104.407 44.0072 104.732 43.6555 105.11 43.6555C105.3 43.6555 105.516 43.7096 105.706 43.899V45.306Z" fill="#AFAEB1"/>
<path d="M109.358 45.4685C109.142 45.6038 108.925 45.685 108.655 45.685C108.168 45.685 107.843 45.3873 107.789 44.8462H109.683C109.71 44.765 109.71 44.6297 109.71 44.4944C109.71 43.6556 109.277 43.0874 108.465 43.0874C107.762 43.0874 107.085 43.6827 107.085 44.6568C107.085 45.6309 107.735 46.2261 108.547 46.2261C108.925 46.2261 109.277 46.0908 109.575 45.9014L109.358 45.4685ZM108.492 43.6286C108.898 43.6286 109.115 43.8991 109.115 44.3591H107.789C107.843 43.8991 108.141 43.6286 108.492 43.6286Z" fill="#AFAEB1"/>
<path d="M112.173 46.145H112.876V44.0615C113.12 43.818 113.309 43.6827 113.498 43.6827C113.823 43.6827 113.958 43.8721 113.958 44.3591V46.145H114.662V44.278C114.662 43.5203 114.364 43.0874 113.742 43.0874C113.363 43.0874 113.066 43.3309 112.795 43.6286C112.66 43.3039 112.416 43.0874 111.983 43.0874C111.604 43.0874 111.307 43.3039 111.063 43.5745H111.036L110.982 43.1686H110.414V46.145H111.117V44.0615C111.361 43.818 111.55 43.6827 111.74 43.6827C112.064 43.6827 112.2 43.8721 112.2 44.3591V46.145H112.173Z" fill="#AFAEB1"/>
<path d="M116.231 46.3072C116.123 46.6048 115.96 46.8213 115.636 46.8213C115.555 46.8213 115.473 46.7942 115.419 46.7672L115.284 47.3083C115.392 47.3354 115.5 47.3624 115.663 47.3624C116.312 47.3624 116.637 46.9566 116.88 46.2801L117.963 43.1685H117.286L116.853 44.6296C116.772 44.9002 116.691 45.1978 116.637 45.4684H116.61C116.529 45.1707 116.447 44.9002 116.339 44.6296L115.825 43.1685H115.122L116.285 46.1178L116.231 46.3072Z" fill="#AFAEB1"/>
<path d="M119.938 42.8438V43.1685L119.532 43.1955V43.7097H119.938V46.1449H120.642V43.7097H121.237V43.1414H120.642V42.8167C120.642 42.465 120.777 42.3026 121.02 42.3026C121.129 42.3026 121.237 42.3297 121.345 42.3838L121.48 41.8697C121.345 41.8156 121.156 41.7615 120.939 41.7615C120.209 41.7885 119.938 42.2215 119.938 42.8438Z" fill="#AFAEB1"/>
<path d="M122.887 43.0874C122.157 43.0874 121.48 43.6556 121.48 44.6568C121.48 45.6309 122.157 46.2261 122.887 46.2261C123.618 46.2261 124.294 45.6579 124.294 44.6568C124.321 43.6556 123.645 43.0874 122.887 43.0874ZM122.887 45.6309C122.454 45.6309 122.184 45.225 122.184 44.6297C122.184 44.0344 122.454 43.6286 122.887 43.6286C123.32 43.6286 123.591 44.0344 123.591 44.6297C123.591 45.252 123.32 45.6309 122.887 45.6309Z" fill="#AFAEB1"/>
<path d="M125.647 43.6827L125.566 43.1415H124.998V46.1179H125.701V44.305C125.891 43.845 126.161 43.6827 126.405 43.6827C126.54 43.6827 126.594 43.7097 126.702 43.7368L126.811 43.1415C126.73 43.0874 126.621 43.0874 126.486 43.0874C126.188 43.0874 125.864 43.3039 125.647 43.6827Z" fill="#AFAEB1"/>
<path d="M129.327 42.1672L128.028 46.1448H128.759L129.057 45.0624H130.382L130.68 46.1448H131.438L130.139 42.1672H129.327ZM129.219 44.5213L129.354 44.0342C129.489 43.6013 129.598 43.1684 129.706 42.7354H129.733C129.841 43.1684 129.976 43.6284 130.085 44.0342L130.22 44.5213H129.219Z" fill="#AFAEB1"/>
<path d="M132.52 43.6827L132.439 43.1415H131.871V46.1179H132.574V44.305C132.764 43.845 133.034 43.6827 133.278 43.6827C133.413 43.6827 133.467 43.7097 133.575 43.7368L133.683 43.1415C133.602 43.0874 133.494 43.0874 133.359 43.0874C133.034 43.0874 132.736 43.3039 132.52 43.6827Z" fill="#AFAEB1"/>
<path d="M135.145 43.0874C134.658 43.0874 134.252 43.2768 133.927 43.4662L134.198 43.9262C134.468 43.7639 134.739 43.6286 135.036 43.6286C135.442 43.6286 135.578 43.8991 135.578 44.2238C134.36 44.3591 133.819 44.6838 133.819 45.3332C133.819 45.8473 134.171 46.1991 134.712 46.1991C135.064 46.1991 135.361 46.0367 135.632 45.7932H135.659L135.713 46.1179H136.281V44.3591C136.254 43.5474 135.902 43.0874 135.145 43.0874ZM135.578 45.3332C135.361 45.5497 135.172 45.6579 134.928 45.6579C134.685 45.6579 134.495 45.5497 134.495 45.2791C134.495 44.9815 134.766 44.765 135.578 44.6568V45.3332Z" fill="#AFAEB1"/>
<path d="M138.635 43.0872C138.337 43.0872 138.013 43.2495 137.769 43.466L137.796 42.979V41.8425H137.093V46.1177H137.634L137.688 45.793H137.715C137.959 46.0365 138.256 46.1718 138.527 46.1718C139.176 46.1718 139.799 45.5765 139.799 44.5483C139.826 43.6825 139.393 43.0872 138.635 43.0872ZM138.392 45.6307C138.229 45.6307 138.013 45.5765 137.796 45.3871V44.0072C138.013 43.7907 138.229 43.6825 138.446 43.6825C138.906 43.6825 139.095 44.0342 139.095 44.6295C139.095 45.2789 138.797 45.6307 138.392 45.6307Z" fill="#AFAEB1"/>
<path d="M140.881 41.8425C140.638 41.8425 140.448 42.0049 140.448 42.2484C140.448 42.4919 140.638 42.6543 140.881 42.6543C141.125 42.6543 141.314 42.4919 141.314 42.2484C141.314 42.0049 141.125 41.8425 140.881 41.8425Z" fill="#AFAEB1"/>
<path d="M141.233 43.1685H140.529V46.1448H141.233V43.1685Z" fill="#AFAEB1"/>
<path d="M143.424 45.6308C142.964 45.6308 142.64 45.2249 142.64 44.6297C142.64 44.0344 142.964 43.6285 143.452 43.6285C143.641 43.6285 143.776 43.7097 143.939 43.845L144.29 43.385C144.074 43.1956 143.803 43.0603 143.424 43.0603C142.64 43.0603 141.936 43.6285 141.936 44.6297C141.936 45.6038 142.559 46.199 143.37 46.199C143.722 46.199 144.074 46.0908 144.344 45.8202L144.047 45.3602C143.884 45.5226 143.668 45.6308 143.424 45.6308Z" fill="#AFAEB1"/>
<path d="M146.888 42.1672H146.184V46.1448H148.538V45.5495H146.888V42.1672Z" fill="#AFAEB1"/>
<path d="M150.351 43.0874C149.864 43.0874 149.458 43.2768 149.134 43.4662L149.404 43.9262C149.675 43.7639 149.945 43.6286 150.243 43.6286C150.649 43.6286 150.784 43.8991 150.784 44.2238C149.567 44.3591 149.025 44.6838 149.025 45.3332C149.025 45.8473 149.377 46.1991 149.918 46.1991C150.27 46.1991 150.568 46.0367 150.838 45.7932H150.865L150.919 46.1179H151.488V44.3591C151.461 43.5474 151.109 43.0874 150.351 43.0874ZM150.757 45.3332C150.541 45.5497 150.351 45.6579 150.108 45.6579C149.864 45.6579 149.675 45.5497 149.675 45.2791C149.675 44.9815 149.945 44.765 150.757 44.6568V45.3332Z" fill="#AFAEB1"/>
<path d="M153.923 43.0874C153.517 43.0874 153.22 43.3039 152.949 43.5745H152.922L152.868 43.1686H152.3V46.145H153.003V44.0615C153.247 43.818 153.409 43.6827 153.68 43.6827C154.004 43.6827 154.14 43.8721 154.14 44.3591V46.145H154.843V44.278C154.843 43.5203 154.572 43.0874 153.923 43.0874Z" fill="#AFAEB1"/>
<path d="M157.251 45.685H156.71C156.358 45.685 156.223 45.5767 156.223 45.4144C156.223 45.2791 156.277 45.1979 156.358 45.1168C156.493 45.1709 156.629 45.1979 156.764 45.1979C157.386 45.1979 157.9 44.8462 157.9 44.1697C157.9 43.9533 157.819 43.7909 157.738 43.6827H158.279V43.1686H157.224C157.089 43.1145 156.953 43.0874 156.791 43.0874C156.169 43.0874 155.6 43.4662 155.6 44.1697C155.6 44.5215 155.79 44.8191 156.006 44.9544V44.9815C155.844 45.0897 155.682 45.3062 155.682 45.5497C155.682 45.7932 155.79 45.9556 155.952 46.0367V46.0638C155.682 46.2261 155.519 46.4426 155.519 46.6861C155.519 47.2002 156.06 47.4708 156.764 47.4708C157.738 47.4708 158.36 47.0108 158.36 46.4156C158.333 45.9014 157.954 45.685 157.251 45.685ZM156.791 43.5745C157.089 43.5745 157.305 43.7909 157.305 44.1697C157.305 44.5485 157.062 44.765 156.791 44.765C156.493 44.765 156.277 44.5485 156.277 44.1697C156.25 43.7909 156.493 43.5745 156.791 43.5745ZM156.845 47.0108C156.385 47.0108 156.087 46.8485 156.087 46.5779C156.087 46.4426 156.169 46.3073 156.331 46.172C156.439 46.1991 156.575 46.2261 156.737 46.2261H157.143C157.495 46.2261 157.657 46.3073 157.657 46.5238C157.657 46.7673 157.332 47.0108 156.845 47.0108Z" fill="#AFAEB1"/>
<path d="M160.661 45.1978C160.444 45.4954 160.255 45.6036 160.011 45.6036C159.686 45.6036 159.551 45.4142 159.551 44.9272V43.1414H158.848V45.0084C158.848 45.766 159.118 46.1989 159.768 46.1989C160.173 46.1989 160.471 46.0095 160.715 45.6848H160.742L160.796 46.1177H161.364V43.1414H160.661V45.1978Z" fill="#AFAEB1"/>
<path d="M163.42 43.0874C162.933 43.0874 162.527 43.2768 162.203 43.4662L162.473 43.9262C162.744 43.7639 163.014 43.6286 163.312 43.6286C163.718 43.6286 163.853 43.8991 163.853 44.2238C162.636 44.3591 162.094 44.6838 162.094 45.3332C162.094 45.8473 162.446 46.1991 162.987 46.1991C163.339 46.1991 163.637 46.0367 163.907 45.7932H163.934L163.989 46.1179H164.557V44.3591C164.53 43.5474 164.151 43.0874 163.42 43.0874ZM163.826 45.3332C163.61 45.5497 163.42 45.6579 163.177 45.6579C162.933 45.6579 162.744 45.5497 162.744 45.2791C162.744 44.9815 163.014 44.765 163.826 44.6568V45.3332Z" fill="#AFAEB1"/>
<path d="M166.911 45.685H166.37C166.018 45.685 165.882 45.5767 165.882 45.4144C165.882 45.2791 165.937 45.1979 166.018 45.1168C166.153 45.1709 166.288 45.1979 166.424 45.1979C167.046 45.1979 167.56 44.8462 167.56 44.1697C167.56 43.9533 167.479 43.7909 167.398 43.6827H167.939V43.1686H166.884C166.775 43.1145 166.613 43.0874 166.451 43.0874C165.828 43.0874 165.26 43.4662 165.26 44.1697C165.26 44.5215 165.45 44.8191 165.666 44.9544V44.9815C165.504 45.0897 165.341 45.3062 165.341 45.5497C165.341 45.7932 165.45 45.9556 165.612 46.0367V46.0638C165.341 46.2261 165.179 46.4426 165.179 46.6861C165.179 47.2002 165.72 47.4708 166.424 47.4708C167.398 47.4708 168.02 47.0108 168.02 46.4156C167.993 45.9014 167.614 45.685 166.911 45.685ZM166.451 43.5745C166.748 43.5745 166.965 43.7909 166.965 44.1697C166.965 44.5485 166.721 44.765 166.451 44.765C166.153 44.765 165.937 44.5485 165.937 44.1697C165.937 43.7909 166.153 43.5745 166.451 43.5745ZM166.505 47.0108C166.045 47.0108 165.747 46.8485 165.747 46.5779C165.747 46.4426 165.828 46.3073 165.991 46.172C166.099 46.1991 166.234 46.2261 166.397 46.2261H166.802C167.154 46.2261 167.317 46.3073 167.317 46.5238C167.317 46.7673 166.992 47.0108 166.505 47.0108Z" fill="#AFAEB1"/>
<path d="M169.617 43.0874C168.913 43.0874 168.237 43.6827 168.237 44.6568C168.237 45.6309 168.886 46.2261 169.698 46.2261C170.077 46.2261 170.428 46.0908 170.726 45.9014L170.482 45.4685C170.266 45.6038 170.049 45.685 169.779 45.685C169.292 45.685 168.967 45.3873 168.913 44.8462H170.807C170.834 44.765 170.834 44.6297 170.834 44.4944C170.834 43.6556 170.401 43.0874 169.617 43.0874ZM168.913 44.3591C168.967 43.8721 169.292 43.6286 169.617 43.6286C170.022 43.6286 170.239 43.8991 170.239 44.3591H168.913Z" fill="#AFAEB1"/>
<path d="M48.3973 15.1635H63.4956C64.145 14.7576 64.605 14.1353 64.8485 13.3235C64.9027 12.9177 64.9027 12.4847 64.9027 12.0789C64.9027 11.9165 64.9027 11.7271 64.9027 11.5648C64.8485 10.7801 64.6862 9.86011 64.4156 8.80484L64.1991 8.75073L63.0627 10.4283C63.4415 11.7812 63.658 12.7553 63.7392 13.4047H48.3973C47.4232 13.4047 46.5303 13.2965 45.6644 13.053C44.1492 12.5659 43.3645 11.6189 43.3645 10.266V9.8601L43.1751 9.77893C42.9045 10.266 42.7421 10.8342 42.688 11.5106V11.8083C42.661 14.027 44.5821 15.1635 48.3973 15.1635Z" fill="#AFAEB1"/>
<path d="M54.3771 9.56222C54.323 9.45399 53.8359 9.15635 52.8618 8.58813C52.8348 8.58813 52.7807 8.58814 52.7536 8.61519C52.3207 9.18341 52.0771 9.61633 52.0771 9.99515V10.0222C53.0512 10.6445 53.5653 10.9422 53.6465 10.9422C53.9712 10.6716 54.1877 10.2116 54.3771 9.56222Z" fill="#AFAEB1"/>
<path d="M96.2898 13.4858C96.4792 13.0529 96.5874 12.4576 96.6145 11.6459V10.6447L96.4251 10.5365L95.2616 11.7541L95.2887 13.4317C93.9628 13.3776 93.2052 13.2152 93.0158 12.9988L93.584 10.6988L93.4216 10.6177L92.3664 11.6188L91.8523 13.4046H88.47C88.7136 13.0529 88.903 12.7011 89.0112 12.3494C89.1465 12.0247 89.2006 11.6729 89.2006 11.3482L89.0112 11.267C88.7136 11.7541 88.3347 12.187 87.9289 12.5929C87.4959 12.9717 86.9007 13.2693 86.0889 13.4046H84.4113H84.1678C83.4914 13.4046 83.0314 13.1611 82.7879 12.7011C82.5443 12.2411 82.3549 11.3212 82.2467 9.99532C82.1385 8.64242 82.0032 7.046 81.8138 5.20605H81.6244L80.7856 6.64013C80.975 8.45301 81.1103 9.88709 81.1644 10.9153C81.2185 11.7 81.2997 12.3494 81.3808 12.8364C81.1373 13.2423 80.4879 13.4317 79.4597 13.4317C79.3785 13.4317 79.2974 13.4317 79.2162 13.4317H78.8374C78.5939 13.3776 78.3774 13.3235 78.1609 13.2152C77.1598 12.647 76.6457 11.8353 76.6457 10.78V10.1847C76.6457 10.1306 76.5375 10.0765 76.2939 10.0494C75.5904 10.0494 74.8328 10.2659 74.0211 10.6718C73.4258 10.9153 72.8576 11.4023 72.3164 12.187C71.8835 13.0258 71.0447 13.4587 69.8541 13.4587H69.7729C69.7459 13.4587 69.7459 13.4317 69.7459 13.4317H69.5024C68.8259 13.4317 68.3659 13.1882 68.1224 12.7282C67.8789 12.2682 67.6895 11.3482 67.5812 10.0224C67.473 8.66948 67.3377 7.07306 67.1483 5.23311H66.9319L66.1201 6.66719C66.3095 8.48007 66.4178 9.91414 66.4989 10.9423C66.5801 11.9976 66.6883 12.7552 66.7966 13.2693C66.986 13.9458 67.3377 14.4058 67.8248 14.7305C68.2306 15.0281 68.7447 15.1905 69.34 15.2175L69.3671 15.2446H69.5565H69.6647H69.7188C69.9082 15.2446 70.2329 15.1634 70.6929 15.001C71.207 14.8387 71.6129 14.3517 71.9105 13.567C71.9376 13.7293 72.127 13.9728 72.5329 14.3246C73.3987 14.8658 74.6434 15.4069 76.321 15.894C76.5104 15.894 76.7539 15.5693 77.0516 14.8928C77.4845 15.1363 78.0256 15.2446 78.675 15.2446H78.7021H78.8103H78.9456H79.108C79.5138 15.2446 79.8385 15.1905 80.1091 15.0822C80.5962 14.9199 81.0832 14.487 81.6244 13.7564C81.8408 14.1893 82.1114 14.5411 82.4902 14.7575C82.8961 15.0552 83.4372 15.2175 84.0596 15.2446H84.2219H84.3572H85.9536C86.5219 15.1093 86.9818 14.8658 87.2524 14.5411L87.4959 15.2446H89.8229H91.0676L91.8523 14.4869C92.3934 14.974 93.3946 15.2175 94.8557 15.2446H95.2345C95.7486 14.6493 96.0733 14.0811 96.2898 13.4858ZM75.9963 13.7023C74.454 13.1341 73.5611 12.7011 73.2905 12.3494V12.2952C73.8046 12.0517 74.5081 11.8623 75.401 11.727C75.4822 11.727 75.5634 11.7812 75.6445 11.8623V12.3494C75.6445 12.7823 75.7798 13.2152 76.0234 13.6481V13.7023H75.9963Z" fill="#AFAEB1"/>
<path d="M107.898 11.7271L107.952 11.7541C108.79 11.2941 109.196 10.6718 109.196 9.91419C109.196 9.4542 108.547 9.21068 107.248 9.21068C107.979 8.72363 108.682 8.48011 109.359 8.48011H109.602C110.008 8.48011 110.225 8.64246 110.225 8.96715H110.252C110.576 8.58834 110.739 8.26364 110.739 7.99306C110.739 7.64131 110.495 7.4519 110.008 7.4519H109.71C108.899 7.4519 108.033 7.80366 107.167 8.50717C106.572 9.07538 106.274 9.50831 106.274 9.88713V9.99536C106.274 10.1577 106.409 10.2389 106.707 10.2389H106.978C107.681 10.2389 108.195 10.3742 108.547 10.6177C108.006 10.9424 107.221 11.1047 106.193 11.1047C105.652 11.0777 105.029 11.0236 104.38 10.9424L104.326 10.9694V10.9965C105.381 11.5647 106.436 11.8353 107.573 11.8353C107.681 11.8353 107.762 11.7812 107.898 11.7271Z" fill="#AFAEB1"/>
<path d="M106.978 15.1633H112.2C112.795 14.7574 113.309 14.2433 113.715 13.6481C113.986 14.7574 114.419 15.5421 115.068 16.0292C115.366 16.2998 115.745 16.4621 116.178 16.4621C116.394 16.4621 116.61 16.435 116.854 16.3809C117.07 16.2456 117.287 16.0021 117.476 15.7045C117.666 15.4068 117.747 14.8927 117.747 14.1622V13.9186C118.315 14.6492 118.992 15.0551 119.749 15.1363C119.885 15.1633 120.02 15.1633 120.182 15.1633C120.182 15.1633 120.182 15.1633 120.209 15.1633H120.344C120.344 15.1633 120.344 15.1633 120.372 15.1363C120.696 15.1092 120.994 15.0822 121.346 14.9739C122.022 14.6492 122.536 14.4869 122.915 14.4598H122.969C123.375 14.4598 124.133 14.7575 125.242 15.3798H125.377C125.702 14.6763 125.918 14.1622 125.973 13.8645C126 13.8104 126 13.7292 126 13.6481C126 13.594 126 13.5398 125.973 13.5128C125.837 13.3775 125.594 13.2151 125.269 13.0257C124.566 12.7552 124.106 12.4575 123.862 12.1328C123.619 11.8081 123.402 10.7529 123.267 8.91292L123.7 9.12939H123.808L124.566 7.6412V7.47885L123.05 6.4777C122.563 6.26123 122.32 5.90948 122.32 5.47655C122.32 5.42244 122.32 5.34126 122.32 5.28715L122.184 5.17892L122.076 5.34126C121.616 6.01772 121.373 6.61299 121.373 7.07298V7.26239C121.373 7.58708 121.67 7.88472 122.266 8.20942C122.536 11.0234 122.699 12.5658 122.726 12.8093C122.076 13.1881 121.319 13.3504 120.48 13.3504C120.399 13.3504 120.317 13.3504 120.236 13.3504H120.155C120.047 13.3504 119.912 13.3504 119.722 13.3234C119.235 13.2422 118.883 13.0257 118.667 12.6469C118.396 12.1869 118.018 9.6976 117.558 5.15186H117.368L116.529 6.58593C116.935 10.2929 117.152 12.4575 117.179 13.0528C117.125 13.621 117.043 14.0269 116.989 14.2975C116.908 14.568 116.719 14.7033 116.394 14.7033C115.826 14.7033 115.393 14.3786 115.068 13.7022C114.743 13.0257 114.392 10.1846 114.013 5.15186H113.796L112.904 6.58593L113.282 10.8611C113.336 11.6458 113.418 12.2952 113.499 12.7822C113.282 13.1881 112.66 13.3775 111.605 13.3775H106.978C106.004 13.3775 105.111 13.2693 104.245 13.0528C102.73 12.5658 101.945 11.6187 101.945 10.2658V9.85995L101.756 9.77878C101.485 10.2658 101.323 10.834 101.269 11.5105V11.8081C101.242 14.0539 103.136 15.1633 106.978 15.1633Z" fill="#AFAEB1"/>
<path d="M128.056 15.1634C128.489 14.2975 128.759 13.4587 128.895 12.6199C128.895 11.4565 128.597 8.99418 128.029 5.20605H127.758L126.838 7.07306C127.461 10.9965 127.785 13.7023 127.785 15.1905H128.056V15.1634Z" fill="#AFAEB1"/>
<path d="M157.089 13.9728C158.199 13.2422 158.983 12.8634 159.497 12.8363C159.606 13.6481 159.768 14.1622 159.93 14.4327C160.147 14.9198 160.85 15.1633 162.014 15.1633H163.583C164.097 15.1633 164.557 15.0821 164.963 14.9468C165.207 14.7574 165.423 14.541 165.639 14.2975C165.829 14.0539 166.045 13.7563 166.289 13.3775C166.397 13.4857 166.749 13.6751 167.29 13.9457C168.454 14.4327 169.292 14.7033 169.779 14.7845C169.915 14.7845 170.239 14.2433 170.808 13.1881V12.5387C170.618 10.3199 170.023 9.21055 169.049 9.21055H168.995C167.885 9.21055 166.857 10.374 165.937 12.674C165.585 13.161 164.774 13.4045 163.502 13.4045H163.312H161.202C160.85 13.4045 160.526 13.161 160.255 12.701H161.743L162.636 11.0234L162.582 10.8881H162.176C161.283 10.8881 160.011 10.6446 158.388 10.1846C158.199 10.1305 157.847 10.0493 157.333 9.91406C156.819 9.77877 156.386 9.72465 156.034 9.72465H156.007C155.087 9.72465 154.356 10.0764 153.842 10.7799C153.545 11.2128 153.328 11.6458 153.22 12.0787L153.409 12.1599C153.761 11.6999 154.275 11.4564 154.924 11.4564H155.141C155.52 11.4564 156.034 11.5375 156.71 11.6999C157.387 11.8622 157.766 11.9705 157.874 11.9975C156.656 12.7552 155.087 13.2151 153.085 13.3504H152.083L152.056 13.3775H152.029C151.759 13.3234 151.488 13.2422 151.245 13.161C150.243 12.5928 149.729 11.7811 149.729 10.7258V10.1846C149.729 10.1305 149.621 10.0764 149.378 10.0493C148.674 10.0493 147.916 10.2658 147.105 10.6717C146.509 10.9152 145.941 11.4022 145.4 12.1869C144.967 13.0257 144.128 13.4587 142.938 13.4587H142.803L142.775 13.4316H141.206C139.853 13.4316 138.987 13.2693 138.609 12.9175L138.527 12.8363L139.096 12.6199C140.178 12.241 140.746 11.9975 140.8 11.9163L141.477 10.4011L141.26 10.2658C139.745 10.9152 138.365 11.5375 137.066 12.1328C136.606 12.0787 136.011 11.8081 135.28 11.3211C134.523 10.7799 134.171 10.3199 134.171 9.91406C134.658 9.26466 135.524 8.93997 136.742 8.93997C137.229 8.93997 137.905 9.02114 138.798 9.21055H138.825L138.987 8.96703L138.906 8.83174C137.905 7.96588 137.174 7.47884 136.66 7.37061C135.957 7.37061 135.28 7.66824 134.631 8.29058C133.846 9.23761 133.44 10.1305 133.44 10.9964C133.44 11.9705 134.117 12.7822 135.47 13.4045C134.712 14.1622 134.225 14.8927 133.982 15.5962C133.738 16.2997 133.63 16.868 133.63 17.2197V17.9773C133.657 18.3291 133.765 18.7079 133.982 19.1408C134.577 20.142 136.038 20.6561 138.365 20.6561C139.583 20.6561 140.476 20.4667 141.071 20.1149L142.64 19.1138V18.8703H139.068C137.418 18.8703 136.173 18.5456 135.362 17.9232C134.793 17.4632 134.496 16.9221 134.496 16.2456C134.496 16.1374 134.496 16.0021 134.523 15.8939C134.929 15.1363 135.362 14.6221 135.849 14.3245C136.417 13.8104 137.12 13.3775 137.986 12.9716C138.013 13.5398 138.094 13.9186 138.176 14.108C138.527 14.7574 139.474 15.0821 140.99 15.0821H142.532H142.83C143.019 15.0821 143.344 15.001 143.858 14.8386C144.372 14.6763 144.778 14.1892 145.075 13.4045C145.102 13.5669 145.292 13.8104 145.698 14.1622C146.564 14.7033 147.808 15.2445 149.486 15.7315C149.675 15.7315 149.919 15.4068 150.216 14.7304C150.649 14.9739 151.19 15.0821 151.84 15.0821H151.867H152.138H152.273H153.166C154.654 15.1092 155.98 14.7033 157.089 13.9728ZM168.454 10.7258C168.995 10.7799 169.428 11.5105 169.698 12.9175C168.724 12.6469 167.885 12.2681 167.128 11.8081C167.479 11.1587 167.912 10.807 168.454 10.7258ZM149.08 13.7022C147.538 13.134 146.645 12.701 146.374 12.3493V12.2952C146.888 12.0516 147.592 11.8622 148.485 11.7269C148.566 11.7269 148.647 11.7811 148.728 11.8622V12.3493C148.728 12.7822 148.864 13.2151 149.107 13.6481V13.7022H149.08Z" fill="#AFAEB1"/>
<path d="M157.089 16.0833C156.683 16.6515 156.467 17.0574 156.467 17.3551C156.494 17.4092 156.494 17.4362 156.494 17.4362C157.441 18.0044 157.955 18.3021 158.009 18.3021H158.063C158.496 17.7339 158.713 17.2739 158.713 16.9492C158.713 16.9221 158.713 16.9221 158.686 16.8951C158.496 16.7598 158.009 16.4621 157.197 15.9751C157.17 16.0022 157.143 16.0292 157.089 16.0833Z" fill="#AFAEB1"/>
<path d="M45.1772 23.2806C44.2572 22.7124 43.716 22.4148 43.6078 22.4148C43.2561 22.7936 43.0125 23.2536 42.9043 23.7947C42.9855 23.93 43.4996 24.2547 44.4737 24.7959C44.5548 24.7688 44.7713 24.4983 45.1231 23.93C45.9889 24.4712 46.476 24.7418 46.5842 24.7418H46.6383C47.0712 24.2006 47.2877 23.7677 47.2877 23.443V23.3889C47.2877 23.3077 46.8007 22.983 45.7724 22.4148C45.6101 22.4148 45.3936 22.7124 45.1772 23.2806Z" fill="#AFAEB1"/>
<path d="M65.9307 33.7793C65.7683 33.7793 65.5518 34.0769 65.2813 34.6452C64.3342 34.104 63.8472 33.8064 63.8472 33.7793C63.7931 33.7793 63.766 33.7793 63.7119 33.8063C63.279 34.4016 63.0625 34.8616 63.0625 35.1322V35.1592C63.1166 35.2404 63.6307 35.5651 64.5778 36.1063C64.8483 35.8628 65.0377 35.5922 65.173 35.2675V35.2404C66.1201 35.7816 66.6342 36.0792 66.6342 36.1063L66.7153 36.0792C67.1753 35.511 67.3918 35.051 67.3918 34.7263V34.6993C67.4188 34.6993 66.9318 34.3746 65.9307 33.7793Z" fill="#AFAEB1"/>
<path d="M74.5622 30.0994C74.5622 29.2606 74.2105 28.2866 73.534 27.1772H73.3987L72.587 28.7736C73.1552 29.9371 73.4529 30.5865 73.4529 30.7488H71.5317C70.9365 30.7488 70.5035 30.6406 70.2059 30.4241C69.9083 30.2347 69.7189 29.9642 69.5836 29.6395C69.7459 29.2336 69.8542 28.9089 69.9624 28.6383L69.2589 28.3407C68.5013 29.9371 67.5542 30.7488 66.4178 30.7488H57.7592H57.4886H54.0523H53.7817H50.1018C49.75 30.7218 49.2901 30.4783 48.7489 29.9912C48.2348 29.4771 47.856 28.4219 47.5854 26.8525C47.5042 25.8784 47.4231 25.3914 47.396 25.3914L47.3419 25.4184C46.936 25.9596 46.7466 26.4466 46.7466 26.8525V27.1231L46.7737 27.1772C46.6654 27.2313 46.6384 27.2854 46.6384 27.3125C44.8796 28.0701 43.9326 28.5842 43.7432 28.8818C43.175 29.5853 42.7961 30.4242 42.6338 31.3982V31.5065C42.6338 31.8853 43.0126 32.0747 43.7432 32.0747C45.1502 32.0747 46.2054 31.8312 46.8819 31.3171C47.1525 31.0194 47.3148 30.6947 47.3689 30.37H47.396C47.9372 31.8041 48.8301 32.5076 50.0747 32.5076H53.7817H54.0523H57.4886H57.7592H66.2825C66.7154 32.4535 67.0942 32.3723 67.3919 32.2641C68.0142 32.0476 68.5554 31.5335 68.9612 30.6947H68.9883C68.9883 30.8571 69.0424 31.0735 69.1777 31.3441C69.6106 32.1017 70.26 32.4806 71.1259 32.5076H71.2612H71.5859H73.8046C74.2375 31.3441 74.5081 30.5594 74.5622 30.0994ZM44.7443 30.2889H44.2843C44.0408 30.2889 43.8243 30.2618 43.5808 30.2077V30.1806C43.6079 30.1265 43.7702 30.0183 44.0679 29.8559C45.2043 29.423 45.9619 29.0712 46.3407 28.8007C46.5572 28.5842 46.7737 28.3407 46.909 28.043C46.909 28.2866 47.0172 28.8277 47.2066 29.6936C46.5301 30.0994 45.7184 30.2889 44.7443 30.2889Z" fill="#AFAEB1"/>
<path d="M72.0728 34.8886V34.9969C72.1269 35.1051 72.641 35.4298 73.588 35.9709C73.8045 35.9709 74.048 35.511 74.3456 34.5639C74.1833 34.4016 73.6962 34.1039 72.8304 33.5898C72.5869 33.5898 72.3163 34.0228 72.0728 34.8886Z" fill="#AFAEB1"/>
<path d="M91.3382 22.4691L91.3923 22.1715L91.2029 22.0632C90.6888 22.7397 90.4182 23.362 90.4182 23.9032C90.4182 24.4714 90.6888 24.9043 91.2299 25.229C91.7982 28.0431 92.0958 29.883 92.0958 30.7218H90.1206H89.877C89.1465 30.7218 88.5783 30.5324 88.1453 30.1265C88.443 29.6124 88.6053 29.1254 88.6053 28.7195V28.5842C88.6053 28.503 88.5783 28.3678 88.5512 28.2054C88.1453 27.529 87.523 27.2043 86.6571 27.2043H86.3054C85.7101 27.2043 85.1148 27.3395 84.4925 27.6372C84.249 28.1513 84.0325 28.6925 83.8431 29.2336L83.9243 29.3148C84.1407 29.2607 84.3572 29.2336 84.5196 29.2336C85.1419 29.2336 85.7372 29.5583 86.3054 30.2347C85.3854 30.5594 84.276 30.7218 82.9231 30.7218H82.4632H82.3008C81.002 30.5865 80.2715 29.8289 80.1091 28.476H79.8656C79.5679 29.0171 79.3515 29.5313 79.2432 30.0454C79.2974 30.7759 79.6762 31.3982 80.4067 31.9123L80.2444 32.2912C79.3244 33.8876 77.9715 34.6723 76.2398 34.6723C75.6986 34.6452 75.1575 34.537 74.6163 34.3476L74.5352 34.6993C76.0775 35.6193 77.1598 36.0793 77.7821 36.1334C78.0256 36.1334 78.2962 36.1063 78.5939 36.0252C78.7562 35.9981 79.108 35.7005 79.6221 35.1052C80.4338 34.0499 80.9479 33.1029 81.1914 32.237L81.4079 32.3182C81.6514 32.3994 81.8949 32.4535 82.1655 32.4535H82.2467H82.4902C84.4654 32.3723 86.0078 31.9665 87.1171 31.2359C87.1442 31.2359 87.1983 31.29 87.3065 31.4253C87.7124 32.1018 88.5241 32.4535 89.7688 32.4535H89.9312H90.1747H92.4476C92.9617 31.4253 93.2052 30.4242 93.2052 29.4501C93.2052 28.6113 93.0699 27.529 92.8264 26.1761L93.0158 26.2572L93.097 26.2302L93.8546 24.6879V24.5526L92.8534 23.9032C91.8252 23.4432 91.3382 22.9291 91.3382 22.4691Z" fill="#AFAEB1"/>
<path d="M96.1546 22.5771L95.2346 24.4442C95.857 28.3676 96.1816 31.0734 96.1816 32.5616H96.4522C96.8852 31.6957 97.1557 30.8569 97.291 30.0181C97.291 28.8546 96.9934 26.3923 96.4252 22.6042H96.1546V22.5771Z" fill="#AFAEB1"/>
<path d="M104.272 23.2806C103.352 22.7124 102.811 22.4148 102.703 22.4148C102.351 22.7936 102.107 23.2536 101.999 23.7947C102.08 23.93 102.595 24.2547 103.569 24.7959C103.65 24.7688 103.866 24.4983 104.218 23.93C105.084 24.4712 105.571 24.7418 105.679 24.7418H105.733C106.166 24.2006 106.383 23.7677 106.383 23.443V23.3889C106.383 23.3077 105.869 22.983 104.867 22.4148C104.705 22.4148 104.489 22.7124 104.272 23.2806Z" fill="#AFAEB1"/>
<path d="M116.096 23.7136C115.744 24.1195 115.528 24.5524 115.447 24.9853V25.1206C116.286 25.6618 116.8 25.9594 116.962 26.0135H117.016C117.368 25.6076 117.584 25.1747 117.693 24.7418V24.6336C117.638 24.5794 117.124 24.2547 116.177 23.6865C116.15 23.6865 116.123 23.7136 116.096 23.7136Z" fill="#AFAEB1"/>
<path d="M127.298 22.4691L127.352 22.1715L127.163 22.0632C126.649 22.7397 126.378 23.362 126.378 23.9032C126.378 24.4714 126.649 24.9043 127.19 25.229C127.758 28.0431 128.056 29.883 128.056 30.7218H126.135H125.891C125.215 30.7218 124.755 30.4783 124.511 30.0183C124.268 29.5583 124.078 28.6383 123.97 27.3125C123.862 25.9596 123.727 24.3632 123.537 22.5232H123.348L122.509 23.9573C122.699 25.7702 122.834 27.2043 122.888 28.2325C122.942 29.0171 123.023 29.6665 123.104 30.1536C122.861 30.5594 122.211 30.7489 121.183 30.7489C121.102 30.7489 121.021 30.7489 120.94 30.7489H120.886H120.642C119.912 30.7489 119.343 30.5594 118.91 30.1536C119.208 29.6395 119.37 29.1524 119.37 28.7466V28.6113C119.37 28.5301 119.343 28.3948 119.316 28.2325C118.91 27.556 118.288 27.2313 117.422 27.2313H117.07C116.475 27.2313 115.88 27.3666 115.258 27.6642C115.014 28.1783 114.798 28.7195 114.608 29.2607L114.689 29.3418C114.906 29.2877 115.122 29.2607 115.285 29.2607C115.907 29.2607 116.502 29.5854 117.07 30.2618C116.15 30.5865 115.041 30.7489 113.688 30.7489H113.201H112.931H109.251C108.899 30.7218 108.439 30.4783 107.898 29.9912C107.384 29.4771 107.005 28.4219 106.734 26.8525C106.653 25.8784 106.572 25.3914 106.518 25.3914L106.464 25.4184C106.058 25.9596 105.868 26.4466 105.868 26.8525V27.1231L105.895 27.1772C105.787 27.2313 105.76 27.2854 105.76 27.3125C104.001 28.0701 103.054 28.5842 102.865 28.8819C102.297 29.5854 101.918 30.4242 101.756 31.3983V31.5065C101.756 31.8853 102.134 32.0747 102.865 32.0747C104.272 32.0747 105.327 31.8312 106.004 31.3171C106.274 31.0194 106.437 30.6947 106.491 30.37H106.518C107.059 31.8041 107.952 32.5076 109.197 32.5076H112.904H113.174H113.201C115.176 32.4265 116.719 32.0206 117.828 31.29C117.855 31.29 117.909 31.3712 118.017 31.4794C118.423 32.1559 119.235 32.5076 120.48 32.5076H120.588H120.723H120.913H120.94C121.319 32.4806 121.643 32.4535 121.914 32.3453C122.401 32.1829 122.888 31.75 123.429 31.0194C123.618 31.4524 123.916 31.8041 124.295 32.0206C124.701 32.3182 125.242 32.4806 125.864 32.5076H126.027H126.162H128.354C128.868 31.4794 129.111 30.4783 129.111 29.5042C129.111 28.6654 128.976 27.5831 128.732 26.2302L128.922 26.3113L129.003 26.2843L129.761 24.742V24.6067L128.76 23.9573C127.812 23.4432 127.298 22.9291 127.298 22.4691ZM103.839 30.2889H103.379C103.136 30.2889 102.919 30.2618 102.676 30.2077V30.1806C102.703 30.1265 102.865 30.0183 103.163 29.8559C104.299 29.423 105.057 29.0713 105.435 28.8007C105.652 28.5842 105.868 28.3407 106.004 28.0431C106.004 28.2866 106.112 28.8277 106.301 29.6936C105.625 30.0995 104.813 30.2889 103.839 30.2889Z" fill="#AFAEB1"/>
<path d="M141.504 36.1062C141.287 36.3226 141.098 36.6203 140.963 36.9179C140.963 36.945 140.963 36.945 140.936 36.945C139.989 36.3767 139.502 36.1062 139.447 36.1062L139.393 36.1332C138.96 36.7014 138.744 37.1344 138.744 37.4861V37.5673C139.718 38.1626 140.232 38.4602 140.313 38.4602C140.557 38.2437 140.719 37.9732 140.854 37.6214H140.881C141.856 38.1896 142.37 38.4602 142.397 38.4602H142.451C142.776 38.0543 143.019 37.6485 143.1 37.2155V36.972C142.126 36.3767 141.639 36.0791 141.585 36.0791H141.504V36.1062Z" fill="#AFAEB1"/>
<path d="M151.001 30.3971C150.297 30.1265 149.837 29.8289 149.594 29.5042C149.35 29.2066 149.134 28.1242 148.999 26.2843L149.432 26.5008H149.54L150.297 25.0126V24.8502L148.782 23.8491C148.295 23.6326 148.052 23.2809 148.052 22.8479C148.052 22.7938 148.052 22.7126 148.052 22.6585L147.916 22.5503L147.808 22.7126C147.348 23.3891 147.105 23.9844 147.105 24.4444V24.6338C147.105 24.9585 147.402 25.2561 147.997 25.5808C148.268 28.3948 148.43 29.9371 148.457 30.1807C147.808 30.5595 147.05 30.7218 146.212 30.7218C146.131 30.7218 146.049 30.7218 145.968 30.7218H143.506L142.667 32.3723L142.748 32.4806C143.398 32.4806 143.939 32.5618 144.399 32.697C144.859 32.8594 145.183 33.2382 145.427 33.8876H140.015C139.041 33.8876 138.148 33.7794 137.283 33.5358C135.767 33.0488 134.983 32.1018 134.983 30.7489V30.37L134.793 30.2889C134.523 30.7759 134.36 31.3441 134.306 31.9935V32.2912C134.306 34.5099 136.227 35.6464 140.042 35.6464H144.859C145.454 35.1052 145.914 34.564 146.212 33.9958C146.293 33.8335 146.374 33.6711 146.428 33.5358C146.482 33.4005 146.509 33.2382 146.509 33.0488C146.509 32.8594 146.428 32.67 146.266 32.4535H146.834L146.969 32.3182C147.023 32.2912 147.078 32.2912 147.105 32.2912C147.781 31.9665 148.295 31.8041 148.674 31.7771H148.728C149.134 31.7771 149.892 32.0747 151.001 32.697H151.136C151.461 31.9935 151.677 31.4794 151.732 31.1818C151.759 31.1277 151.759 31.0465 151.759 30.9653C151.759 30.9112 151.759 30.8571 151.732 30.83C151.569 30.7489 151.326 30.5865 151.001 30.3971Z" fill="#AFAEB1"/>
<path d="M165.017 22.4691L165.071 22.1715L164.882 22.0632C164.368 22.7397 164.097 23.362 164.097 23.9032C164.097 24.4714 164.368 24.9043 164.909 25.229C165.477 28.0431 165.775 29.883 165.775 30.7218H163.8H163.529C162.798 30.7218 162.23 30.5324 161.797 30.1265C162.095 29.6124 162.257 29.1254 162.257 28.7195V28.5842C162.257 28.503 162.23 28.3678 162.203 28.2054C161.797 27.529 161.175 27.2043 160.309 27.2043H159.957C159.362 27.2043 158.767 27.3395 158.144 27.6372C157.901 28.1513 157.684 28.6925 157.495 29.2336L157.576 29.3148C157.793 29.2607 158.009 29.2336 158.172 29.2336C158.794 29.2336 159.389 29.5583 159.957 30.2347C159.037 30.5594 157.901 30.7218 156.575 30.7218H156.169H155.926C155.249 30.7218 154.789 30.4783 154.546 30.0183C154.302 29.5583 154.113 28.6383 154.005 27.3125C153.896 25.9596 153.761 24.3632 153.572 22.5232H153.355L152.543 23.9573C152.733 25.7702 152.841 27.2043 152.922 28.2325C153.003 29.2877 153.112 30.0453 153.22 30.5594C153.409 31.2359 153.761 31.6959 154.248 32.0206C154.654 32.3182 155.168 32.4806 155.763 32.5076L155.79 32.5347H155.98H156.088H156.142C158.09 32.4535 159.606 32.0476 160.715 31.3171C160.742 31.3171 160.796 31.3712 160.904 31.5065C161.31 32.1829 162.122 32.5347 163.367 32.5347H163.529H163.773H166.045C166.559 31.5065 166.803 30.5053 166.803 29.5312C166.803 28.6924 166.668 27.6101 166.424 26.2572L166.614 26.3384L166.695 26.3113L167.452 24.769V24.6337L166.451 23.9844C165.504 23.4432 165.017 22.9291 165.017 22.4691Z" fill="#AFAEB1"/>
<path d="M170.077 22.5771H169.806L168.886 24.4442C169.509 28.3676 169.833 31.0734 169.833 32.5616H170.104C170.537 31.6957 170.807 30.8569 170.943 30.0181C170.943 28.8275 170.645 26.3653 170.077 22.5771Z" fill="#AFAEB1"/>
<path d="M199.922 47.6059C199.922 47.6059 203.196 51.1776 203.304 51.3129C204.846 49.2024 206.443 47.9848 206.443 47.9848L203.683 45.0895L206.497 42.4379C206.497 42.4379 203.574 38.7039 203.331 37.8651C203.331 37.838 203.304 37.8651 203.304 37.8651C203.196 39.9756 200.111 42.1673 200.111 42.1673L202.682 45.0895L199.922 47.6059Z" fill="#AFAEB1"/>
<path d="M182.848 33.9416C182.848 33.9416 181.387 38.5685 181.333 38.7309C183.931 39.0285 185.798 39.7861 185.798 39.7861L186.907 35.9439L190.614 37.0533C190.614 37.0533 192.4 32.6699 192.995 32.0205V31.9934C191.101 32.9405 187.665 31.3711 187.665 31.3711L186.393 35.051L182.848 33.9416Z" fill="#AFAEB1"/>
<path d="M186.149 12.3494C186.149 12.3494 181.414 13.4046 181.252 13.4317C182.307 15.8398 182.578 17.8151 182.578 17.8151L186.474 16.8681L187.367 20.6291C187.367 20.6291 192.075 19.9797 192.914 20.1691C192.941 20.1691 192.941 20.1691 192.914 20.1421C191.155 18.9786 190.776 15.2175 190.776 15.2175L186.961 15.9751L186.149 12.3494Z" fill="#AFAEB1"/>
<path d="M206.497 4.39421C206.497 4.39421 203.223 0.822546 203.114 0.687256C201.572 2.79778 199.976 4.0154 199.976 4.0154L202.736 6.9106L199.922 9.56229C199.922 9.56229 202.844 13.2963 203.087 14.1351C203.087 14.1621 203.114 14.1351 203.114 14.1351C203.223 12.0246 206.307 9.83287 206.307 9.83287L203.737 6.9106L206.497 4.39421Z" fill="#AFAEB1"/>
<path d="M223.571 18.0586C223.571 18.0586 225.032 13.4317 225.086 13.2694C222.488 12.9717 220.621 12.2141 220.621 12.2141L219.512 16.0564L215.805 14.947C215.805 14.947 214.019 19.3304 213.424 19.9798V20.0068C215.318 19.0598 218.754 20.6292 218.754 20.6292L220.026 16.9493L223.571 18.0586Z" fill="#AFAEB1"/>
<path d="M220.297 39.6509C220.297 39.6509 225.032 38.5956 225.194 38.5685C224.139 36.1604 223.868 34.1851 223.868 34.1851L219.972 35.1322L219.079 31.3711C219.079 31.3711 214.371 32.0205 213.532 31.8311C213.505 31.8311 213.505 31.8311 213.532 31.8581C215.291 33.0216 215.67 36.7827 215.67 36.7827L219.485 36.0251L220.297 39.6509Z" fill="#AFAEB1"/>
<path d="M195.917 2.71671C196.107 2.77083 196.269 3.09552 196.404 3.66374C196.594 4.2049 196.594 4.5296 196.431 4.61077C196.431 4.61077 196.215 4.50254 195.782 4.31313C195.349 4.12373 194.997 4.09667 194.7 4.23196C194.104 4.5296 194.267 5.85544 195.16 8.18243C196.053 10.5094 196.377 11.7 196.161 11.7811C195.917 11.9164 195.376 11.5647 194.591 10.78C193.617 9.7518 192.562 9.10241 191.399 8.85888C191.399 8.96712 191.372 9.07534 191.344 9.21063C191.236 9.31887 190.83 9.37298 190.1 9.34592C189.369 9.31887 188.909 9.21064 188.747 8.99417C188.043 7.93891 187.935 7.26246 188.503 6.96482C189.505 6.39661 191.128 6.88365 193.401 8.45301C193.807 8.83183 194.321 9.21064 194.916 9.64356C194.483 8.53419 194.131 7.39775 193.78 6.26131C193.103 4.17785 193.157 2.96024 193.888 2.60848C194.402 2.31084 195.078 2.36496 195.917 2.71671Z" fill="#AFAEB1"/>
<path d="M179.385 21.3597C179.52 21.2244 179.872 21.2244 180.44 21.4138C181.008 21.5221 181.279 21.6844 181.279 21.8738C181.279 21.8738 181.089 22.0091 180.711 22.2797C180.332 22.5503 180.115 22.8479 180.115 23.1726C180.088 23.8491 181.306 24.3632 183.768 24.742C186.23 25.1208 187.421 25.4455 187.367 25.689C187.367 25.9866 186.799 26.2572 185.716 26.5549C184.336 26.8795 183.254 27.4748 182.469 28.3407C182.551 28.3948 182.659 28.476 182.74 28.5571C182.794 28.6924 182.605 29.0983 182.226 29.7206C181.847 30.343 181.522 30.6677 181.225 30.7218C179.953 30.803 179.331 30.5594 179.358 29.9371C179.358 28.8007 180.602 27.6372 183.119 26.4466C183.633 26.2843 184.255 26.0408 184.905 25.7431C183.741 25.5537 182.578 25.3102 181.387 25.0396C179.249 24.5796 178.194 23.9302 178.275 23.1185C178.275 22.4691 178.654 21.9009 179.385 21.3597Z" fill="#AFAEB1"/>
<path d="M187.448 44.3859C187.394 44.1965 187.583 43.8989 188.016 43.493C188.395 43.0601 188.666 42.8977 188.828 43.006C188.828 43.006 188.855 43.2495 188.882 43.7095C188.909 44.1695 189.071 44.4942 189.369 44.6836C189.937 45.0353 190.993 44.2506 192.562 42.3025C194.131 40.3543 194.997 39.4884 195.187 39.6508C195.43 39.8131 195.403 40.4355 195.105 41.5178C194.7 42.8707 194.672 44.1154 195.024 45.2247C195.105 45.1706 195.214 45.1165 195.349 45.0894C195.484 45.1165 195.755 45.4683 196.107 46.1176C196.458 46.767 196.594 47.227 196.458 47.4705C195.89 48.634 195.349 49.0399 194.835 48.6882C193.834 48.1199 193.455 46.4423 193.698 43.6824C193.807 43.1413 193.915 42.4919 193.969 41.7613C193.211 42.6813 192.427 43.5742 191.588 44.44C190.1 46.0635 189.044 46.6318 188.368 46.1718C187.854 45.9282 187.556 45.3059 187.448 44.3859Z" fill="#AFAEB1"/>
<path d="M211.178 48.7964C210.988 48.7423 210.826 48.4176 210.691 47.8493C210.501 47.3082 210.501 46.9835 210.664 46.9023C210.664 46.9023 210.88 47.0105 211.313 47.1999C211.746 47.3894 212.098 47.4164 212.395 47.2811C212.991 46.9835 212.828 45.6576 211.935 43.3307C211.043 41.0037 210.718 39.8131 210.934 39.7319C211.178 39.5967 211.719 39.9484 212.504 40.7331C213.478 41.7613 214.533 42.4107 215.697 42.6542C215.697 42.546 215.724 42.4377 215.751 42.3025C215.859 42.1942 216.265 42.1401 216.995 42.1672C217.726 42.1942 218.186 42.3025 218.348 42.5189C219.052 43.5742 219.16 44.2506 218.592 44.5483C217.591 45.1165 215.967 44.6294 213.694 43.033C213.288 42.6542 212.774 42.2754 212.179 41.8425C212.612 42.9518 212.964 44.0883 213.315 45.2247C213.992 47.3082 213.938 48.5258 213.207 48.8776C212.693 49.2022 211.99 49.1481 211.178 48.7964Z" fill="#AFAEB1"/>
<path d="M227.332 30.6406C227.196 30.7759 226.844 30.7759 226.276 30.5865C225.708 30.4783 225.437 30.3159 225.437 30.1265C225.437 30.1265 225.627 29.9912 226.006 29.7206C226.385 29.4501 226.601 29.1524 226.601 28.8277C226.628 28.1513 225.41 27.6372 222.948 27.2584C220.486 26.8796 219.295 26.5549 219.349 26.3113C219.349 26.0137 219.918 25.7431 221 25.4455C222.38 25.1208 223.462 24.5255 224.247 23.6596C224.166 23.6055 224.058 23.5244 223.976 23.4432C223.922 23.3079 224.112 22.902 224.49 22.2797C224.869 21.6574 225.194 21.3056 225.492 21.2785C226.763 21.1974 227.386 21.4409 227.359 22.0632C227.359 23.1997 226.114 24.3632 223.598 25.5537C223.083 25.7161 222.461 25.9596 221.812 26.2572C222.975 26.4466 224.139 26.6901 225.329 26.9607C227.467 27.4207 228.522 28.0701 228.441 28.8818C228.441 29.5312 228.062 30.0994 227.332 30.6406Z" fill="#AFAEB1"/>
<path d="M219.593 7.69546C219.647 7.88487 219.458 8.18251 219.025 8.58838C218.646 9.02131 218.376 9.18365 218.213 9.07542C218.213 9.07542 218.186 8.8319 218.159 8.37191C218.132 7.91192 217.97 7.58723 217.672 7.39783C217.104 7.04607 216.049 7.83075 214.479 9.77893C212.91 11.7271 212.044 12.593 211.855 12.4306C211.611 12.2683 211.638 11.6459 211.936 10.5636C212.342 9.21071 212.369 7.96605 212.017 6.85667C211.936 6.91078 211.828 6.9649 211.692 6.99196C211.557 6.9649 211.286 6.61314 210.935 5.96375C210.583 5.31436 210.448 4.88143 210.583 4.61085C211.151 3.44735 211.692 3.04148 212.206 3.39324C213.207 3.96146 213.586 5.63905 213.37 8.39897C213.262 8.94013 213.153 9.58952 213.099 10.3201C213.857 9.40012 214.642 8.50721 215.48 7.64135C216.969 6.01787 218.024 5.44965 218.7 5.90964C219.187 6.18022 219.485 6.80255 219.593 7.69546Z" fill="#AFAEB1"/>
<path d="M213.153 29.2065C212.937 29.0712 212.531 28.8818 211.963 28.6924C211.151 28.4219 210.014 28.2325 208.689 28.4489C208.229 28.5301 207.769 28.6383 207.254 28.8277C207.2 28.8548 207.173 28.8548 207.119 28.8818C206.876 28.963 206.605 29.0983 206.362 29.2065C206.145 29.3148 205.929 29.423 205.712 29.5583C205.225 29.8559 204.738 30.1806 204.278 30.5324C203.818 27.7995 204.062 23.6867 204.062 23.6867C204.143 23.4432 204.332 23.4161 204.413 23.1455C204.495 22.9291 204.359 22.7126 204.359 22.7126C205.279 23.0644 205.82 23.9032 205.847 25.4455C206.524 24.2549 206.47 23.0914 205.252 22.0903C206.226 22.3338 207.065 22.8479 207.227 24.9043C207.931 22.9832 207.065 21.3327 205.442 20.9809C206.876 21.0891 207.877 21.9279 208.283 23.7138C208.607 22.1715 208.12 20.3045 205.604 19.8986C206.632 19.7092 207.552 19.8715 208.283 20.6562C207.714 19.601 206.93 18.8163 205.333 19.0327C205.496 18.708 206.037 18.4916 206.984 18.3563C206.145 18.0857 205.36 18.0045 204.63 18.5998C204.711 18.1939 205.036 17.8422 205.496 17.5175C204.873 17.5716 204.251 17.7881 203.899 18.4375C203.872 17.8963 203.818 17.4634 203.575 17.1387C203.466 17.301 203.385 17.4904 203.331 17.7069C203.277 17.9233 203.277 18.1669 203.25 18.4375C202.898 17.7881 202.276 17.5716 201.653 17.5175C202.113 17.8151 202.438 18.1669 202.519 18.5998C201.789 18.0045 200.977 18.0857 200.165 18.3563C201.112 18.4916 201.653 18.708 201.816 19.0327C200.219 18.8163 199.435 19.601 198.867 20.6562C199.597 19.8715 200.517 19.7092 201.545 19.8986C199.002 20.3045 198.542 22.1715 198.867 23.7138C199.272 21.9279 200.246 21.0891 201.708 20.9809C200.084 21.3597 199.218 22.9832 199.922 24.9043C200.084 22.8208 200.923 22.3338 201.897 22.0903C200.679 23.0644 200.625 24.2549 201.302 25.4455C201.329 23.9032 201.897 23.0373 202.79 22.7126C202.79 22.7126 202.655 22.9291 202.736 23.1455C202.817 23.4161 203.006 23.4432 203.088 23.6867C203.088 23.6867 203.304 27.8266 202.871 30.5324C201.951 29.8289 201.004 29.2065 200.057 28.8548C199.949 28.8007 199.814 28.7736 199.705 28.7466C198.731 28.4219 197.811 28.3407 197.027 28.3677C195.755 28.4219 194.808 28.8007 194.267 29.0712C194.158 29.1254 194.077 29.1795 193.996 29.2065C193.969 29.2336 193.996 29.2607 194.023 29.2607C194.104 29.2336 194.185 29.2065 194.267 29.1795C195.241 28.9089 196.161 28.8277 197.027 28.9089C197.974 28.9901 198.867 29.2607 199.705 29.6395C200.869 30.1536 201.924 30.9112 202.871 31.6959C201.518 32.8594 200.382 34.0229 199.705 34.4017C199.678 34.4287 199.624 34.4287 199.597 34.4558C199.435 34.2393 199.137 34.104 198.839 34.1582C198.569 34.2123 198.352 34.4287 198.271 34.6993C198.217 34.9428 198.271 35.2134 198.407 35.3487C198.785 35.7275 199.191 35.7275 199.678 35.5381C200.598 35.1593 201.762 33.9146 203.196 32.6159C203.304 32.5076 203.439 32.3994 203.548 32.2912C203.683 32.3994 203.791 32.5076 203.899 32.6159C204.549 33.2111 205.144 33.7793 205.685 34.2664C205.902 34.4558 206.118 34.6452 206.335 34.8346C206.659 35.1052 206.957 35.2946 207.227 35.4569C207.769 35.7546 208.256 35.7816 208.662 35.4299C208.689 35.4028 208.716 35.4028 208.716 35.3758C208.797 35.2946 208.905 34.9699 208.851 34.7264C208.824 34.5911 208.743 34.4558 208.634 34.3746C208.526 34.2935 208.418 34.2123 208.283 34.1852C207.958 34.104 207.687 34.2393 207.525 34.4829C207.444 34.4287 207.336 34.3746 207.227 34.2934C206.984 34.104 206.659 33.8605 206.335 33.5629C206.145 33.3735 205.929 33.1841 205.685 32.9947C205.252 32.5888 204.765 32.1559 204.251 31.6959C204.711 31.3171 205.171 30.9383 205.685 30.6136C205.902 30.4783 206.118 30.343 206.335 30.2077C206.632 30.0453 206.93 29.883 207.227 29.7206C207.687 29.5042 208.147 29.3148 208.662 29.1795C209.69 28.8818 210.772 28.8007 211.936 28.963C212.314 29.0171 212.72 29.1254 213.099 29.2336C213.18 29.2607 213.18 29.2065 213.153 29.2065Z" fill="#AFAEB1"/>
</g>
<defs>
<clipPath id="clip0_245_48458">
<rect width="269.812" height="50.6255" fill="white" transform="translate(0.633789 0.687256)"/>
</clipPath>
</defs>
</svg>
