<svg width="200" height="50" viewBox="0 0 200 50" fill="none" xmlns="http://www.w3.org/2000/svg">
<g clip-path="url(#clip0_245_48586)">
<path fill-rule="evenodd" clip-rule="evenodd" d="M138.455 36.7823C138.557 36.7797 138.687 36.793 138.738 36.8064C138.789 36.8224 138.859 36.8518 138.953 36.9134L138.867 37.0684C138.821 37.1513 138.767 37.2396 138.749 37.261C138.719 37.2931 138.689 37.2957 138.611 37.277C138.555 37.2663 138.466 37.261 138.415 37.2717C138.364 37.2797 138.299 37.3064 138.275 37.3332C138.248 37.3599 138.218 37.4187 138.208 37.4615C138.194 37.5043 138.189 37.5738 138.199 37.6888H139.061V37.9295C139.061 38.1193 139.053 38.1728 139.02 38.1835C138.999 38.1915 138.66 38.1969 138.267 38.1969C137.874 38.1969 137.535 38.1915 137.513 38.1835C137.481 38.1728 137.473 38.1193 137.473 37.6888H137.548C137.618 37.6888 137.621 37.6835 137.621 37.5337C137.621 37.4241 137.642 37.3385 137.693 37.2342C137.731 37.1513 137.815 37.0417 137.879 36.9855C137.944 36.9294 138.057 36.8625 138.132 36.8331C138.216 36.801 138.337 36.7823 138.455 36.7823ZM61.6534 37.4214L62.5281 37.4348L62.5416 41.9939H58.6524L58.6308 42.2132C58.6201 42.3362 58.5958 42.4966 58.577 42.5688C58.5555 42.6437 58.4989 42.7801 58.4478 42.8763C58.3967 42.9699 58.3025 43.1063 58.2352 43.1758C58.1679 43.2453 58.0414 43.3469 57.9526 43.3977C57.8638 43.4486 57.713 43.5101 57.6161 43.5314C57.4977 43.5609 57.3443 43.5716 56.8491 43.5582L56.841 43.3443C56.8356 43.2266 56.8383 43.0555 56.8625 42.7961L57.0563 42.8148C57.207 42.8282 57.2824 42.8228 57.3739 42.7881C57.452 42.7613 57.5246 42.7105 57.5731 42.6437C57.6188 42.5875 57.6727 42.4993 57.6942 42.4485C57.7319 42.3683 57.7399 42.1062 57.7642 38.745H58.6254L58.6389 41.2185H61.6534V37.4214ZM155.075 37.4214V41.9939H154.644C154.284 41.9939 154.211 41.9886 154.2 41.9538C154.192 41.9324 154.187 40.9216 154.187 39.7077C154.187 38.4963 154.192 37.4856 154.2 37.4615C154.214 37.4294 154.289 37.4214 155.075 37.4214ZM48.64 38.745L48.6508 39.6809L48.9549 39.3734C49.2025 39.1194 49.2967 39.0445 49.4744 38.9536C49.5928 38.8921 49.7731 38.8226 49.8781 38.7985C49.9965 38.7691 50.1795 38.753 50.376 38.7504C50.5886 38.7504 50.7394 38.7637 50.8605 38.7958C50.9547 38.8226 51.1054 38.8814 51.1915 38.9295C51.2804 38.975 51.4069 39.0686 51.4768 39.1328C51.5468 39.1996 51.6464 39.3199 51.7029 39.4001C51.7568 39.483 51.8294 39.6328 51.8671 39.7344C51.9021 39.8387 51.9452 40.0018 51.9613 40.0954C51.9775 40.1916 51.9882 40.6596 51.9909 41.9939H48.6535V42.1356C48.6535 42.2132 48.6346 42.3469 48.6104 42.4351C48.5862 42.5234 48.535 42.6571 48.4947 42.7293C48.457 42.8041 48.3386 42.9485 48.2363 43.0528C48.1152 43.1705 47.9779 43.2747 47.8595 43.3362C47.7545 43.3924 47.5742 43.4619 47.4557 43.4967C47.2673 43.5502 47.1785 43.5582 46.7963 43.5582C46.4518 43.5582 46.3038 43.5475 46.1504 43.5101C46.0373 43.4833 45.8516 43.4138 45.7332 43.3576C45.6148 43.3015 45.4533 43.2025 45.3779 43.141C45.3026 43.0769 45.1949 42.9699 45.1384 42.9031C45.0845 42.8389 45.0119 42.7292 44.9769 42.6624C44.9446 42.5982 44.8961 42.4699 44.8746 42.3816C44.8504 42.2907 44.8315 42.1142 44.8315 41.9672C44.8315 41.8281 44.8477 41.558 44.8719 41.3655C44.8934 41.1757 44.9419 40.8147 44.9796 40.5633C45.0173 40.3146 45.0496 40.1061 45.0522 40.1034C45.0549 40.0981 45.2487 40.1221 45.4829 40.1569C45.717 40.189 45.9108 40.2291 45.9189 40.2425C45.9243 40.2585 45.9001 40.451 45.8651 40.6703C45.8328 40.8922 45.7843 41.2372 45.7601 41.4404C45.7386 41.6436 45.7197 41.8896 45.7197 41.9886C45.7197 42.1196 45.7359 42.2052 45.7816 42.3014C45.8166 42.3763 45.8866 42.4779 45.9351 42.5287C45.9862 42.5795 46.1019 42.6544 46.1907 42.6945C46.2903 42.7399 46.4384 42.7801 46.581 42.7988C46.7479 42.8228 46.8609 42.8228 47.0036 42.8015C47.1112 42.7827 47.262 42.7426 47.3373 42.7105C47.4127 42.6784 47.523 42.5982 47.5796 42.5367C47.6442 42.4672 47.698 42.3683 47.7249 42.2827C47.7572 42.1624 47.7626 41.8896 47.7599 40.4564C47.7572 39.5285 47.7653 38.7611 47.7787 38.7504C47.7895 38.7397 47.9887 38.7343 48.64 38.745ZM49.6924 39.6756C49.5336 39.7504 49.3829 39.8494 49.2537 39.9617C49.1433 40.0579 48.963 40.2398 48.8526 40.3628L48.6508 40.5901L48.6535 41.2185H51.1027C51.0866 40.2211 51.0785 40.1462 51.0247 40.0018C50.9924 39.9136 50.9358 39.8039 50.8982 39.7558C50.8632 39.7077 50.769 39.6381 50.6909 39.6034C50.6129 39.5659 50.4783 39.5312 50.3895 39.5258C50.3007 39.5178 50.1607 39.5231 50.08 39.5365C49.9965 39.5526 49.8216 39.6141 49.6924 39.6756ZM105.589 37.3251C105.619 37.3439 105.759 37.4214 105.902 37.4963C106.041 37.5738 106.179 37.6487 106.206 37.6701C106.251 37.7022 106.241 37.7289 106.02 38.0765C105.893 38.2824 105.735 38.5472 105.67 38.6648C105.605 38.7825 105.552 38.8894 105.552 38.9001C105.552 38.9108 105.81 38.9188 106.13 38.9188C106.556 38.9188 106.763 38.9322 106.916 38.9643C107.032 38.9857 107.199 39.0418 107.288 39.0873C107.379 39.1328 107.516 39.2397 107.611 39.3306C107.702 39.4269 107.807 39.5686 107.858 39.6702C107.904 39.7638 107.969 39.9376 107.998 40.0553C108.039 40.2104 108.06 40.4029 108.095 41.2211L109.831 41.2185L109.845 37.4348H110.733L110.746 41.2185H117.287L117.265 41.1195C117.254 41.0634 117.246 40.7719 117.246 40.4697C117.249 40.0526 117.262 39.836 117.305 39.5606C117.338 39.3627 117.375 39.1381 117.392 39.0606C117.408 38.975 117.437 38.9108 117.467 38.8948C117.494 38.8814 117.642 38.844 117.798 38.8092C118.035 38.7584 118.161 38.7504 118.619 38.7477C119.103 38.7477 119.176 38.753 119.372 38.8092C119.491 38.8413 119.658 38.9081 119.747 38.9563C119.833 39.0017 119.956 39.1007 120.021 39.1729C120.086 39.2477 120.166 39.3627 120.204 39.4269C120.242 39.4937 120.296 39.6435 120.328 39.7611C120.376 39.9403 120.39 40.082 120.422 41.2211L121.781 41.2185V39.36C121.781 38.3386 121.787 37.4856 121.795 37.4615C121.806 37.4294 121.878 37.4214 122.67 37.4214V41.9939L109.244 41.9886C96.6374 41.9805 95.8111 41.9779 95.6738 41.9351C95.5904 41.911 95.4531 41.8549 95.3643 41.8094C95.2755 41.7666 95.1409 41.673 95.0683 41.6008C94.9929 41.5286 94.8933 41.3923 94.8476 41.296C94.8018 41.2024 94.7426 41.0366 94.7184 40.9243C94.6888 40.796 94.6726 40.6088 94.6726 40.3895C94.6726 40.1863 94.6888 39.9804 94.7157 39.8547C94.7372 39.7451 94.7964 39.5766 94.8422 39.4804C94.896 39.3681 94.9821 39.2504 95.0898 39.1461C95.1813 39.0552 95.3213 38.9509 95.4047 38.9135C95.4854 38.8761 95.6308 38.8226 95.7277 38.7985C95.8703 38.7611 96.0695 38.7504 97.7463 38.7317V41.2185H100.465L100.478 38.745H101.339L101.353 41.2185H107.167V40.812C107.167 40.5874 107.153 40.3307 107.137 40.2425C107.118 40.1542 107.078 40.0259 107.04 39.9563C106.992 39.8574 106.949 39.8173 106.849 39.7692C106.728 39.7103 106.687 39.7077 105.108 39.6943L105.013 39.5552C104.959 39.4804 104.841 39.3119 104.75 39.1836C104.658 39.0525 104.58 38.9269 104.58 38.9001C104.58 38.8734 104.599 38.8279 104.618 38.7985C104.639 38.7691 104.76 38.5471 104.89 38.3038C105.021 38.0632 105.199 37.7557 105.288 37.622C105.377 37.4909 105.468 37.3626 105.492 37.3358C105.527 37.2957 105.541 37.2931 105.589 37.3251ZM95.8623 39.582C95.8246 39.598 95.7654 39.6355 95.7331 39.6675C95.7008 39.697 95.6523 39.7611 95.6254 39.8093C95.5904 39.8788 95.577 39.9831 95.5689 40.2959C95.5635 40.5232 95.5716 40.7559 95.5877 40.8307C95.6039 40.9056 95.6416 40.9992 95.6712 41.0393C95.7008 41.0794 95.7654 41.1329 95.8138 41.157C95.8838 41.1944 95.9968 41.2051 96.379 41.2104L96.8581 41.2185V39.5071C96.3467 39.5125 96.1368 39.5231 96.0641 39.5365C95.9888 39.5472 95.8972 39.5686 95.8623 39.582ZM118.194 39.598C118.185 39.6301 118.161 39.7986 118.145 39.9751C118.124 40.1756 118.118 40.451 118.129 40.697C118.137 40.919 118.15 41.1275 118.159 41.1596L118.175 41.2185H119.52C119.504 40.1916 119.491 39.9751 119.467 39.9082C119.445 39.8574 119.407 39.7825 119.381 39.7424C119.354 39.7023 119.262 39.6355 119.176 39.5953C119.033 39.5285 118.99 39.5232 118.673 39.5178C118.479 39.5151 118.296 39.5178 118.266 39.5258C118.234 39.5312 118.202 39.5659 118.194 39.598ZM50.3895 37.4348L50.3949 37.7958C50.4002 38.0632 50.3922 38.1621 50.3679 38.1781C50.3491 38.1888 50.1688 38.1969 49.9642 38.1969C49.7597 38.1969 49.5766 38.1915 49.5551 38.1835C49.5201 38.1728 49.512 38.1059 49.5094 37.8145C49.5067 37.6193 49.5147 37.4508 49.5282 37.4401C49.539 37.4294 49.7381 37.4241 50.3895 37.4348ZM53.4443 37.4214C53.8023 37.4214 53.875 37.4294 53.8884 37.4615C53.8938 37.4856 53.9019 38.3386 53.9019 41.2185H55.6244L55.6379 38.745H56.4992L56.5126 41.9939H54.7632C53.2317 41.9939 53.011 41.9912 53.0002 41.9538C52.9921 41.9324 52.9868 40.9216 52.9868 39.7077C52.9868 38.4963 52.9921 37.4856 53.0002 37.4615C53.0137 37.4294 53.089 37.4214 53.4443 37.4214ZM63.995 37.4214C64.3529 37.4214 64.4256 37.4294 64.4391 37.4615C64.4445 37.4856 64.4525 38.4963 64.4525 39.7077C64.4525 40.9216 64.4445 41.9324 64.4391 41.9538C64.4256 41.9886 64.3529 41.9939 63.995 41.9939C63.6343 41.9939 63.5616 41.9886 63.5509 41.9538C63.5428 41.9324 63.5374 40.9216 63.5374 39.7077C63.5374 38.4963 63.5428 37.4856 63.5509 37.4615C63.5643 37.4294 63.6397 37.4214 63.995 37.4214ZM74.1957 37.4214L75.0705 37.4348L75.0839 38.1701H74.1957V37.4214ZM91.0418 37.4241H91.4724C91.8304 37.4241 91.9058 37.4294 91.9165 37.4642C91.9246 37.4856 91.93 38.4963 91.93 39.7103C91.93 40.9243 91.9246 41.9351 91.9165 41.9565C91.9058 41.9912 91.1279 41.9966 85.134 41.9966C79.14 41.9966 78.3622 41.9912 78.3514 41.9565C78.3433 41.9351 78.3379 41.7773 78.3379 41.6089C78.3379 41.4404 78.3433 41.2826 78.3514 41.2612C78.3622 41.2265 78.486 41.2211 80.1143 41.2211V40.9056C80.1143 40.7345 80.1009 40.4885 80.0874 40.3574C80.0713 40.2291 80.0417 40.0686 80.0174 39.9964C79.9932 39.9269 79.9448 39.8307 79.9098 39.7825C79.8748 39.7371 79.7994 39.6729 79.7456 39.6462C79.6891 39.6194 79.5895 39.582 79.5222 39.5633C79.4549 39.5445 79.2207 39.5232 78.5936 39.4964V38.7477L79.0243 38.7504C79.2611 38.7504 79.541 38.7664 79.6433 38.7851C79.7483 38.8039 79.9232 38.8547 80.0336 38.8974C80.1439 38.9402 80.3054 39.0285 80.3915 39.0953C80.475 39.1622 80.6015 39.2905 80.6688 39.3814C80.7361 39.475 80.8141 39.6167 80.8437 39.697C80.8733 39.7772 80.9164 39.9109 80.9406 39.9911C80.9675 40.0874 80.9864 40.3253 81.016 41.2211H86.5066V40.451C86.5093 39.7692 86.5147 39.6462 86.5712 39.336C86.6062 39.1434 86.6439 38.967 86.6573 38.9402C86.6708 38.9162 86.7273 38.8814 86.7838 38.868C86.8377 38.852 86.9857 38.8199 87.1122 38.7958C87.2818 38.7611 87.4756 38.7477 87.8658 38.7477C88.283 38.7477 88.4257 38.7584 88.5656 38.7958C88.6625 38.8226 88.8132 38.8761 88.9021 38.9188C88.9909 38.9589 89.1254 39.0472 89.1981 39.114C89.2735 39.1809 89.3704 39.3012 89.4188 39.3788C89.4673 39.459 89.5292 39.6141 89.5588 39.7237C89.6099 39.9002 89.6153 40.0018 89.6153 41.2211H91.0418V37.4241ZM87.4244 39.6649C87.4163 39.7344 87.3948 39.9349 87.3787 40.1114C87.3625 40.2879 87.3571 40.5393 87.3652 40.673C87.376 40.804 87.3921 40.9831 87.4029 41.0687L87.4217 41.2211H88.754C88.754 40.4644 88.7406 40.1676 88.7244 40.0713C88.711 39.9751 88.6706 39.8494 88.6383 39.7905C88.5925 39.7103 88.5387 39.6649 88.4176 39.6034C88.2669 39.5285 88.2346 39.5232 87.9062 39.5178C87.7151 39.5151 87.5294 39.5205 87.4971 39.5258C87.4513 39.5365 87.4352 39.5633 87.4244 39.6649ZM124.564 37.4375L124.578 41.9966H123.69L123.684 39.729C123.682 38.4803 123.692 37.4508 123.703 37.4401C123.717 37.4321 123.916 37.4268 124.564 37.4375ZM152.303 37.4214L153.175 37.4375L153.188 41.9966L140.91 41.9886C129.223 41.9832 128.62 41.9805 128.467 41.9351C128.378 41.9083 128.238 41.8549 128.157 41.8148C128.077 41.7773 127.939 41.6784 127.853 41.5955C127.751 41.5019 127.668 41.3923 127.619 41.288C127.576 41.1997 127.525 41.0339 127.501 40.919C127.477 40.7986 127.458 40.5794 127.458 40.3922C127.458 40.2157 127.477 39.9777 127.498 39.8627C127.52 39.7504 127.576 39.5793 127.625 39.483C127.673 39.3841 127.773 39.2451 127.859 39.1595C127.942 39.0766 128.085 38.9723 128.179 38.9269C128.271 38.8787 128.427 38.8199 128.529 38.7958C128.68 38.7584 128.86 38.7504 130.539 38.7477L130.553 41.2211H137.82L137.833 38.7477L138.708 38.7343V41.2211H140.404V38.7343L141.279 38.7477L141.292 41.2211H146.85L146.863 40.935C146.877 40.673 146.888 40.6275 146.976 40.4457C147.033 40.3307 147.13 40.189 147.205 40.1141C147.275 40.0419 147.404 39.951 147.49 39.9082C147.574 39.8654 147.714 39.8119 147.8 39.7905C147.883 39.7692 148.01 39.7504 148.083 39.7504C148.153 39.7504 148.274 39.7638 148.352 39.7799C148.427 39.7959 148.57 39.8467 148.667 39.8948C148.761 39.9403 148.898 40.0339 148.968 40.1034C149.046 40.1836 149.135 40.312 149.197 40.4377C149.288 40.6275 149.299 40.6703 149.326 41.2211H150.093V40.9056C150.093 40.7345 150.08 40.4671 150.064 40.312C150.047 40.1569 150.012 39.959 149.985 39.8708C149.959 39.7825 149.894 39.6515 149.846 39.5766C149.797 39.5044 149.708 39.4082 149.649 39.3627C149.59 39.3173 149.474 39.2558 149.393 39.2237C149.313 39.1916 149.124 39.1541 148.976 39.1381C148.766 39.114 148.54 39.1167 147.94 39.1488C147.517 39.1702 147.151 39.1969 147.127 39.2023C147.1 39.2103 147.079 39.213 147.079 39.2076C147.079 39.205 147.06 39.1007 147.038 38.975C147.017 38.8493 146.998 38.7183 146.998 38.6808C146.998 38.6167 147.014 38.6113 147.367 38.5258C147.571 38.4803 147.854 38.4188 147.994 38.3947C148.169 38.3626 148.392 38.3493 148.707 38.3493C149.092 38.3493 149.202 38.3573 149.407 38.4081C149.541 38.4429 149.746 38.5151 149.864 38.5712C149.983 38.6274 150.152 38.729 150.241 38.7958C150.33 38.8627 150.451 38.983 150.513 39.0606C150.575 39.1381 150.661 39.2691 150.707 39.3493C150.753 39.4296 150.817 39.5686 150.847 39.6569C150.879 39.7451 150.919 39.9323 150.941 40.0713C150.965 40.2157 150.981 40.5179 150.981 41.2211H152.3L152.303 37.4214ZM128.698 39.5686C128.628 39.59 128.55 39.6355 128.505 39.6889C128.462 39.7371 128.416 39.82 128.4 39.8761C128.384 39.9323 128.365 40.1034 128.357 40.2558C128.346 40.4163 128.354 40.6195 128.37 40.7238C128.386 40.8281 128.424 40.9537 128.451 41.0045C128.478 41.058 128.542 41.1222 128.591 41.1516C128.672 41.1971 128.744 41.2051 129.161 41.2131L129.64 41.2185V39.5071C129.108 39.5151 128.922 39.5205 128.887 39.5258C128.849 39.5312 128.766 39.5499 128.698 39.5686ZM147.735 40.5232C147.684 40.582 147.633 40.6756 147.62 40.7318C147.604 40.7879 147.593 40.919 147.593 41.0259V41.2185H148.589C148.586 40.7986 148.575 40.7291 148.527 40.6329C148.494 40.5687 148.424 40.4858 148.373 40.4537C148.317 40.4163 148.22 40.3868 148.145 40.3788C148.069 40.3708 147.967 40.3788 147.916 40.3922C147.859 40.4082 147.787 40.4617 147.735 40.5232ZM68.0053 37.6353L69.7682 37.6487V38.3707L68.0053 38.384V37.6353ZM95.4828 37.638H97.2591V38.3867H95.4828V37.638ZM70.25 38.7477L70.2635 41.2211H74.193L74.2065 38.7477H75.0678L75.0812 41.2211H76.75L76.7634 38.7477H77.6247L77.6381 41.9966L73.0841 41.9939C69.2541 41.9939 68.4925 41.9886 68.3121 41.9565C68.1883 41.9324 68.0188 41.8789 67.9084 41.8254C67.8061 41.7746 67.6662 41.6864 67.5989 41.6276C67.5316 41.5714 67.4401 41.4511 67.3916 41.3655C67.3459 41.2773 67.2813 41.1168 67.2544 41.0072C67.2248 40.8976 67.1925 40.697 67.1844 40.566C67.1736 40.4243 67.1763 40.2264 67.1952 40.0847C67.214 39.951 67.2544 39.7531 67.2894 39.6435C67.3297 39.5205 67.3997 39.3788 67.4724 39.2825C67.5451 39.1809 67.6527 39.0793 67.7631 39.0071C67.8573 38.9429 68.0134 38.868 68.1103 38.8386C68.2072 38.8092 68.3713 38.7744 68.4736 38.7637C68.5786 38.7504 69.02 38.7424 70.25 38.7477ZM68.3121 39.6114C68.2691 39.6381 68.2045 39.7077 68.1722 39.7638C68.1291 39.8387 68.1022 39.951 68.0807 40.1382C68.0591 40.3334 68.0591 40.4697 68.0807 40.6462C68.0968 40.7773 68.1318 40.927 68.1587 40.9778C68.1829 41.0286 68.2341 41.0928 68.2718 41.1195C68.3094 41.1463 68.3929 41.181 68.4602 41.1944C68.5274 41.2078 68.7616 41.2185 68.9796 41.2185L69.3753 41.2211V39.5098C68.845 39.5151 68.6216 39.5258 68.5409 39.5392C68.4602 39.5526 68.3579 39.5847 68.3121 39.6114ZM139.892 42.4512H140.781V43.3336H139.892V42.4512Z" fill="#AFAEB1"/>
<path d="M141.9 42.4512H141.012V43.3336H141.9V42.4512Z" fill="#AFAEB1"/>
<path d="M130.085 37.408H129.196V38.2904H130.085V37.408Z" fill="#AFAEB1"/>
<path d="M128.077 37.408H128.965V38.2905H128.077V37.408Z" fill="#AFAEB1"/>
<path d="M101.961 42.5554H101.073V43.4379H101.961V42.5554Z" fill="#AFAEB1"/>
<path d="M99.9533 42.5554H100.842V43.4379H99.9533V42.5554Z" fill="#AFAEB1"/>
<path d="M78.1953 42.5554H77.3071V43.4379H78.1953V42.5554Z" fill="#AFAEB1"/>
<path d="M76.1874 42.5554H77.0756V43.4379H76.1874V42.5554Z" fill="#AFAEB1"/>
<path d="M56.5826 42.5554H55.6944V43.4379H56.5826V42.5554Z" fill="#AFAEB1"/>
<path d="M54.5747 42.5554H55.4629V43.4379H54.5747V42.5554Z" fill="#AFAEB1"/>
<path d="M44.8315 49.4293V45.0316H46.5642C46.9189 45.0316 47.2153 45.0767 47.4532 45.1668C47.6955 45.257 47.875 45.4072 47.9918 45.6175C48.113 45.8279 48.1735 46.1133 48.1735 46.4739C48.1735 46.7915 48.1151 47.0598 47.9983 47.2787C47.8858 47.4934 47.7128 47.6522 47.4792 47.7552L48.1735 49.4293H47.2326L46.6485 47.9548H45.7271V49.4293H44.8315ZM45.7271 47.2272H46.5836C46.748 47.2272 46.88 47.1972 46.9795 47.1371C47.079 47.0727 47.1504 46.9847 47.1936 46.8731C47.2369 46.7572 47.2585 46.6263 47.2585 46.4803C47.2585 46.2399 47.2023 46.0597 47.0898 45.9395C46.9773 45.8193 46.8021 45.7592 46.5642 45.7592H45.7271V47.2272Z" fill="#AFAEB1"/>
<path d="M50.6408 49.5001C50.1693 49.5001 49.795 49.4185 49.5182 49.2554C49.2456 49.088 49.0488 48.8369 48.9276 48.5021C48.8108 48.1673 48.7524 47.7488 48.7524 47.2465C48.7524 46.74 48.8108 46.3172 48.9276 45.9781C49.0488 45.639 49.2456 45.3836 49.5182 45.2119C49.795 45.0402 50.1693 44.9543 50.6408 44.9543C51.1124 44.9543 51.4844 45.0402 51.757 45.2119C52.0338 45.3836 52.2307 45.639 52.3475 45.9781C52.4686 46.3172 52.5292 46.74 52.5292 47.2465C52.5292 47.7573 52.4686 48.1802 52.3475 48.515C52.2307 48.8498 52.0338 49.0988 51.757 49.2619C51.4844 49.4207 51.1124 49.5001 50.6408 49.5001ZM50.6408 48.7532C50.9134 48.7532 51.1189 48.6996 51.2573 48.5922C51.4001 48.4806 51.4952 48.3132 51.5428 48.09C51.5904 47.8625 51.6142 47.5814 51.6142 47.2465C51.6142 46.9117 51.5882 46.6306 51.5363 46.4031C51.4887 46.1713 51.3957 45.9974 51.2573 45.8815C51.1189 45.7613 50.9134 45.7012 50.6408 45.7012C50.3726 45.7012 50.1671 45.7613 50.0243 45.8815C49.8859 45.9974 49.7907 46.1713 49.7388 46.4031C49.6869 46.6306 49.6609 46.9117 49.6609 47.2465C49.6609 47.5771 49.6847 47.8539 49.7323 48.0771C49.7842 48.3004 49.8794 48.4699 50.0178 48.5858C50.1606 48.6974 50.3683 48.7532 50.6408 48.7532Z" fill="#AFAEB1"/>
<path d="M54.2233 49.4293V47.7616L52.867 45.0316H53.8404L54.6711 46.7958L55.5147 45.0316H56.4816L55.1188 47.7616V49.4293H54.2233Z" fill="#AFAEB1"/>
<path d="M56.6218 49.4293L57.751 45.0316H59.3149L60.4375 49.4293H59.542L59.2954 48.5407H57.7445L57.5109 49.4293H56.6218ZM57.8872 47.826H59.1656L58.666 45.7528H58.3934L57.8872 47.826Z" fill="#AFAEB1"/>
<path d="M60.9911 49.4293V45.0316H61.8866V48.6759H63.6387V49.4293H60.9911Z" fill="#AFAEB1"/>
<path d="M67.261 49.5001C66.9149 49.5001 66.6294 49.4572 66.4044 49.3713C66.1838 49.2812 66.0086 49.1438 65.8788 48.9592C65.749 48.7747 65.6581 48.5407 65.6062 48.2574C65.5586 47.9698 65.5348 47.6286 65.5348 47.2337C65.5348 46.8345 65.5586 46.4932 65.6062 46.2099C65.6581 45.9223 65.749 45.6862 65.8788 45.5016C66.0086 45.3171 66.1859 45.1797 66.4109 45.0896C66.6402 44.9994 66.9322 44.9543 67.2869 44.9543C67.4297 44.9543 67.579 44.9629 67.7347 44.9801C67.8905 44.9973 68.0397 45.0187 68.1825 45.0445C68.3296 45.0659 68.455 45.0896 68.5588 45.1153L68.5329 45.8236C68.4464 45.8064 68.3382 45.7914 68.2084 45.7785C68.0786 45.7613 67.9467 45.7485 67.8126 45.7399C67.6785 45.7313 67.553 45.727 67.4362 45.727C67.2285 45.727 67.0598 45.7527 66.93 45.8043C66.8003 45.8558 66.6986 45.9416 66.625 46.0618C66.5558 46.182 66.5082 46.3387 66.4823 46.5318C66.4563 46.7207 66.4433 46.9546 66.4433 47.2337C66.4433 47.5084 66.4563 47.7423 66.4823 47.9355C66.5082 48.1244 66.5558 48.2789 66.625 48.3991C66.6943 48.515 66.7938 48.6008 66.9235 48.6566C67.0577 48.7081 67.2307 48.7339 67.4427 48.7339C67.6157 48.7339 67.8061 48.7253 68.0137 48.7081C68.2257 48.6867 68.4009 48.6674 68.5394 48.6502L68.5588 49.352C68.455 49.3735 68.3317 49.3971 68.189 49.4228C68.0462 49.4443 67.8948 49.4615 67.7347 49.4744C67.5746 49.4915 67.4167 49.5001 67.261 49.5001Z" fill="#AFAEB1"/>
<path d="M70.9796 49.5001C70.508 49.5001 70.1338 49.4185 69.857 49.2554C69.5844 49.088 69.3876 48.8369 69.2664 48.5021C69.1496 48.1673 69.0912 47.7488 69.0912 47.2465C69.0912 46.74 69.1496 46.3172 69.2664 45.9781C69.3876 45.639 69.5844 45.3836 69.857 45.2119C70.1338 45.0402 70.508 44.9543 70.9796 44.9543C71.4512 44.9543 71.8232 45.0402 72.0958 45.2119C72.3726 45.3836 72.5695 45.639 72.6863 45.9781C72.8074 46.3172 72.868 46.74 72.868 47.2465C72.868 47.7573 72.8074 48.1802 72.6863 48.515C72.5695 48.8498 72.3726 49.0988 72.0958 49.2619C71.8232 49.4207 71.4512 49.5001 70.9796 49.5001ZM70.9796 48.7532C71.2521 48.7532 71.4576 48.6996 71.5961 48.5922C71.7388 48.4806 71.834 48.3132 71.8816 48.09C71.9292 47.8625 71.953 47.5814 71.953 47.2465C71.953 46.9117 71.927 46.6306 71.8751 46.4031C71.8275 46.1713 71.7345 45.9974 71.5961 45.8815C71.4576 45.7613 71.2521 45.7012 70.9796 45.7012C70.7114 45.7012 70.5059 45.7613 70.3631 45.8815C70.2247 45.9974 70.1295 46.1713 70.0776 46.4031C70.0257 46.6306 69.9997 46.9117 69.9997 47.2465C69.9997 47.5771 70.0235 47.8539 70.0711 48.0771C70.123 48.3004 70.2182 48.4699 70.3566 48.5858C70.4994 48.6974 70.707 48.7532 70.9796 48.7532Z" fill="#AFAEB1"/>
<path d="M73.6082 49.4293V45.0316H75.0488L75.9443 47.9677L76.8203 45.0316H78.2804V49.4293H77.3849V46.1713H77.2941L76.3661 49.3134H75.5225L74.5945 46.1713H74.5037V49.4293H73.6082Z" fill="#AFAEB1"/>
<path d="M79.161 49.4293V45.0316H80.6017L81.4972 47.9677L82.3732 45.0316H83.8333V49.4293H82.9378V46.1713H82.847L81.919 49.3134H81.0754L80.1474 46.1713H80.0566V49.4293H79.161Z" fill="#AFAEB1"/>
<path d="M84.7139 49.4293V45.0316H85.6095V49.4293H84.7139Z" fill="#AFAEB1"/>
<path d="M87.9303 49.5001C87.7659 49.5001 87.5864 49.4894 87.3917 49.4679C87.197 49.4507 87.0067 49.4293 86.8207 49.4035C86.639 49.3735 86.4832 49.3477 86.3534 49.3263L86.4118 48.6244C86.546 48.6416 86.7017 48.6609 86.8791 48.6824C87.0564 48.6996 87.2316 48.7146 87.4047 48.7275C87.5821 48.7403 87.7356 48.7468 87.8654 48.7468C88.112 48.7468 88.2916 48.6996 88.404 48.6051C88.5165 48.5064 88.5728 48.354 88.5728 48.148C88.5728 48.0364 88.549 47.9484 88.5014 47.884C88.4581 47.8153 88.3781 47.7616 88.2613 47.723C88.1445 47.6801 87.9822 47.6393 87.7746 47.6007C87.4285 47.5363 87.1473 47.4569 86.931 47.3624C86.719 47.268 86.5633 47.1349 86.4638 46.9632C86.3686 46.7915 86.321 46.5619 86.321 46.2743C86.321 45.9395 86.3837 45.6776 86.5092 45.4888C86.6346 45.2956 86.8142 45.1582 87.0478 45.0767C87.2814 44.9951 87.5561 44.9543 87.8719 44.9543C88.0147 44.9543 88.1769 44.9629 88.3586 44.9801C88.5447 44.993 88.7263 45.0101 88.9037 45.0316C89.0854 45.0531 89.239 45.0767 89.3645 45.1024L89.3255 45.8107C89.1957 45.7935 89.0443 45.7785 88.8713 45.7656C88.7026 45.7485 88.5338 45.7334 88.3651 45.7206C88.2007 45.7077 88.0601 45.7012 87.9433 45.7012C87.6967 45.7012 87.515 45.7399 87.3982 45.8171C87.2814 45.8944 87.223 46.0189 87.223 46.1906C87.223 46.3194 87.249 46.4181 87.3009 46.4868C87.3528 46.5554 87.4393 46.6112 87.5604 46.6542C87.6859 46.6971 87.8568 46.7422 88.0731 46.7894C88.3283 46.8452 88.5446 46.9053 88.722 46.9697C88.9037 47.0341 89.0486 47.1113 89.1568 47.2015C89.2693 47.2916 89.3515 47.4075 89.4034 47.5492C89.4553 47.6908 89.4813 47.869 89.4813 48.0836C89.4813 48.427 89.4185 48.7038 89.2931 48.9142C89.1719 49.1202 88.9946 49.2705 88.761 49.3649C88.5317 49.455 88.2548 49.5001 87.9303 49.5001Z" fill="#AFAEB1"/>
<path d="M91.6011 49.5001C91.4367 49.5001 91.2571 49.4894 91.0625 49.4679C90.8678 49.4507 90.6774 49.4293 90.4914 49.4035C90.3097 49.3735 90.154 49.3477 90.0242 49.3263L90.0826 48.6244C90.2167 48.6416 90.3724 48.6609 90.5498 48.6824C90.7272 48.6996 90.9024 48.7146 91.0754 48.7275C91.2528 48.7403 91.4064 48.7468 91.5362 48.7468C91.7828 48.7468 91.9623 48.6996 92.0748 48.6051C92.1873 48.5064 92.2435 48.354 92.2435 48.148C92.2435 48.0364 92.2197 47.9484 92.1721 47.884C92.1289 47.8153 92.0488 47.7616 91.932 47.723C91.8152 47.6801 91.653 47.6393 91.4453 47.6007C91.0992 47.5363 90.818 47.4569 90.6017 47.3624C90.3897 47.268 90.234 47.1349 90.1345 46.9632C90.0393 46.7915 89.9917 46.5619 89.9917 46.2743C89.9917 45.9395 90.0545 45.6776 90.1799 45.4888C90.3054 45.2956 90.4849 45.1582 90.7185 45.0767C90.9521 44.9951 91.2269 44.9543 91.5427 44.9543C91.6854 44.9543 91.8477 44.9629 92.0294 44.9801C92.2154 44.993 92.3971 45.0101 92.5745 45.0316C92.7562 45.0531 92.9097 45.0767 93.0352 45.1024L92.9963 45.8107C92.8665 45.7935 92.7151 45.7785 92.542 45.7656C92.3733 45.7485 92.2046 45.7334 92.0359 45.7206C91.8715 45.7077 91.7309 45.7012 91.6141 45.7012C91.3675 45.7012 91.1858 45.7399 91.069 45.8171C90.9522 45.8944 90.8937 46.0189 90.8937 46.1906C90.8937 46.3194 90.9197 46.4181 90.9716 46.4868C91.0235 46.5554 91.1101 46.6112 91.2312 46.6542C91.3566 46.6971 91.5275 46.7422 91.7438 46.7894C91.9991 46.8452 92.2154 46.9053 92.3928 46.9697C92.5745 47.0341 92.7194 47.1113 92.8275 47.2015C92.94 47.2916 93.0222 47.4075 93.0741 47.5492C93.126 47.6908 93.152 47.869 93.152 48.0836C93.152 48.427 93.0893 48.7038 92.9638 48.9142C92.8427 49.1202 92.6653 49.2705 92.4317 49.3649C92.2024 49.455 91.9255 49.5001 91.6011 49.5001Z" fill="#AFAEB1"/>
<path d="M93.8377 49.4293V45.0316H94.7332V49.4293H93.8377Z" fill="#AFAEB1"/>
<path d="M97.3656 49.5001C96.894 49.5001 96.5198 49.4185 96.2429 49.2554C95.9704 49.088 95.7735 48.8369 95.6524 48.5021C95.5356 48.1673 95.4772 47.7488 95.4772 47.2465C95.4772 46.74 95.5356 46.3172 95.6524 45.9781C95.7735 45.639 95.9704 45.3836 96.2429 45.2119C96.5198 45.0402 96.894 44.9543 97.3656 44.9543C97.8371 44.9543 98.2092 45.0402 98.4817 45.2119C98.7586 45.3836 98.9554 45.639 99.0723 45.9781C99.1934 46.3172 99.254 46.74 99.254 47.2465C99.254 47.7573 99.1934 48.1802 99.0723 48.515C98.9554 48.8498 98.7586 49.0988 98.4817 49.2619C98.2092 49.4207 97.8371 49.5001 97.3656 49.5001ZM97.3656 48.7532C97.6381 48.7532 97.8436 48.6996 97.9821 48.5922C98.1248 48.4806 98.22 48.3132 98.2676 48.09C98.3152 47.8625 98.339 47.5814 98.339 47.2465C98.339 46.9117 98.313 46.6306 98.2611 46.4031C98.2135 46.1713 98.1205 45.9974 97.9821 45.8815C97.8436 45.7613 97.6381 45.7012 97.3656 45.7012C97.0974 45.7012 96.8919 45.7613 96.7491 45.8815C96.6107 45.9974 96.5155 46.1713 96.4636 46.4031C96.4116 46.6306 96.3857 46.9117 96.3857 47.2465C96.3857 47.5771 96.4095 47.8539 96.4571 48.0771C96.509 48.3004 96.6042 48.4699 96.7426 48.5858C96.8854 48.6974 97.093 48.7532 97.3656 48.7532Z" fill="#AFAEB1"/>
<path d="M99.9941 49.4293V45.0316H101.162L102.583 48.1222H102.7V45.0316H103.596V49.4293H102.441L101.006 46.2872H100.89V49.4293H99.9941Z" fill="#AFAEB1"/>
<path d="M105.954 49.4293V45.0316H108.816V45.7785H106.85V47.1049H108.459V47.8518H106.85V49.4293H105.954Z" fill="#AFAEB1"/>
<path d="M111.168 49.5001C110.696 49.5001 110.322 49.4185 110.045 49.2554C109.772 49.088 109.576 48.8369 109.455 48.5021C109.338 48.1673 109.279 47.7488 109.279 47.2465C109.279 46.74 109.338 46.3172 109.455 45.9781C109.576 45.639 109.772 45.3836 110.045 45.2119C110.322 45.0402 110.696 44.9543 111.168 44.9543C111.639 44.9543 112.011 45.0402 112.284 45.2119C112.561 45.3836 112.758 45.639 112.874 45.9781C112.995 46.3172 113.056 46.74 113.056 47.2465C113.056 47.7573 112.995 48.1802 112.874 48.515C112.758 48.8498 112.561 49.0988 112.284 49.2619C112.011 49.4207 111.639 49.5001 111.168 49.5001ZM111.168 48.7532C111.44 48.7532 111.646 48.6996 111.784 48.5922C111.927 48.4806 112.022 48.3132 112.07 48.09C112.117 47.8625 112.141 47.5814 112.141 47.2465C112.141 46.9117 112.115 46.6306 112.063 46.4031C112.016 46.1713 111.923 45.9974 111.784 45.8815C111.646 45.7613 111.44 45.7012 111.168 45.7012C110.899 45.7012 110.694 45.7613 110.551 45.8815C110.413 45.9974 110.318 46.1713 110.266 46.4031C110.214 46.6306 110.188 46.9117 110.188 47.2465C110.188 47.5771 110.212 47.8539 110.259 48.0771C110.311 48.3004 110.406 48.4699 110.545 48.5858C110.687 48.6974 110.895 48.7532 111.168 48.7532Z" fill="#AFAEB1"/>
<path d="M113.796 49.4293V45.0316H115.529C115.884 45.0316 116.18 45.0767 116.418 45.1668C116.66 45.257 116.84 45.4072 116.957 45.6175C117.078 45.8279 117.138 46.1133 117.138 46.4739C117.138 46.7915 117.08 47.0598 116.963 47.2787C116.851 47.4934 116.677 47.6522 116.444 47.7552L117.138 49.4293H116.197L115.613 47.9548H114.692V49.4293H113.796ZM114.692 47.2272H115.548C115.713 47.2272 115.845 47.1972 115.944 47.1371C116.044 47.0727 116.115 46.9847 116.158 46.8731C116.202 46.7572 116.223 46.6263 116.223 46.4803C116.223 46.2399 116.167 46.0597 116.055 45.9395C115.942 45.8193 115.767 45.7592 115.529 45.7592H114.692V47.2272Z" fill="#AFAEB1"/>
<path d="M119.338 49.4293V45.0316H121.071C121.425 45.0316 121.722 45.0767 121.96 45.1668C122.202 45.257 122.381 45.4072 122.498 45.6175C122.619 45.8279 122.68 46.1133 122.68 46.4739C122.68 46.7915 122.622 47.0598 122.505 47.2787C122.392 47.4934 122.219 47.6522 121.986 47.7552L122.68 49.4293H121.739L121.155 47.9548H120.234V49.4293H119.338ZM120.234 47.2272H121.09C121.254 47.2272 121.386 47.1972 121.486 47.1371C121.585 47.0727 121.657 46.9847 121.7 46.8731C121.743 46.7572 121.765 46.6263 121.765 46.4803C121.765 46.2399 121.709 46.0597 121.596 45.9395C121.484 45.8193 121.309 45.7592 121.071 45.7592H120.234V47.2272Z" fill="#AFAEB1"/>
<path d="M123.402 49.4293V45.0316H124.297V49.4293H123.402Z" fill="#AFAEB1"/>
<path d="M126.138 49.4293V47.7616L124.782 45.0316H125.755L126.586 46.7958L127.429 45.0316H128.396L127.033 47.7616V49.4293H126.138Z" fill="#AFAEB1"/>
<path d="M128.536 49.4293L129.666 45.0316H131.229L132.352 49.4293H131.457L131.21 48.5407H129.659L129.425 49.4293H128.536ZM129.802 47.826H131.08L130.58 45.7528H130.308L129.802 47.826Z" fill="#AFAEB1"/>
<path d="M132.906 49.4293V45.0316H134.599C134.945 45.0316 135.235 45.081 135.469 45.1797C135.707 45.2741 135.897 45.4136 136.04 45.5982C136.183 45.7828 136.284 46.006 136.345 46.2679C136.41 46.5297 136.442 46.828 136.442 47.1628C136.442 47.5019 136.412 47.8089 136.351 48.0836C136.295 48.3583 136.198 48.5965 136.059 48.7983C135.921 49 135.735 49.1567 135.501 49.2683C135.268 49.3756 134.976 49.4293 134.625 49.4293H132.906ZM133.801 48.6824H134.573C134.777 48.6824 134.941 48.6438 135.067 48.5665C135.192 48.4892 135.287 48.3819 135.352 48.2445C135.421 48.1029 135.467 47.9419 135.488 47.7616C135.514 47.5771 135.527 47.3775 135.527 47.1628C135.527 46.9568 135.514 46.7701 135.488 46.6027C135.462 46.431 135.415 46.285 135.346 46.1648C135.281 46.0403 135.186 45.9459 135.06 45.8815C134.939 45.8128 134.777 45.7785 134.573 45.7785H133.801V48.6824Z" fill="#AFAEB1"/>
<path d="M137.178 49.4293V45.0316H138.074V46.8667H139.794V45.0316H140.689V49.4293H139.794V47.6135H138.074V49.4293H137.178Z" fill="#AFAEB1"/>
<path d="M144.646 49.5001C144.3 49.5001 144.014 49.4572 143.789 49.3713C143.569 49.2812 143.394 49.1438 143.264 48.9592C143.134 48.7747 143.043 48.5407 142.991 48.2574C142.944 47.9698 142.92 47.6286 142.92 47.2337C142.92 46.8345 142.944 46.4932 142.991 46.2099C143.043 45.9223 143.134 45.6862 143.264 45.5016C143.394 45.3171 143.571 45.1797 143.796 45.0896C144.025 44.9994 144.317 44.9543 144.672 44.9543C144.815 44.9543 144.964 44.9629 145.12 44.9801C145.275 44.9973 145.425 45.0187 145.568 45.0445C145.715 45.0659 145.84 45.0896 145.944 45.1153L145.918 45.8236C145.831 45.8064 145.723 45.7914 145.593 45.7785C145.464 45.7613 145.332 45.7485 145.198 45.7399C145.064 45.7313 144.938 45.727 144.821 45.727C144.614 45.727 144.445 45.7527 144.315 45.8043C144.185 45.8558 144.084 45.9416 144.01 46.0618C143.941 46.182 143.893 46.3387 143.867 46.5318C143.841 46.7207 143.828 46.9546 143.828 47.2337C143.828 47.5084 143.841 47.7423 143.867 47.9355C143.893 48.1244 143.941 48.2789 144.01 48.3991C144.079 48.515 144.179 48.6008 144.309 48.6566C144.443 48.7081 144.616 48.7339 144.828 48.7339C145.001 48.7339 145.191 48.7253 145.399 48.7081C145.611 48.6867 145.786 48.6674 145.924 48.6502L145.944 49.352C145.84 49.3735 145.717 49.3971 145.574 49.4228C145.431 49.4443 145.28 49.4615 145.12 49.4744C144.96 49.4915 144.802 49.5001 144.646 49.5001Z" fill="#AFAEB1"/>
<path d="M146.619 49.4293V45.0316H147.515V49.4293H146.619Z" fill="#AFAEB1"/>
<path d="M149.258 49.4293V45.7849H148.064V45.0316H151.308V45.7849H150.153V49.4293H149.258Z" fill="#AFAEB1"/>
<path d="M152.817 49.4293V47.7616L151.461 45.0316H152.434L153.265 46.7958L154.108 45.0316H155.075L153.712 47.7616V49.4293H152.817Z" fill="#AFAEB1"/>
<path d="M108.472 28.8539L107.428 29.0544L104.245 27.1121L104.975 26.2976C105.107 26.1507 105.077 25.9223 104.912 25.8132L104.626 25.6243C104.412 25.4824 104.123 25.5299 103.966 25.7329L103.307 26.5861C102.668 26.0794 102.035 25.6026 101.409 25.1546C107.297 21.2082 112.487 19.5333 118.321 19.7477C114.597 18.421 107.99 19.2232 100.288 24.3787C92.5853 19.2232 85.9779 18.421 82.2539 19.7477C88.0879 19.5333 93.278 21.2082 99.1665 25.1546C98.54 25.6026 97.907 26.0794 97.2684 26.5861L96.6088 25.7329C96.4519 25.5299 96.1632 25.4824 95.9487 25.6243L95.6629 25.8132C95.4979 25.9223 95.4683 26.1507 95.6 26.2976L96.33 27.1121L93.1475 29.0544L92.1031 28.8539C92.0283 28.8395 91.9762 28.9257 92.0243 28.9844L92.9251 30.0839C93.2381 30.466 93.7899 30.5553 94.2092 30.2918L97.5948 28.1642L98.1435 28.4991C98.4533 28.6882 98.8476 28.6731 99.1419 28.4608C99.3342 28.3221 99.3172 28.0325 99.1099 27.9169L98.2476 27.4358C98.9386 26.9038 99.618 26.4012 100.288 25.9272C100.957 26.4012 101.637 26.9038 102.328 27.4358L101.465 27.9169C101.258 28.0325 101.241 28.3221 101.433 28.4608C101.728 28.6731 102.122 28.6882 102.432 28.4991L102.98 28.1642L106.366 30.2918C106.785 30.5553 107.337 30.466 107.65 30.0839L108.551 28.9844C108.599 28.9257 108.547 28.8395 108.472 28.8539Z" fill="#AFAEB1"/>
<path d="M101.149 3.00607C101.043 1.73978 100.708 0.757067 100.288 0.5C99.8675 0.757107 99.5325 1.7398 99.4257 3.00607C99.2746 2.91757 99.1155 2.83647 98.9495 2.7638C97.3264 2.05418 95.557 2.38483 94.7101 3.47569C95.4164 3.22804 96.2289 3.23952 96.9821 3.56883C97.5087 3.79898 97.9368 4.15417 98.2447 4.57991C97.9167 4.48957 97.5674 4.4349 97.204 4.42198C95.3823 4.3573 93.8338 5.36529 93.5147 6.74199C94.0853 6.18694 94.8933 5.85422 95.7769 5.88561C96.4858 5.91081 97.1287 6.16635 97.6285 6.57334C97.5163 6.5556 97.4016 6.54524 97.2849 6.54112C95.8416 6.48984 94.6087 7.53177 94.3655 8.9328C95.1506 8.34412 96.2952 7.99435 97.5562 8.03914C97.6126 8.04116 97.6687 8.04392 97.7245 8.04748C97.7847 8.05127 97.8447 8.05596 97.9043 8.06149L97.9849 8.06959L98.0856 8.08125C98.027 8.14619 97.9655 8.20811 97.9011 8.26689C96.693 8.48023 95.7489 9.4403 95.5799 10.6434C96.2981 10.0807 97.3417 9.71213 98.5134 9.67042L100.288 9.66807L102.062 9.67042C103.233 9.71213 104.277 10.0807 104.995 10.6434C104.826 9.4403 103.882 8.48023 102.674 8.26689C102.61 8.20811 102.548 8.14619 102.49 8.08125L102.585 8.07014L102.671 8.06149L102.76 8.05384L102.851 8.04748C102.906 8.04392 102.963 8.04116 103.019 8.03914C104.28 7.99435 105.425 8.34412 106.21 8.9328C105.966 7.53177 104.734 6.48984 103.29 6.54112C103.174 6.54524 103.059 6.5556 102.947 6.57334C103.446 6.16635 104.089 5.91081 104.798 5.88561C105.682 5.85422 106.49 6.18694 107.06 6.74199C106.741 5.36529 105.193 4.3573 103.371 4.42198C103.008 4.4349 102.658 4.48957 102.33 4.57991C102.638 4.15417 103.066 3.79898 103.593 3.56883C104.346 3.23952 105.159 3.22804 105.865 3.47569C105.018 2.38483 103.249 2.05418 101.626 2.7638C101.46 2.83647 101.301 2.91757 101.149 3.00607Z" fill="#AFAEB1"/>
<path d="M99.39 9.51042V21.0491C98.4745 21.1467 97.6827 21.3903 97.1399 21.7229L100.261 23.5397L103.409 21.7072C102.868 21.3826 102.086 21.1451 101.185 21.0491V9.42949L100.288 9.51042H99.39Z" fill="#AFAEB1"/>
</g>
<defs>
<clipPath id="clip0_245_48586">
<rect width="198.244" height="49" fill="white" transform="translate(0.831665 0.5)"/>
</clipPath>
</defs>
</svg>
