<svg width="271" height="44" viewBox="0 0 271 44" fill="none" xmlns="http://www.w3.org/2000/svg">
<g clip-path="url(#clip0_245_48591)">
<path d="M198.93 12.3327C197.217 7.66563 193.707 3.86469 189.171 1.76539C184.635 -0.33391 179.445 -0.559735 174.741 1.13756L152.346 9.222C151.685 9.4574 151.138 9.9336 150.818 10.5541C150.497 11.1746 150.426 11.8929 150.619 12.5635C150.726 12.9099 150.903 13.231 151.139 13.5074C151.375 13.7837 151.666 14.0095 151.992 14.1709C152.319 14.3324 152.676 14.4261 153.041 14.4464C153.405 14.4668 153.77 14.4133 154.113 14.2892L157.065 13.19C157.4 13.0598 157.757 12.9974 158.117 13.0065C158.476 13.0155 158.831 13.0959 159.158 13.2428C159.486 13.3897 159.781 13.6003 160.026 13.862C160.27 14.1237 160.46 14.4313 160.583 14.7668C160.706 15.1022 160.76 15.4587 160.742 15.8152C160.724 16.1717 160.635 16.5211 160.479 16.8428C160.323 17.1644 160.103 17.4519 159.834 17.6882C159.564 17.9245 159.25 18.1049 158.909 18.2187L147.678 22.2802C147.023 22.535 146.494 23.034 146.204 23.6707C145.914 24.3073 145.887 25.0312 146.128 25.6876C146.368 26.3441 146.858 26.8811 147.492 27.184C148.127 27.487 148.855 27.5318 149.522 27.3089L155.941 24.9897C156.6 24.746 157.329 24.761 157.978 25.0316C158.627 25.3021 159.148 25.8079 159.435 26.4461C159.575 26.7801 159.646 27.1388 159.642 27.5006C159.639 27.8624 159.562 28.2198 159.415 28.5511C159.269 28.8825 159.056 29.1809 158.79 29.4284C158.524 29.6758 158.21 29.8672 157.868 29.9909L155.165 30.9692C154.503 31.2035 153.955 31.6793 153.633 32.2999C153.311 32.9205 153.239 33.6394 153.432 34.3107C153.541 34.6563 153.719 34.9764 153.957 35.2516C154.194 35.5267 154.485 35.7513 154.812 35.9116C155.139 36.0719 155.496 36.1646 155.86 36.1842C156.224 36.2038 156.589 36.1497 156.932 36.0254L167.492 32.2113C168.152 31.9676 168.881 31.9826 169.53 32.2532C170.179 32.5237 170.7 33.0295 170.987 33.6677C171.126 34.0017 171.196 34.3603 171.192 34.7219C171.189 35.0835 171.111 35.4406 170.965 35.7717C170.818 36.1029 170.606 36.4012 170.34 36.6488C170.075 36.8964 169.762 37.0881 169.42 37.2125L167.204 38.0094C166.542 38.2437 165.994 38.7195 165.672 39.3401C165.35 39.9607 165.278 40.6796 165.471 41.3509C165.58 41.6965 165.758 42.0166 165.996 42.2918C166.233 42.567 166.524 42.7915 166.851 42.9518C167.178 43.1121 167.535 43.2048 167.899 43.2244C168.264 43.244 168.628 43.1899 168.971 43.0656L187.639 36.3222C192.34 34.6241 196.169 31.144 198.286 26.646C200.403 22.1481 200.635 17.0001 198.93 12.3327ZM194.439 22.2252C194.312 22.6872 194.161 23.1421 193.985 23.5882C193.21 25.538 191.994 27.2849 190.43 28.6939C190.079 29.0154 189.709 29.3163 189.322 29.5952C189.149 29.7545 188.944 29.8763 188.72 29.9528C188.497 30.0292 188.259 30.0587 188.024 30.0394C187.788 30.0201 187.559 29.9523 187.351 29.8404C187.143 29.7286 186.961 29.575 186.816 29.3896C186.671 29.2041 186.567 28.9908 186.51 28.7631C186.452 28.5354 186.443 28.2984 186.483 28.0671C186.523 27.8358 186.611 27.6153 186.741 27.4194C186.872 27.2236 187.041 27.0569 187.24 26.9297C187.613 26.661 187.966 26.3671 188.298 26.0504L187.44 24.9512C187.39 24.8868 187.346 24.8189 187.307 24.7478C187.19 24.5487 187.116 24.328 187.088 24.0993C187.061 23.8706 187.08 23.6387 187.146 23.4178C187.196 23.2439 187.276 23.0801 187.384 22.9342C187.482 22.7886 187.604 22.6604 187.744 22.555C188.083 22.3001 188.505 22.1787 188.929 22.2142H189.14L189.333 22.2582L190.685 22.6594C190.865 22.2394 191.016 21.8079 191.139 21.3679V21.3294C191.268 20.8987 191.564 20.5366 191.963 20.3227C192.361 20.1088 192.829 20.0608 193.263 20.189C193.697 20.3173 194.061 20.6114 194.277 21.0067C194.492 21.4019 194.541 21.866 194.412 22.2967L194.439 22.2252ZM182.206 32.1618C181.725 32.1866 181.242 32.1866 180.761 32.1618C178.65 32.0795 176.586 31.5153 174.73 30.513C174.308 30.2835 173.897 30.0322 173.501 29.7601C173.123 29.513 172.859 29.127 172.767 28.6869C172.676 28.2468 172.765 27.7887 173.014 27.4134C173.263 27.038 173.651 26.7762 174.095 26.6855C174.538 26.5948 175 26.6827 175.378 26.9297H175.406C175.784 27.1906 176.18 27.4256 176.591 27.6332L177.372 26.4571L177.51 26.3801H177.538C177.833 26.086 178.228 25.9099 178.646 25.8855C178.821 25.8784 178.996 25.8969 179.166 25.9405C179.343 25.9892 179.511 26.0653 179.664 26.1658C179.856 26.2899 180.021 26.4513 180.149 26.6402C180.276 26.8291 180.364 27.0416 180.407 27.265C180.412 27.3455 180.412 27.4263 180.407 27.5068L180.473 28.9082C180.934 28.9412 181.397 28.9412 181.857 28.9082H181.918C182.147 28.8901 182.376 28.9178 182.593 28.9895C182.81 29.0613 183.011 29.1758 183.183 29.326C183.354 29.4763 183.494 29.6593 183.593 29.8642C183.691 30.0691 183.748 30.2916 183.758 30.5186C183.769 30.7455 183.733 30.9722 183.653 31.1852C183.573 31.3981 183.451 31.593 183.294 31.7581C183.137 31.9233 182.948 32.0553 182.738 32.1464C182.528 32.2374 182.302 32.2857 182.073 32.2882L182.206 32.1618ZM171.097 17.5153L172.476 17.8285C172.555 17.8447 172.633 17.8667 172.709 17.8945C172.927 17.9737 173.127 18.0965 173.295 18.2553C173.464 18.4141 173.598 18.6056 173.689 18.8178C173.76 18.9841 173.805 19.1602 173.822 19.3399C173.837 19.524 173.823 19.7092 173.783 19.8895C173.681 20.2958 173.43 20.6501 173.08 20.8842H173.052C172.997 20.915 172.939 20.9425 172.881 20.9667L171.579 21.5163C171.713 21.9534 171.876 22.3812 172.067 22.7968V22.8298C172.245 23.243 172.251 23.7097 172.083 24.1271C171.914 24.5445 171.586 24.8785 171.169 25.0556C170.753 25.2327 170.283 25.2384 169.862 25.0714C169.442 24.9045 169.105 24.5785 168.927 24.1653C168.716 23.7313 168.531 23.2854 168.373 22.8298C167.548 20.3812 167.446 17.7496 168.079 15.2455C168.121 15.0209 168.208 14.807 168.335 14.6166C168.462 14.4263 168.627 14.2634 168.819 14.1379C169.011 14.0123 169.227 13.9266 169.453 13.886C169.68 13.8454 169.912 13.8506 170.137 13.9015C170.361 13.9523 170.573 14.0477 170.759 14.1818C170.945 14.3159 171.102 14.4861 171.22 14.682C171.338 14.8779 171.415 15.0955 171.447 15.3217C171.478 15.548 171.463 15.7782 171.402 15.9984V16.0369C171.288 16.4795 171.205 16.9294 171.153 17.3834L171.097 17.5153ZM172.681 8.04038C173.054 7.73809 173.442 7.45557 173.844 7.19402C175.611 6.04455 177.622 5.31831 179.72 5.07261C180.199 5.01412 180.682 4.98293 181.165 4.97918C181.618 4.96387 182.058 5.12753 182.388 5.43416C182.719 5.74079 182.914 6.16526 182.929 6.6142C182.944 7.06314 182.78 7.49977 182.471 7.82804C182.162 8.15631 181.734 8.34933 181.282 8.36464H181.221C180.759 8.3694 180.299 8.40428 179.842 8.46906L179.892 9.876C179.897 9.95652 179.897 10.0373 179.892 10.1178C179.881 10.3769 179.811 10.6302 179.686 10.858C179.561 11.0859 179.385 11.282 179.172 11.4313C179.029 11.5447 178.868 11.6321 178.695 11.6896C178.53 11.7504 178.356 11.7838 178.18 11.7886C177.755 11.8076 177.339 11.664 177.017 11.3874H176.99C176.943 11.3417 176.9 11.2921 176.862 11.239L175.993 10.1398C175.606 10.381 175.236 10.6472 174.885 10.9367H174.858C174.501 11.2137 174.048 11.3385 173.598 11.2839C173.148 11.2293 172.739 10.9996 172.46 10.6454C172.181 10.2912 172.055 9.84153 172.11 9.39524C172.165 8.94896 172.396 8.54265 172.753 8.26571L172.681 8.04038ZM182.649 22.1263L181.542 23.7751C181.338 24.0734 181.043 24.2988 180.7 24.4181C180.538 24.4744 180.368 24.5059 180.196 24.5115H180.152C179.807 24.5163 179.469 24.4166 179.183 24.2257C178.867 24.0118 178.632 23.7009 178.513 23.3409C178.467 23.1929 178.441 23.0395 178.435 22.8847L178.363 20.8842L176.419 20.3347H176.381H176.347H176.286H176.248H176.22H176.17H176.137H176.104L175.982 20.2577L175.888 20.1918H175.86L175.777 20.1148L175.727 20.0654V20.0379L175.694 19.9774V19.9445V19.9115V19.884V19.8345V19.7521V19.7191C175.688 19.6294 175.688 19.5395 175.694 19.4498C175.694 19.2918 175.717 19.1346 175.76 18.9827C175.873 18.591 176.125 18.2532 176.469 18.0319L176.536 17.9879H176.563L176.613 17.9604C176.688 17.9209 176.765 17.8878 176.846 17.8615L178.701 17.191L178.064 14.597V14.487V14.3496V14.2892V14.2507V14.2123C178.144 13.8045 178.372 13.4403 178.706 13.19C178.842 13.0791 178.996 12.9918 179.161 12.9317C179.338 12.8673 179.525 12.8321 179.714 12.8273C179.989 12.8199 180.262 12.8779 180.509 12.9965C180.757 13.115 180.972 13.2907 181.138 13.5088L182.361 15.0586L184.217 14.3936C184.283 14.3659 184.351 14.3438 184.421 14.3277H184.46H184.516H184.637C185.045 14.2815 185.455 14.3809 185.795 14.608C185.928 14.6944 186.047 14.8 186.149 14.9212C186.208 14.9915 186.26 15.0669 186.304 15.1466V15.174L186.343 15.2455V15.2839V15.3224V15.3554V15.3884V15.4543V15.4873V15.5148V15.938V16.0094C186.343 16.0094 186.343 16.0534 186.343 16.0809V16.1193V16.2292V16.2622C186.336 16.2977 186.327 16.3326 186.315 16.3666C186.303 16.4114 186.288 16.4554 186.271 16.4985V16.537V16.57V16.603V16.6359V16.6689V16.7019L185.164 18.3506L186.371 20.1478C186.458 20.2608 186.531 20.3845 186.587 20.516V20.549C186.733 20.8976 186.755 21.2857 186.648 21.6482C186.558 21.9797 186.364 22.2743 186.094 22.489C185.95 22.5993 185.789 22.6864 185.618 22.7474C185.284 22.8657 184.922 22.8773 184.582 22.7803L182.649 22.1263ZM189.278 7.69414C189.663 7.97293 190.033 8.27197 190.386 8.58997C191.165 9.28754 191.862 10.0712 192.462 10.9257C193.064 11.7814 193.564 12.7035 193.952 13.6737C194.129 14.1178 194.283 14.5709 194.412 15.0311C194.542 15.4611 194.496 15.925 194.282 16.3208C194.068 16.7166 193.704 17.0118 193.271 17.1416C192.838 17.2713 192.37 17.2249 191.971 17.0126C191.573 16.8002 191.275 16.4394 191.144 16.0094V15.938C191.02 15.4978 190.867 15.0664 190.685 14.6464L189.333 15.0531L189.14 15.0971H188.968C188.545 15.1364 188.122 15.0167 187.783 14.7618C187.643 14.6556 187.52 14.5297 187.417 14.3881C187.314 14.2377 187.234 14.0729 187.179 13.899C187.113 13.6785 187.092 13.4468 187.119 13.2181C187.145 12.9894 187.219 12.7686 187.334 12.569C187.379 12.4975 187.423 12.4316 187.473 12.3656L188.326 11.2665C187.991 10.9509 187.635 10.6572 187.262 10.3871H187.235C187.033 10.2634 186.859 10.0992 186.725 9.90515C186.591 9.71109 186.499 9.49137 186.455 9.26004C186.411 9.0287 186.417 8.79084 186.471 8.56164C186.525 8.33244 186.626 8.11694 186.769 7.92891C186.912 7.74087 187.092 7.58444 187.299 7.4696C187.506 7.35475 187.735 7.28403 187.971 7.26193C188.207 7.23984 188.446 7.26687 188.671 7.34129C188.896 7.41571 189.103 7.53588 189.278 7.69414ZM162.758 39.5702C163.002 40.2371 162.969 40.9729 162.667 41.616C162.365 42.2591 161.818 42.7568 161.146 42.9997L158.792 43.8515C158.459 43.9717 158.106 44.0256 157.752 44.0101C157.398 43.9946 157.05 43.9101 156.729 43.7613C156.408 43.6126 156.119 43.4025 155.88 43.1431C155.641 42.8837 155.455 42.58 155.334 42.2495C155.213 41.9189 155.159 41.5679 155.174 41.2166C155.19 40.8652 155.275 40.5203 155.425 40.2016C155.575 39.8829 155.787 39.5966 156.048 39.3591C156.309 39.1216 156.615 38.9375 156.948 38.8173L159.302 37.9709C159.635 37.8501 159.988 37.7957 160.342 37.8107C160.696 37.8257 161.043 37.91 161.364 38.0586C161.685 38.2071 161.974 38.4172 162.213 38.6766C162.452 38.936 162.637 39.2397 162.758 39.5702ZM150.99 32.5905C151.234 33.2581 151.202 33.9947 150.9 34.6387C150.598 35.2826 150.05 35.7814 149.378 36.0254L144.222 37.8885C143.55 38.1319 142.807 38.1002 142.158 37.8002C141.509 37.5003 141.007 36.9568 140.761 36.2892C140.516 35.6216 140.548 34.8847 140.85 34.2405C141.153 33.5963 141.7 33.0977 142.373 32.8543L147.534 30.9912C148.206 30.7487 148.948 30.781 149.596 31.0809C150.244 31.3808 150.745 31.9237 150.99 32.5905ZM141.415 18.7628C141.293 18.4327 141.238 18.082 141.253 17.7307C141.269 17.3795 141.353 17.0347 141.503 16.7161C141.653 16.3975 141.864 16.1113 142.126 15.8741C142.387 15.6368 142.693 15.4531 143.026 15.3334L146.205 14.1848C146.539 14.0646 146.894 14.0109 147.249 14.0268C147.604 14.0427 147.953 14.1279 148.274 14.2774C148.596 14.4269 148.885 14.6379 149.125 14.8983C149.365 15.1587 149.551 15.4634 149.672 15.7951C149.793 16.1267 149.847 16.4788 149.831 16.8311C149.815 17.1835 149.729 17.5293 149.578 17.8488C149.428 18.1682 149.215 18.4551 148.953 18.6931C148.69 18.931 148.383 19.1153 148.049 19.2355L144.87 20.3841C144.536 20.5036 144.182 20.5565 143.827 20.5396C143.472 20.5228 143.124 20.4366 142.803 20.2859C142.482 20.1353 142.194 19.9232 141.956 19.6618C141.718 19.4004 141.534 19.0949 141.415 18.7628Z" fill="#AFAEB1"/>
<path d="M92.9311 36.2727H96.719V38.3941C96.7386 38.95 96.6453 39.5041 96.4445 40.0234C96.2438 40.5427 95.9397 41.0166 95.5505 41.4168C95.1558 41.8153 94.6813 42.1273 94.1577 42.3327C93.634 42.5381 93.0728 42.6324 92.5103 42.6094C91.9286 42.6479 91.3458 42.5557 90.805 42.3397C90.2642 42.1237 89.7795 41.7895 89.3869 41.3619C88.6423 40.4905 88.2479 39.3769 88.2794 38.2347V34.8328C88.2464 33.702 88.6415 32.6 89.3869 31.7441C89.7802 31.3226 90.263 30.993 90.8002 30.7792C91.3375 30.5653 91.9159 30.4725 92.4936 30.5075C93.3235 30.4857 94.1417 30.7054 94.8472 31.1395C95.5017 31.5564 96.0089 32.1654 96.2981 32.8817C96.2981 32.8817 96.1098 32.9752 95.7443 33.1291L95.1906 33.3764C94.972 32.8544 94.6043 32.4074 94.1328 32.0903C93.6444 31.7585 93.0632 31.5874 92.4715 31.6012C92.0457 31.5758 91.6197 31.6484 91.2268 31.8133C90.8339 31.9783 90.4848 32.2311 90.2065 32.552C89.6841 33.2148 89.4188 34.0417 89.4589 34.8822V38.2512C89.4355 39.106 89.718 39.9413 90.2564 40.6089C90.5324 40.9339 90.8806 41.1908 91.2736 41.3596C91.6666 41.5284 92.0937 41.6044 92.5213 41.5817C92.9285 41.5975 93.3342 41.524 93.7095 41.3663C94.0847 41.2086 94.4203 40.9706 94.6922 40.6694C95.2573 40.0765 95.5655 39.2871 95.5505 38.471V37.3279H92.9311V36.2727ZM104.826 35.3164C105.313 36.2349 105.528 37.2715 105.447 38.3062C105.496 39.3279 105.24 40.3413 104.71 41.219C104.4 41.676 103.974 42.0443 103.476 42.2873C102.977 42.5303 102.423 42.6395 101.869 42.6039C101.371 42.6383 100.871 42.5534 100.412 42.3564C99.9536 42.1594 99.5492 41.8561 99.2332 41.4718C98.7163 40.8013 98.4579 39.7369 98.4579 38.2787C98.4101 37.3004 98.6425 36.3286 99.1279 35.4758C99.4343 34.9851 99.8678 34.5851 100.383 34.3173C100.898 34.0495 101.477 33.9239 102.057 33.9534C102.601 33.9136 103.145 34.0202 103.633 34.2621C104.12 34.5039 104.532 34.872 104.826 35.3274V35.3164ZM104.345 38.2732C104.387 37.5231 104.265 36.7728 103.985 36.0748C103.817 35.697 103.538 35.3786 103.184 35.1617C102.83 34.9448 102.418 34.8397 102.002 34.8603C101.607 34.8461 101.216 34.9415 100.873 35.1357C100.529 35.3298 100.247 35.6151 100.058 35.9594C99.6775 36.6678 99.4994 37.466 99.5433 38.2677C99.4957 39.073 99.6679 39.8761 100.042 40.5925C100.234 40.9125 100.51 41.175 100.841 41.3521C101.171 41.5291 101.544 41.6142 101.919 41.5982C102.345 41.6287 102.769 41.5264 103.134 41.3057C103.498 41.085 103.784 40.7569 103.951 40.3671C104.236 39.7102 104.37 38.9988 104.345 38.2842V38.2732ZM108.564 40.4715V30.1118H107.457V40.6254C107.457 41.8675 108.143 42.4885 109.506 42.4885H109.949V41.5158H109.672C108.935 41.5158 108.564 41.175 108.564 40.5045V40.4715ZM117.702 36.6079V42.4885H116.594V41.6696C116.195 42.2962 115.32 42.6149 113.98 42.6149C113.196 42.6541 112.423 42.4209 111.793 41.9554C111.513 41.7395 111.29 41.4601 111.141 41.1407C110.993 40.8213 110.924 40.4712 110.94 40.1198C110.929 39.7959 110.987 39.4732 111.11 39.173C111.233 38.8728 111.419 38.6018 111.654 38.3776C112.212 37.8913 112.941 37.6442 113.681 37.6906H116.594V36.5915C116.594 35.4923 115.858 34.9427 114.379 34.9427C113.976 34.9153 113.571 34.9704 113.19 35.1046C112.809 35.2389 112.46 35.4494 112.164 35.7231L111.477 34.9922C111.857 34.6206 112.312 34.3334 112.813 34.1496C113.313 33.9658 113.847 33.8896 114.379 33.926C116.594 33.926 117.702 34.82 117.702 36.6079ZM116.594 38.592H113.942C113.429 38.5603 112.919 38.6954 112.491 38.9767C112.32 39.1037 112.184 39.2705 112.094 39.4623C112.005 39.654 111.964 39.8647 111.976 40.0758C111.966 40.2977 112.011 40.5186 112.108 40.7189C112.204 40.9192 112.349 41.0929 112.529 41.2245C112.992 41.5201 113.537 41.6625 114.086 41.6312C114.695 41.6482 115.3 41.516 115.847 41.2465C116.088 41.1264 116.287 40.938 116.421 40.7051C116.554 40.4723 116.614 40.2054 116.594 39.9384V38.592ZM121.49 41.219C121.333 40.9491 121.258 40.6399 121.274 40.3287V34.9317H122.719V34.0084H121.274V31.81H120.166V34.0084H119.059V34.9317H120.166V40.5045C120.131 41.0385 120.304 41.5656 120.648 41.9774C120.831 42.1555 121.05 42.2932 121.29 42.3813C121.531 42.4693 121.788 42.5059 122.043 42.4885H122.963V41.5158H122.326C122.173 41.5389 122.016 41.5239 121.87 41.4721C121.724 41.4203 121.593 41.3333 121.49 41.219ZM131.175 38.3446C131.217 39.3535 130.961 40.3524 130.439 41.219C130.127 41.6764 129.701 42.045 129.201 42.288C128.702 42.531 128.147 42.6399 127.592 42.6039C127.094 42.6383 126.596 42.5534 126.138 42.3564C125.68 42.1594 125.277 41.856 124.962 41.4718C124.441 40.8013 124.187 39.7351 124.187 38.2787C124.139 37.3004 124.371 36.3286 124.857 35.4758C125.162 34.9843 125.595 34.5836 126.111 34.3157C126.626 34.0479 127.205 33.9227 127.786 33.9534C128.331 33.9147 128.876 34.023 129.363 34.2669C129.851 34.5107 130.262 34.881 130.555 35.3384C131.04 36.2536 131.255 37.2861 131.175 38.3172V38.3446ZM130.068 38.3117C130.111 37.5616 129.988 36.8113 129.708 36.1133C129.539 35.7359 129.26 35.4179 128.906 35.2012C128.552 34.9844 128.141 34.8789 127.725 34.8987C127.33 34.8846 126.939 34.98 126.596 35.1741C126.253 35.3683 125.97 35.6535 125.781 35.9979C125.401 36.7062 125.222 37.5045 125.266 38.3062C125.219 39.1115 125.391 39.9146 125.765 40.6309C125.962 40.9512 126.244 41.212 126.58 41.3853C126.915 41.5587 127.292 41.638 127.67 41.6147C128.096 41.6452 128.52 41.5429 128.885 41.3222C129.249 41.1015 129.535 40.7733 129.702 40.3836C129.978 39.7189 130.105 39.0024 130.073 38.2842L130.068 38.3117Z" fill="#AFAEB1"/>
<path d="M85.2831 16.2623C85.3377 17.1467 85.2038 18.0325 84.8899 18.8619C84.6352 19.4115 84.0205 19.6478 83.0624 19.6478H81.4011V14.9378C81.4011 12.9373 80.9249 11.4186 79.9724 10.3817C79.4613 9.85236 78.8408 9.43918 78.1534 9.17068C77.466 8.90217 76.7282 8.78472 75.9907 8.82641C74.0857 8.82641 72.6255 9.41264 71.6103 10.5851C70.595 11.7575 70.0837 13.41 70.0763 15.5424C70.0763 17.7993 70.5987 19.4243 71.6435 20.4172C72.6901 21.4065 74.3127 21.9066 76.5112 21.9066H79.0642C79.0927 22.3727 79.0166 22.8393 78.8413 23.2727C78.6661 23.7061 78.396 24.0955 78.0507 24.4127C77.3146 25.0115 76.3823 25.3206 75.4314 25.2811H71.3223V27.5399H75.459C76.997 27.6029 78.5028 27.0911 79.6789 26.1055C80.7864 25.1492 81.3587 23.7459 81.3956 21.8956H83.0569C85.9587 21.8956 87.4096 20.3073 87.4096 17.1307V9.43645H85.2831V16.2623ZM79.1195 19.6478H76.1679C75.1405 19.7192 74.1244 19.3988 73.327 18.752C72.668 18.1529 72.3413 17.1032 72.3413 15.5699C72.3413 12.5984 73.5153 11.1127 75.8633 11.1127C78.0452 11.1127 79.1361 12.6076 79.1361 15.5973L79.1195 19.6478ZM85.5822 7.30955H83.284V5.02326H85.5822V7.30955ZM86.579 5.02326H88.855V7.30955H86.5568L86.579 5.02326ZM95.0684 16.8944H92.9087V2.74797H95.0463L95.0684 16.8944ZM98.8729 1.9126H101.01V15.7897C101.01 19.9775 99.0962 22.0715 95.2678 22.0715C94.3425 22.0704 93.427 21.8835 92.5764 21.5219C91.7816 21.2018 91.0698 20.7077 90.4942 20.0765L92.0226 18.2848C92.416 18.7319 92.8965 19.0954 93.4352 19.3532C93.9739 19.6111 94.5596 19.758 95.157 19.7852C95.6633 19.8242 96.1721 19.7557 96.6496 19.5842C97.127 19.4126 97.5622 19.142 97.9259 18.7904C98.5462 18.1364 98.8729 17.0373 98.8729 15.5149V1.9126ZM128.965 10.5191C128.029 9.38699 126.639 8.82641 124.79 8.82641C124.037 8.79149 123.285 8.91771 122.586 9.1965C121.886 9.47529 121.256 9.90014 120.736 10.4422C119.725 11.5473 119.188 13.0007 119.241 14.4927C119.241 17.3029 120.387 19.0286 122.68 19.6698V19.7797C122.074 19.7005 121.463 19.6638 120.852 19.6698H115.774V14.9378C115.774 12.9373 115.298 11.4186 114.346 10.3817C113.835 9.85236 113.214 9.43918 112.527 9.17068C111.839 8.90217 111.101 8.78472 110.364 8.82641C108.459 8.82641 106.997 9.41264 105.978 10.5851C104.959 11.7612 104.455 13.4155 104.455 15.5314C104.455 17.7884 104.977 19.4133 106.022 20.4062C107.063 21.3955 108.686 21.8956 110.89 21.8956H113.443C113.471 22.3617 113.395 22.8283 113.22 23.2617C113.045 23.6951 112.775 24.0845 112.429 24.4017C111.695 25.0044 110.762 25.3175 109.81 25.2811H105.701V27.5399H109.838C111.374 27.6026 112.878 27.0907 114.052 26.1055C115.16 25.1492 115.734 23.7459 115.774 21.8956H124.762C128.476 21.8956 130.335 19.6973 130.339 15.3006C130.339 13.2414 129.872 11.6476 128.938 10.5191H128.965ZM113.498 19.6478H110.53C109.501 19.7184 108.483 19.3982 107.684 18.752C107.03 18.1529 106.698 17.1032 106.698 15.5699C106.698 12.5984 107.874 11.1127 110.225 11.1127C112.407 11.1127 113.498 12.6076 113.498 15.5973V19.6478ZM127.066 18.8784C123.374 18.512 121.528 17.0885 121.528 14.6081C121.496 13.7015 121.782 12.812 122.337 12.091C122.636 11.7418 123.014 11.4678 123.441 11.2911C123.867 11.1144 124.329 11.0401 124.79 11.0742C127.005 11.0742 128.113 12.4409 128.113 15.1742C128.116 16.9988 127.767 18.2335 127.066 18.8784ZM127.481 6.62256H125.205V4.33628H127.481V6.62256ZM124.208 6.62256H121.932V4.33628H124.208V6.62256Z" fill="#AFAEB1"/>
</g>
<defs>
<clipPath id="clip0_245_48591">
<rect width="130" height="44" fill="white" transform="translate(70.0752)"/>
</clipPath>
</defs>
</svg>
