<svg width="203" height="52" viewBox="0 0 203 52" fill="none" xmlns="http://www.w3.org/2000/svg">
<g clip-path="url(#clip0_245_48438)">
<g clip-path="url(#clip1_245_48438)">
<mask id="mask0_245_48438" style="mask-type:luminance" maskUnits="userSpaceOnUse" x="43" y="1" width="118" height="50">
<path d="M160.52 1.5979H43.5012V50.799H160.52V1.5979Z" fill="white"/>
</mask>
<g mask="url(#mask0_245_48438)">
<path d="M136.138 1.5979C154.626 1.5979 160.52 7.54468 160.52 26.1984C160.52 44.8522 154.626 50.799 136.138 50.799C117.649 50.799 111.755 44.8539 111.755 26.1984C111.755 7.54304 117.647 1.5979 136.138 1.5979Z" fill="#AFAEB1" fill-opacity="0.2"/>
<mask id="mask1_245_48438" style="mask-type:luminance" maskUnits="userSpaceOnUse" x="111" y="1" width="50" height="50">
<path d="M136.138 1.59839C154.626 1.59839 160.52 7.54517 160.52 26.1989C160.52 44.8527 154.626 50.7994 136.138 50.7994C117.649 50.7994 111.755 44.8527 111.755 26.1989C111.755 7.54517 117.647 1.59839 136.138 1.59839Z" fill="white"/>
</mask>
<g mask="url(#mask1_245_48438)">
<path d="M136.138 50.7998H111.755V26.1992C114.957 26.1992 118.128 26.8355 121.086 28.0719C124.044 29.3081 126.732 31.1201 128.996 33.4045C131.26 35.6889 133.056 38.4008 134.282 41.3855C135.507 44.3702 136.138 47.5691 136.138 50.7998Z" fill="#AFAEB1"/>
<path d="M137.092 1.59839C140.124 1.83613 142.96 3.20535 145.045 5.43881C147.131 7.67227 148.317 10.6097 148.371 13.6778C148.426 16.7457 147.345 19.7242 145.341 22.0318C143.336 24.3394 140.551 25.8105 137.529 26.1579C143.745 25.7995 149.589 23.0558 153.864 18.4894C158.138 13.9229 160.52 7.87967 160.52 1.59839H137.092Z" fill="#AFAEB1"/>
<path d="M123.906 13.8986C123.906 10.7932 125.067 7.80207 127.157 5.52213C129.247 3.24219 132.112 1.84108 135.18 1.59839H111.755V26.1989H135.18C132.112 25.9562 129.247 24.5551 127.157 22.2752C125.067 19.9953 123.906 17.0041 123.906 13.8986Z" fill="#AFAEB1"/>
</g>
<path fill-rule="evenodd" clip-rule="evenodd" d="M56.7981 43.9101H57.7441L59.0868 39.5099L60.4311 43.9101H61.382L63.1473 38.1207C62.8196 38.0044 62.4624 38.0044 62.1346 38.1207L60.9041 42.5488L59.5615 38.1207C59.2618 37.9977 58.9264 37.9977 58.6268 38.1207L57.2842 42.5488L56.0423 38.1207C55.7248 37.9912 55.3698 37.9912 55.0523 38.1207L56.7981 43.9101ZM100.749 40.138V40.2512L99.6336 40.3775C97.8 40.5612 96.901 41.1712 96.901 42.2881C96.901 43.2902 97.6862 44.0019 98.8354 44.0019C99.6677 44.0019 100.419 43.5886 100.749 42.9228V43.9068H101.706V40.1905C101.706 38.8506 100.731 38.024 99.349 38.024C98.1413 38.024 97.1969 38.7702 97.0262 39.9149C97.2952 40.0803 97.6147 40.1415 97.9251 40.0872C98.0047 39.3082 98.5624 38.8391 99.349 38.8391C100.191 38.8391 100.749 39.3426 100.749 40.1331V40.138ZM97.8683 42.27C97.8683 41.66 98.4713 41.2565 99.6336 41.1303L100.749 41.0039V41.286C100.749 42.4505 100.098 43.1983 98.9834 43.1983C98.3234 43.1983 97.8683 42.8195 97.8683 42.2767V42.27ZM85.5826 40.138V40.2512L84.4675 40.3775C82.6339 40.5612 81.7351 41.1712 81.7351 42.2881C81.7351 43.2902 82.5202 44.0019 83.6694 44.0019C84.5016 44.0019 85.2526 43.5886 85.5826 42.9228V43.9068H86.5384V40.1905C86.5384 38.8506 85.5713 38.024 84.1831 38.024C82.9753 38.024 82.0309 38.7702 81.8602 39.9149C82.1293 40.0803 82.4487 40.1415 82.7592 40.0872C82.8388 39.3082 83.3963 38.8391 84.1831 38.8391C85.0251 38.8391 85.5826 39.3426 85.5826 40.1331V40.138ZM82.7022 42.27C82.7022 41.66 83.3053 41.2565 84.4675 41.1303L85.5826 41.0039V41.286C85.5826 42.4505 84.9324 43.1983 83.8173 43.1983C83.1573 43.1983 82.7022 42.8195 82.7022 42.2767V42.27ZM67.5362 40.138V40.2512L66.4195 40.3775C64.5875 40.5612 63.6869 41.1712 63.6869 42.2881C63.6869 43.2902 64.4722 44.0019 65.623 44.0019C66.4536 44.0019 67.2062 43.5886 67.5362 42.9228V43.9068H68.492V40.1905C68.492 38.8506 67.5167 38.024 66.1351 38.024C64.9288 38.024 63.9828 38.7702 63.8122 39.9149C64.0816 40.0808 64.4017 40.142 64.7127 40.0872C64.7924 39.3082 65.3499 38.8391 66.1351 38.8391C66.977 38.8391 67.5362 39.3426 67.5362 40.1331V40.138ZM64.6558 42.27C64.6558 41.66 65.2588 41.2565 66.4195 41.1303L67.5362 41.0039V41.286C67.5362 42.4505 66.886 43.1983 65.7709 43.1983C65.111 43.1983 64.6558 42.8195 64.6558 42.2767V42.27ZM89.0774 35.8739C88.767 35.7484 88.4207 35.7484 88.1103 35.8739V43.9101H89.0857C89.0857 41.2303 89.0857 38.5515 89.0857 35.8739H89.0774ZM43.8737 36.7956C43.755 36.4966 43.755 36.163 43.8737 35.8641H49.7986C49.9173 36.163 49.9173 36.4966 49.7986 36.7956H47.3604V43.9101H46.3233V36.794L43.8737 36.7956ZM91.6132 38.1077C91.3053 37.9844 90.9622 37.9844 90.6542 38.1077V43.9101H91.6165V41.3664C91.6165 39.8396 92.3009 38.9064 93.3704 38.9064C94.1832 38.9064 94.6708 39.4705 94.6708 40.2512V43.9101H95.6462V40.0692C95.6462 38.8391 94.7928 38.024 93.5963 38.024C93.1917 38.0246 92.7947 38.1347 92.4465 38.3426C92.0984 38.5506 91.8117 38.8489 91.6165 39.2065V38.1175L91.6132 38.1077ZM71.0425 35.8739C70.7292 35.7484 70.3803 35.7484 70.0671 35.8739V43.9101H71.0425V41.7617L71.8064 41.0613L73.9683 43.9101H75.1761L72.5232 40.4069L74.9827 38.1207H73.6953L71.0425 40.466V35.8739ZM77.0894 35.8739C76.776 35.749 76.4274 35.749 76.114 35.8739V43.9101H77.0894V41.7617L77.8516 41.0613L80.0152 43.9101H81.2214L78.5686 40.4069L81.0279 38.1207H79.7503L77.0894 40.466V35.8739ZM53.2545 40.138V40.2512L52.1394 40.3775C50.3058 40.5612 49.4053 41.1712 49.4053 42.2881C49.4053 43.2902 50.192 44.0019 51.3412 44.0019C52.1735 44.0019 52.9245 43.5886 53.2545 42.9228V43.9068H54.2102V40.1905C54.2102 38.8506 53.2431 38.024 51.8533 38.024C50.6472 38.024 49.7027 38.7702 49.5304 39.9149C49.8002 40.08 50.12 40.1412 50.431 40.0872C50.5106 39.3082 51.0682 38.8391 51.8533 38.8391C52.6969 38.8391 53.2545 39.3426 53.2545 40.1331V40.138ZM50.3659 42.27C50.3659 41.66 50.969 41.2565 52.1312 41.1303L53.2464 41.0039V41.286C53.2464 42.4505 52.5961 43.1983 51.481 43.1983C50.8162 43.1934 50.3659 42.8146 50.3659 42.27Z" fill="#AFAEB1"/>
<path fill-rule="evenodd" clip-rule="evenodd" d="M98.496 12.533C100.401 12.533 100.401 9.61206 98.496 9.61206C96.5909 9.61206 96.5909 12.533 98.496 12.533Z" fill="#AFAEB1"/>
<path fill-rule="evenodd" clip-rule="evenodd" d="M53.3199 12.5181C55.225 12.5181 55.225 9.59888 53.3199 9.59888C51.4148 9.59888 51.4148 12.5181 53.3199 12.5181Z" fill="#AFAEB1"/>
<path fill-rule="evenodd" clip-rule="evenodd" d="M99.5589 15.1706C99.5589 17.8554 99.5589 20.5483 99.5589 23.2348C99.5615 23.6817 99.3881 24.1112 99.0769 24.4292C98.7657 24.7471 98.3421 24.9275 97.8992 24.9305H92.795V20.5024C92.795 15.7546 87.0294 13.0829 83.585 16.6304C81.6587 18.6147 81.9952 20.7501 81.9952 23.302C81.9999 24.3035 82.3973 25.2624 83.1006 25.9692C83.8039 26.676 84.7559 27.0732 85.7485 27.0741H90.7469L90.282 28.0204C89.731 29.1454 88.6387 29.7391 87.4131 29.7391H83.9864C83.7177 30.4239 83.7177 31.1864 83.9864 31.8712H87.4131C89.8968 31.8712 92.1595 30.0147 92.7008 27.5776L92.8162 27.0659H97.9122C98.4093 27.0637 98.9013 26.9627 99.3596 26.7686C99.8181 26.5745 100.234 26.2912 100.584 25.9348C100.934 25.5784 101.21 25.1558 101.398 24.6914C101.586 24.227 101.681 23.7298 101.678 23.2282V15.1706C100.998 14.8969 100.239 14.8969 99.5589 15.1706ZM90.6738 24.9305H85.7534C85.5382 24.9321 85.3248 24.8905 85.1256 24.8081C84.9264 24.7258 84.7454 24.6042 84.5931 24.4508C84.4409 24.2973 84.3203 24.1148 84.2385 23.914C84.1567 23.7132 84.1152 23.4978 84.1165 23.2807V20.5648C84.1137 20.1072 84.2004 19.6535 84.3717 19.2298C85.7875 15.7546 90.6738 16.9042 90.6738 20.5009V24.9305Z" fill="#AFAEB1"/>
<path fill-rule="evenodd" clip-rule="evenodd" d="M102.722 9.61206C100.816 9.61206 100.816 12.533 102.722 12.533C104.627 12.533 104.622 9.61206 102.722 9.61206Z" fill="#AFAEB1"/>
<path fill-rule="evenodd" clip-rule="evenodd" d="M73.1255 18.5019H68.4945C70.4662 15.6007 72.6834 12.5502 74.5982 9.6096C74.1789 9.01221 73.5512 8.59685 72.8411 8.4468C70.6726 11.6564 68.4522 14.8938 66.2739 18.123V20.688H68.4181C69.8014 20.688 71.001 20.688 71.9941 20.6782H72.012H73.3124C76.1489 20.6782 77.1372 21.9493 77.1372 24.9325H64.5672C64.5461 24.9307 64.525 24.9307 64.5038 24.9325H63.4114C63.4114 19.4908 63.3839 14.0492 63.3839 8.60588C62.7051 8.33463 61.9494 8.33463 61.2707 8.60588C61.2707 14.0497 61.2707 19.4919 61.2707 24.9325C60.1329 24.9325 57.3353 24.921 56.1942 24.921C55.0531 24.921 54.507 24.3306 54.507 22.7053V15.686C53.8282 15.4147 53.0725 15.4147 52.3938 15.686V22.6512C52.3938 24.4929 51.6964 24.9177 50.3245 24.9177C49.2305 24.9177 48.4015 24.9292 47.3075 24.9292C46.3777 24.9292 45.63 24.8537 45.63 23.9123C45.63 19.0299 45.63 13.4834 45.63 8.60261C44.9513 8.33136 44.1956 8.33136 43.5168 8.60261V23.9255C43.5022 26.033 44.1345 27.0711 46.2103 27.0711C47.5205 27.0711 49.6548 27.0579 50.9649 27.0579C52.2751 27.0579 52.7823 26.8005 53.3739 25.8936C53.8974 26.7873 55.162 27.0579 56.2511 27.0579H64.494C64.5181 27.0633 64.5426 27.066 64.5672 27.0661H79.5609C79.626 26.2576 79.6585 25.9542 79.6585 25.4261C79.6585 19.7171 77.568 18.5019 73.1255 18.5019Z" fill="#AFAEB1"/>
</g>
</g>
</g>
<defs>
<clipPath id="clip0_245_48438">
<rect width="202.137" height="50.63" fill="white" transform="translate(0.49707 0.685059)"/>
</clipPath>
<clipPath id="clip1_245_48438">
<rect width="118.137" height="50.63" fill="white" transform="translate(42.4971 0.685059)"/>
</clipPath>
</defs>
</svg>
