<svg width="264" height="50" viewBox="0 0 264 50" fill="none" xmlns="http://www.w3.org/2000/svg">
<g clip-path="url(#clip0_245_48565)">
<path d="M118.126 23.9495C118.18 23.9495 118.235 24.0583 118.126 23.9495V23.9495Z" fill="#AFAEB1"/>
<path d="M117.886 23.677C117.658 23.481 117.81 23.6117 117.886 23.677V23.677Z" fill="#AFAEB1"/>
<path d="M122.469 17.8532C122.308 17.0201 121.889 16.2587 121.272 15.6759C120.442 14.7803 119.502 13.9938 118.474 13.3354C117.745 12.8565 116.983 12.421 116.221 12.0182L118.877 11.1582L122.306 10.0696H122.415C122.415 10.0696 122.415 10.0696 122.469 10.0696C122.524 10.0696 122.469 9.99342 122.469 9.91722V9.79747C122.36 9.58924 122.221 9.39848 122.056 9.23139C121.813 8.93608 121.526 8.67918 121.207 8.46937C121.135 8.41772 121.053 8.38076 120.967 8.36051L118.561 7.52228L112.705 5.53013L105.748 3.10253L99.7283 1.01241L97.758 0.326582C97.4536 0.196736 97.1408 0.087626 96.8218 0C96.6551 0.0114193 96.4922 0.0558216 96.3428 0.130633L94.8405 0.653165L89.3975 2.54734L82.4521 4.96405L76.1818 7.14127L72.7744 8.32785L72.5785 8.38228C72.4043 8.44759 73.101 9.23139 73.1228 9.24228C73.3863 9.58272 73.7305 9.85209 74.1243 10.0261L76.5301 10.799L78.5114 11.4304C78.0215 11.6699 77.5425 11.9203 77.0526 12.1815C76.1173 12.6691 75.2218 13.2296 74.3747 13.858C73.737 14.3159 73.206 14.9064 72.818 15.5889C72.6811 15.8514 72.6066 16.142 72.6002 16.438V19.4861L74.1678 19.9977C73.1729 21.2847 72.6159 22.8565 72.5785 24.4828C72.607 24.6137 72.671 24.7342 72.7635 24.8311C72.8506 24.9509 72.9486 25.0706 73.0357 25.1686L73.1228 25.2557C73.328 25.4992 73.5705 25.7086 73.8412 25.8762C73.0933 27.5772 72.6829 29.4073 72.6329 31.2648C72.6329 31.6676 72.6329 32.0813 72.6329 32.4949C72.6614 32.6258 72.7254 32.7464 72.818 32.8433C72.905 32.963 73.003 33.0828 73.0901 33.1808L73.1772 33.2678C72.8131 35.1301 72.6128 37.0206 72.5785 38.9177C72.5785 39.4511 72.5785 40.0063 72.5785 40.5071C72.607 40.638 72.671 40.7585 72.7635 40.8554C72.8506 40.9752 72.9486 41.0949 73.0357 41.1929L73.1228 41.28C73.3825 41.6046 73.7193 41.8591 74.1025 42.0203L76.5083 42.7932L82.3759 44.72L89.3321 46.9625L95.3521 48.9002L97.3225 49.5425C97.6257 49.6666 97.9389 49.765 98.2587 49.8365C98.4254 49.8337 98.5893 49.7928 98.7377 49.7167L100.24 49.2377L105.683 47.4742L112.628 45.2316L118.866 43.2177L122.295 42.1291H122.458V42.0529C122.528 39.4613 122.29 36.8706 121.751 34.3347L122.284 34.1605H122.448V34.0843C122.51 31.5132 121.914 28.9689 120.717 26.6927L122.284 26.1266H122.448V26.0504C122.357 23.9217 121.49 21.8999 120.009 20.3678L122.458 19.5732L122.469 17.8532ZM115.622 22.0008C116.003 22.2403 116.384 22.4906 116.711 22.7519H116.765L116.863 22.8281L117.113 23.0132L117.396 23.2418L117.494 23.318H117.429L117.516 23.3833L117.756 23.601L117.875 23.7099L118.06 23.9058C118.057 23.9237 118.057 23.9423 118.06 23.9603L118.148 24.0582C118.213 24.1344 118.278 24.2215 118.344 24.2868C118.104 24.0365 118.344 24.3413 118.442 24.4175C118.495 24.4744 118.542 24.5363 118.583 24.6025V24.6678L118.714 24.8529L118.833 25.0597L116.123 25.9415C114.597 24.8737 112.992 23.9239 111.322 23.1003L115.285 21.7722L115.622 22.0008ZM117.941 28.1623C118.017 28.2385 118.246 28.5542 118.006 28.2276C118.115 28.38 118.235 28.5106 118.344 28.6522L118.409 28.7392C118.409 28.8372 118.529 28.9243 118.594 29.0223L118.746 29.2618L118.823 29.3815C118.92 29.5557 119.008 29.7299 119.095 29.9149C119.492 30.7164 119.799 31.5599 120.009 32.4296C120.009 32.5058 120.009 32.582 120.009 32.6582L119.389 32.8542L116.123 33.9428L106.695 37.0127L98.52 39.6471C97.943 39.8321 97.3443 39.9954 96.7782 40.2132H96.6802L96.0053 39.9954L88.9076 37.6332L79.1863 34.5089L75.2347 33.2352C75.3435 32.9086 75.4524 32.582 75.583 32.2554C76.3271 30.4275 77.5445 28.8306 79.1101 27.6289L82.3759 28.7175L89.3321 30.96L95.3521 32.9086L97.3225 33.54C97.6255 33.6677 97.9387 33.7696 98.2587 33.8448C98.4123 33.8401 98.5636 33.8068 98.705 33.7468L100.207 33.257L105.65 31.4934L112.596 29.2618L117.396 27.7051L117.505 27.8139C117.592 27.8901 117.886 28.184 117.56 27.8139L117.919 28.1732L117.81 28.0643L117.941 28.1623ZM87.4271 14.2934L89.2233 14.8704C88.2435 15.5453 87.2311 16.1767 86.1969 16.7537C85.1628 17.3306 84.4116 17.6899 83.5081 18.1471L81.1023 17.4177L82.0058 16.9387C83.7802 16.0243 85.6309 15.2514 87.4488 14.3587L87.4271 14.2934ZM110.288 23.5139L112.933 24.9182C113.347 25.1251 113.76 25.3428 114.163 25.5714L114.729 25.8871L115.002 26.0395L115.132 26.1157H115.187L114.686 26.279L105.422 29.3924L97.9648 31.7873L97.0613 32.0813L96.7891 32.1792H96.7238C96.6528 32.1525 96.58 32.1307 96.5061 32.1139L95.6461 31.8309L88.3415 29.4795L80.1987 26.8233C81.9623 25.6585 83.8891 24.7332 85.7615 23.7425L97.5076 27.5309L110.179 23.4486L110.288 23.5139ZM91.9013 15.7413L92.8592 16.0461C91.4595 17.401 89.9361 18.6219 88.3088 19.6929L86.4582 19.0942L87.0896 18.7676C88.763 17.8739 90.3709 16.8626 91.9013 15.7413ZM99.3691 11.3324C100.414 12.3557 101.503 13.3246 102.635 14.239L100.055 15.0772L99.8916 14.8595L99.6304 14.5438L99.5215 14.3805C99.38 14.1846 99.2385 13.9995 99.1078 13.7927L98.803 13.3137C98.4479 12.5546 98.2728 11.7239 98.2914 10.8861V10.2547C98.705 10.6248 98.999 10.984 99.3691 11.3324ZM97.4967 14.0757C97.6709 13.8144 97.845 13.5423 97.9975 13.2701C98.4764 13.9451 98.999 14.6091 99.5433 15.2405L97.7035 15.8284C97.3987 15.9263 97.0613 16.0025 96.7564 16.1332C96.6485 16.084 96.5353 16.0474 96.419 16.0243L96.125 15.9263C96.6193 15.3378 97.0773 14.7197 97.4967 14.0757ZM95.3195 16.8408L97.2899 17.4722C97.5928 17.5998 97.906 17.7018 98.2261 17.777C98.3921 17.7696 98.555 17.7288 98.705 17.6572L100.207 17.1782L101.089 16.8843C101.623 17.4177 102.178 17.9729 102.733 18.4192C103.473 19.0615 104.246 19.6603 105.041 20.2372L97.5185 22.6648L90.9868 20.5638C92.5413 19.4699 93.9818 18.2227 95.2868 16.8408H95.3195ZM104.682 19.2575L104.388 19.0397L104.246 18.9309L103.647 18.4737L103.081 18.0165L102.907 17.864L102.689 17.6899L102.189 17.2435L101.971 17.0367L101.873 16.9496L101.71 16.7863L104.725 15.8066C104.997 16.0134 105.28 16.2094 105.563 16.4053C106.872 17.2968 108.231 18.1109 109.635 18.8438L105.879 20.063C105.451 19.7873 105.041 19.5187 104.649 19.2575H104.682ZM103.245 14.043L102.776 13.6947L101.884 12.9762L101.688 12.8129L101.546 12.6932L101.209 12.3992C100.958 12.1924 100.719 11.9747 100.479 11.757L100.153 11.4522L100 11.3106C99.6413 10.9623 99.282 10.6139 98.9119 10.222C98.8371 10.1712 98.7678 10.1128 98.705 10.0478V9.97165L98.3785 9.6124V7.22835C101.077 9.27563 103.878 11.1832 106.772 12.9435L105.803 13.2484L103.245 14.043ZM94.3506 14.4458C94.1438 14.6853 93.9369 14.9248 93.7192 15.1534L92.9899 14.9139C93.6104 14.4241 94.2091 13.9233 94.7969 13.4116C95.1997 13.0524 95.6025 12.6932 95.9835 12.323C95.4875 13.0665 94.9419 13.7756 94.3506 14.4458ZM110.68 18.4301L108.6 17.4177C107.512 16.8408 106.423 16.2094 105.335 15.5235L105.661 15.4256L109.123 14.337C110.081 14.8159 111.061 15.2623 112.04 15.7195C113.02 16.1767 113.837 16.5686 114.708 17.0258L114.871 17.102L110.68 18.4301ZM107.664 12.6278C105.608 11.5277 103.622 10.2988 101.72 8.94835C100.632 8.19722 99.5433 7.4243 98.4547 6.64051L98.3132 6.53165V4.41975C101.002 5.78051 103.691 7.15215 106.358 8.55646C106.902 8.83949 107.447 9.1443 107.98 9.41646C108.513 9.68861 109.069 9.88456 109.548 10.1023L112.171 11.1909L107.664 12.6278ZM96.702 5.50835C95.4392 6.42278 94.2418 7.31544 93.0007 8.18633C90.8564 9.73703 88.6167 11.1514 86.2949 12.421L85.8921 12.6278L83.1053 11.7243L83.5516 11.5392C85.1845 10.8425 86.8719 10.2438 88.4721 9.47089C89.1471 9.1443 89.8002 8.76329 90.4643 8.38228L93.5777 6.77114L96.5278 5.27975L96.6802 5.21443L96.702 5.50835ZM93.8934 10.3091C94.7752 9.69949 95.6569 9.07899 96.5278 8.44759C95.6989 9.39785 94.8157 10.2992 93.8825 11.1473C92.7619 12.1846 91.5844 13.1586 90.3554 14.0648L89.4301 13.7709L88.8096 13.5641C90.5623 12.5843 92.2387 11.4413 93.8934 10.3091ZM82.8331 22.7954C81.367 23.5319 79.9391 24.3422 78.5549 25.223C78.1957 25.4516 77.8473 25.702 77.4663 25.9524L76.5845 25.6694C77.7165 24.2465 79.1002 23.0435 80.6668 22.1205L82.8331 22.7954ZM76.5301 26.8124C76.0207 27.3018 75.5578 27.8375 75.1476 28.4127C75.3773 27.7971 75.6615 27.2033 75.9967 26.6382L76.5301 26.8124ZM117.146 13.4443C117.582 13.662 118.006 13.8906 118.42 14.1301L118.572 14.2281H118.67L118.877 14.3587L119.465 14.7289L119.955 15.0663H120.02C120.097 15.1183 120.17 15.1766 120.238 15.2405L115.807 16.7646C115.11 16.3182 114.392 15.8937 113.63 15.5127C112.541 14.9357 111.453 14.4241 110.364 13.9015L112.628 13.1722L115.034 12.4101C115.709 12.7367 116.438 13.0633 117.146 13.4443ZM100.164 2.30785L105.607 4.20203L112.53 6.60785L118.779 8.78506L119.16 8.92658L118.409 9.16608L113.521 10.7337L112.128 10.1241C110.408 9.3838 108.622 8.74152 106.924 7.94684C106.271 7.65291 105.661 7.28278 105.03 6.9562C104.007 6.4119 102.972 5.86759 101.938 5.34506L98.2914 3.48354V1.6438C98.3965 1.70207 98.5105 1.74253 98.6288 1.76354L100.164 2.30785ZM76.2144 9.51443L75.8987 9.41646L76.5845 9.17696L82.3759 7.17392L89.343 4.75722L95.363 2.66709L96.702 2.17722V2.74329C96.5169 2.81949 96.3428 2.92835 96.1686 3.01544L93.7192 4.27823C91.7053 5.30152 89.6805 6.32481 87.6883 7.40253C86.3128 8.09747 84.9032 8.7224 83.4645 9.27494C82.3759 9.79747 81.1676 10.222 80.0354 10.7337L76.2144 9.51443ZM77.303 14.5982C78.6714 13.7847 80.0894 13.0575 81.5486 12.421L82.3324 12.6823L84.4443 13.3572C82.3197 14.2789 80.2481 15.3183 78.2392 16.4706L75.8443 15.6651C76.3132 15.2814 76.8039 14.9252 77.3139 14.5982H77.303ZM78.0215 21.2387C76.885 22.0199 75.8784 22.9751 75.0387 24.0691C74.821 24.363 74.6359 24.657 74.4509 24.9509H74.3747C74.6564 23.3678 75.4162 21.9089 76.5519 20.7706L78.0215 21.2387ZM120.804 39.843V40.1261C120.804 40.1261 120.804 40.3656 120.804 40.4091H120.749C120.673 40.4442 120.593 40.4699 120.51 40.4853L119.519 40.8119L110.985 43.5661L100.871 46.8319L97.6056 47.9205L96.8218 48.1818H96.7673H96.6911C96.4625 48.0838 96.2121 48.0294 95.9835 47.9532L94.6228 47.5177L90.5623 46.2114L80.1987 42.8258L74.2549 40.9316C74.2317 38.7065 74.4618 36.486 74.9407 34.3129L76.5628 34.8354L82.3759 36.697L89.3321 38.9395L95.3521 40.8881L97.3225 41.5195C97.6255 41.6472 97.9387 41.7491 98.2587 41.8243C98.4248 41.8169 98.5876 41.7761 98.7377 41.7046L100.24 41.2256L105.683 39.462L112.628 37.2195L118.866 35.2056L120.477 34.6939C120.7 36.4011 120.81 38.1213 120.804 39.843ZM120.499 28.957C120.612 29.5617 120.692 30.1723 120.738 30.7858C120.738 30.9709 120.738 31.1668 120.738 31.3628C120.036 29.8953 119.074 28.5675 117.897 27.4438L118.823 27.1499L119.911 26.8124C120.161 27.5245 120.351 28.2565 120.477 29.0005L120.499 28.957ZM119.53 20.4549L119.661 20.6291L119.824 20.8795L119.889 20.9884C119.891 21.021 119.891 21.0537 119.889 21.0863C119.955 21.1952 120.009 21.3041 120.064 21.4129C120.456 22.2162 120.686 23.0894 120.738 23.982C120.738 24.1127 120.804 24.3195 120.738 24.3848C120.674 24.3945 120.607 24.3945 120.543 24.3848L119.454 24.7223C118.453 23.482 117.289 22.3834 115.992 21.4565L119.41 20.3678L119.53 20.4549Z" fill="#AFAEB1"/>
<path d="M138.306 31.0167C137.606 31.0129 136.912 31.154 136.273 31.4304C135.634 31.7068 135.065 32.1121 134.604 32.6186L134.772 32.8474C135.214 32.6541 135.69 32.5445 136.175 32.5243C138.068 32.5243 139.26 34.005 139.26 36.3877V41.7722H142.192V34.7993C142.224 34.2991 142.146 33.7981 141.963 33.3288C141.78 32.8595 141.496 32.4325 141.129 32.0757C140.762 31.7188 140.321 31.44 139.835 31.2576C139.349 31.0751 138.828 30.993 138.306 31.0167Z" fill="#AFAEB1"/>
<path d="M133.971 31.0127H131.439V41.7722H133.971V31.0127Z" fill="#AFAEB1"/>
<path d="M149.839 40.1203C148.282 40.1203 147.394 38.767 147.394 36.5341V31.0127H144.744V37.9279C144.702 38.423 144.759 38.9218 144.914 39.3917C145.068 39.8615 145.315 40.2919 145.638 40.6547C145.961 41.0174 146.353 41.3043 146.789 41.4968C147.225 41.6892 147.694 41.7827 148.166 41.7712C148.853 41.7568 149.526 41.5788 150.137 41.2506C150.747 40.9224 151.28 40.4526 151.692 39.8767L151.512 39.6602C151.003 39.9656 150.426 40.1243 149.839 40.1203Z" fill="#AFAEB1"/>
<path d="M154.857 31.0127H152.325V41.7722H154.857V31.0127Z" fill="#AFAEB1"/>
<path d="M162.534 35.0568C160.996 34.5828 159.67 34.1352 159.67 33.1609C159.665 32.984 159.701 32.8083 159.775 32.6475V32.5158H159.974C160.152 32.472 160.335 32.4499 160.518 32.45C161.034 32.45 161.544 32.5566 162.017 32.7628C162.49 32.969 162.914 33.2705 163.263 33.6481L163.342 33.7534L165.61 32.1735L165.491 32.055C165.144 31.7099 164.73 31.4394 164.273 31.2604C163.817 31.0814 163.329 30.9978 162.839 31.0149C162.267 31.0047 161.699 31.1171 161.175 31.3443C160.651 31.5715 160.183 31.9082 159.802 32.3315L159.656 32.5026H159.523C159.024 32.6108 158.572 32.8727 158.232 33.251C157.891 33.6292 157.68 34.1045 157.627 34.6092C157.627 36.3076 159.497 36.9132 161.3 37.5057C162.627 37.9402 163.953 38.3615 164.058 39.2173C164.08 39.5274 163.991 39.8352 163.806 40.0863L163.701 40.2311H163.488C163.281 40.2526 163.072 40.2526 162.865 40.2311C161.661 40.1933 160.517 39.6985 159.67 38.8487V38.7433L157.389 40.3364L157.508 40.4549C157.917 40.8714 158.406 41.2026 158.945 41.4287C159.485 41.6548 160.065 41.7714 160.651 41.7715C161.23 41.7823 161.806 41.6705 162.338 41.4435C162.871 41.2165 163.349 40.8795 163.74 40.4549L163.899 40.2969H164.085C164.31 40.2969 166.339 39.6518 166.246 37.7954C166.114 36.2023 164.297 35.623 162.534 35.0568Z" fill="#AFAEB1"/>
<path d="M173.735 40.12C172.037 40.12 171.054 38.7667 171.054 36.5339V31.0127H168.163V37.9278C168.116 38.424 168.18 38.9239 168.349 39.3947C168.518 39.8655 168.788 40.2966 169.142 40.6595C169.497 41.0224 169.926 41.3092 170.403 41.5007C170.88 41.6923 171.394 41.7843 171.911 41.7709C172.657 41.7564 173.39 41.5783 174.054 41.25C174.718 40.9217 175.295 40.452 175.743 39.8764L175.546 39.6598C174.995 39.9636 174.371 40.1223 173.735 40.12Z" fill="#AFAEB1"/>
<path d="M178.908 31.0127H176.376V41.7722H178.908V31.0127Z" fill="#AFAEB1"/>
<path d="M184.604 25.9495H181.439V41.7722H184.604V25.9495Z" fill="#AFAEB1"/>
<path d="M191.622 31.0127H189.084L184.604 36.3438L189.07 41.7722H192.832L187.541 35.497L191.622 31.0127Z" fill="#AFAEB1"/>
<path d="M159.92 24.0508V13.2913H157.144V22.1185H152.83H150.054H133.65L131.439 23.7171V24.0508H147.398H150.161H157.144H158.451H159.92Z" fill="#AFAEB1"/>
<path d="M164.82 18.8185C164.82 21.1079 163.926 22.422 162.38 22.422C161.8 22.4154 161.232 22.2473 160.732 21.9343L160.553 22.1511C160.961 22.7273 161.486 23.1976 162.091 23.5262C162.695 23.8548 163.362 24.0332 164.041 24.0477C164.514 24.0687 164.986 23.9827 165.425 23.7952C165.865 23.6077 166.261 23.3232 166.589 22.9604C166.917 22.5977 167.168 22.1651 167.325 21.6916C167.483 21.218 167.544 20.7142 167.503 20.2138V13.2913H164.82V18.8185Z" fill="#AFAEB1"/>
<path d="M168.781 8.58847C168.684 8.54847 168.579 8.52284 168.472 8.51271H168.369V8.43701C168.428 8.2822 168.458 8.12024 168.457 7.95733C168.457 6.69511 167.854 6.3291 167.339 6.3291C166.863 6.35037 166.413 6.52214 166.075 6.81113C165.739 7.10018 165.538 7.48606 165.513 7.89423C165.513 8.52537 165.999 8.87878 167.132 9.04284H167.324L167.177 9.14385C166.17 9.70068 165.087 10.15 163.953 10.4818L163.718 10.5702H163.968C164.315 10.6585 164.669 10.7218 165.028 10.7595C166.148 10.4669 167.161 9.93233 167.972 9.20695C168.053 9.22638 168.131 9.25176 168.207 9.28271L168.767 8.61372L168.781 8.58847ZM167.972 8.15929C167.985 8.23885 167.985 8.31961 167.972 8.39917C166.499 8.1467 166.161 7.73018 166.161 7.43986C166.161 7.14954 166.603 6.87182 167.044 6.87182C167.485 6.87182 167.972 7.43986 167.972 8.15929Z" fill="#AFAEB1"/>
<path d="M188.401 15.8158L186.192 13.2913L183.971 15.8158L186.192 18.3546L188.401 15.8158Z" fill="#AFAEB1"/>
<path d="M189.034 8.63442C188.937 8.5936 188.832 8.56752 188.725 8.55714H188.637V8.47992C188.684 8.31999 188.709 8.15562 188.71 7.99049C188.71 6.70258 188.107 6.3291 187.592 6.3291C187.117 6.35106 186.669 6.52676 186.334 6.82195C186 7.11714 185.803 7.51075 185.781 7.92613C185.781 8.57005 186.267 8.93068 187.401 9.09809H187.592L187.43 9.20113C186.423 9.76929 185.341 10.2277 184.206 10.5663L183.971 10.6564H184.221C184.566 10.714 184.915 10.7485 185.267 10.7595C186.346 10.478 187.327 9.96442 188.122 9.26549L188.342 9.34277L188.902 8.66018L189.034 8.63442ZM188.254 8.19657C188.267 8.27771 188.267 8.36011 188.254 8.44125C186.782 8.18366 186.444 7.75866 186.444 7.46246C186.444 7.16625 186.9 6.8829 187.342 6.8829C187.783 6.8829 188.225 7.46246 188.254 8.19657Z" fill="#AFAEB1"/>
<path d="M190.071 13.2913V21.8952H174.49C174.696 21.3594 174.796 20.789 174.787 20.2151V13.2913H172.013V18.8195C172.013 21.1094 171.083 22.4237 169.454 22.4237C168.839 22.4189 168.234 22.2506 167.704 21.9359L167.515 22.1527C167.947 22.7293 168.504 23.1997 169.143 23.5283C169.782 23.8568 170.487 24.0351 171.205 24.0496C171.827 24.0658 172.44 23.9134 172.983 23.6082C173.526 23.303 173.977 22.8563 174.289 22.3152L176.106 23.7786H192.832V13.2913H190.071Z" fill="#AFAEB1"/>
<path d="M145.077 15.1911C145.91 15.1476 146.74 15.3175 147.488 15.6844C148.235 16.0515 148.876 16.6032 149.348 17.2868C149.711 17.8804 149.93 18.5509 149.984 19.244C150.039 19.937 149.928 20.633 149.661 21.2756V21.4108L149.824 21.5189H149.919C150.788 21.043 151.48 20.3035 151.897 19.4083C152.313 18.5132 152.43 17.5093 152.231 16.5432C151.998 15.5619 151.421 14.6951 150.604 14.098C149.786 13.501 148.782 13.2127 147.77 13.2846H138.25L143.078 8.22778H140.426L135.87 13.4199L136.21 15.1911H145.077Z" fill="#AFAEB1"/>
</g>
<defs>
<clipPath id="clip0_245_48565">
<rect width="120.886" height="50" fill="white" transform="translate(71.9456)"/>
</clipPath>
</defs>
</svg>
