<svg width="69" height="50" viewBox="0 0 69 50" fill="none" xmlns="http://www.w3.org/2000/svg">
<path d="M23.7773 0.109901L17.3624 3.94998C16.9141 4.21878 16.6395 4.70093 16.6395 5.22147V10.7192V11.1192C16.6395 12.2915 16.2995 13.2622 15.1487 14.0782L9.34731 17.5513C8.47318 18.074 7.93905 19.0148 7.93905 20.0282V25.6848V36.2984L1.32574 40.2344C0.611426 40.66 0.173828 41.427 0.173828 42.2558V49.5807C0.173828 49.9061 0.530986 50.1066 0.81092 49.9392L14.9771 41.4729C15.745 41.0131 16.2159 40.1875 16.2159 39.2957V29.7937V15.6547V15.3379C16.2159 14.1624 16.8551 12.9667 17.7282 12.4109L18.2119 12.1709L18.4328 12.0963L24.1924 8.6786C24.6407 8.4098 24.9153 7.92766 24.9153 7.40711V0.75098C24.9164 0.168568 24.2782 -0.189838 23.7773 0.109901Z" fill="url(#paint0_linear_245_48425)"/>
<path d="M23.7772 0.109917L17.3623 3.94999C16.914 4.2188 16.6395 4.70094 16.6395 5.22149V10.7192V11.1192C16.6448 12.7747 16.1407 13.3784 15.1486 14.0782L9.34722 17.5513C8.47309 18.074 7.93896 19.0148 7.93896 20.0282V25.6848C10.4069 27.3969 13.1944 28.791 16.2147 29.7948V15.6548V15.338C16.2147 14.1625 16.7081 13.004 17.727 12.411L18.4317 12.0952L24.1912 8.67756C24.6396 8.40875 24.9141 7.92661 24.9141 7.40606V0.74993C24.9163 0.168585 24.2781 -0.189822 23.7772 0.109917Z" fill="url(#paint1_linear_245_48425)"/>
<path d="M24.9165 0.749033V7.40303C24.9165 7.45317 24.9143 7.50117 24.9068 7.55023C23.6326 8.08678 22.1869 8.38652 20.6542 8.38652C19.2159 8.38652 17.8559 8.12091 16.6396 7.64837V5.22059C16.6396 4.70004 16.9142 4.21683 17.3636 3.94803L23.7774 0.106887C24.2805 -0.190719 24.9165 0.166621 24.9165 0.749033Z" fill="url(#paint2_linear_245_48425)"/>
<path d="M68.4973 22.5006H55.6836C55.6182 22.5006 55.5581 22.5134 55.5012 22.5006H55.4819L53.9117 22.4313L53.8989 20.8121C53.8989 22.0409 52.1624 22.5038 50.6179 22.5038C50.5761 22.5038 50.5332 22.5028 50.4892 22.5006H48.076V22.506H43.3547V16.396H41.8885C41.1817 16.396 40.6347 16.573 40.2604 16.9229C39.885 17.2717 39.7016 17.7869 39.7016 18.4931V20.715C39.7016 22.6265 39.2715 24.0985 38.4199 25.0916C37.5597 26.0943 36.056 26.6031 33.9506 26.6031C32.2828 26.6031 30.9367 26.1604 29.9489 25.2879C28.9547 24.4057 28.4517 23.098 28.4517 21.3998C28.4517 20.0174 28.7391 18.444 29.3065 16.7213L29.3858 16.4824L31.2263 16.9848L31.1362 17.2525C30.6986 18.5283 30.4777 19.7827 30.4777 20.9817C30.4906 22.1113 30.7952 22.9358 31.4097 23.5033C32.0179 24.0697 32.907 24.3567 34.0461 24.3567C35.3546 24.3567 36.2759 24.0783 36.7821 23.5289C37.2948 22.971 37.5554 21.9673 37.5554 20.5411V18.2061C37.5554 16.9698 37.9136 15.9757 38.6183 15.2493C39.3251 14.5175 40.3462 14.1474 41.6579 14.1474H45.5384L45.5148 20.2574H47.1729V20.2563H49.7277C49.9648 20.2563 50.1728 20.236 50.3466 20.1944C50.5375 20.1486 50.6952 20.0622 50.8132 19.9374C50.929 19.8136 51.0137 19.6387 51.0641 19.4147C51.1113 19.2024 51.1349 18.939 51.1349 18.6296V14.2466H53.8002V18.0813C53.8002 18.6872 53.8838 20.1934 53.8838 20.1934L65.2614 20.2552C65.2614 20.2552 65.0136 19.0648 64.9632 18.7107C64.9246 18.3917 64.5042 16.6328 63.452 16.0557C63.0723 15.8477 62.5833 15.741 62.0009 15.741C61.8979 15.741 58.3649 15.7442 58.2609 15.7496L58.7393 14.1474C58.7714 14.1421 62.3473 14.1474 62.6069 14.1474C63.6633 14.1474 64.5213 14.3053 65.1574 14.6189C65.7902 14.9293 66.2943 15.3431 66.6557 15.8456C67.0214 16.3533 67.2874 16.9357 67.443 17.5789C67.6114 18.2371 67.7872 19.7048 68.4973 22.5006Z" fill="#AFAEB1"/>
<path d="M54.0296 11.3541L52.1687 9.55249L50.3765 11.3595L52.2127 13.1366L54.0296 11.3541Z" fill="#AFAEB1"/>
<path d="M65.6936 27.2779L67.5105 25.4955L65.6496 23.6938L63.8574 25.5008L65.6936 27.2779Z" fill="#AFAEB1"/>
<path d="M53.1942 31.1958H48.6509V40.1165H50.9815V32.9313H52.7255C54.2013 32.9313 55.1923 33.902 55.1923 35.3452V40.1165H57.523V35.3452C57.523 33.4518 56.7722 31.1958 53.1942 31.1958Z" fill="#AFAEB1"/>
<path d="M37.7612 35.7922C37.7612 38.4706 39.458 40.4141 41.7951 40.4141C41.8734 40.4141 41.9527 40.412 42.0332 40.4077C43.5819 40.3224 44.4571 39.6066 44.8883 38.9773V40.1165H47.2189V31.1958H42.09C39.5009 31.1958 37.7612 33.0433 37.7612 35.7922ZM44.8883 32.9313V35.7538C44.8883 37.4423 43.952 38.5762 42.5587 38.5762C41.1644 38.5762 40.1895 37.4242 40.1895 35.773C40.1895 34.1004 41.1633 32.9313 42.5587 32.9313H44.8883Z" fill="#AFAEB1"/>
<path d="M58.9258 35.7922C58.9258 38.4706 60.6226 40.4141 62.9596 40.4141C63.0379 40.4141 63.1173 40.412 63.1977 40.4077C64.7465 40.3224 65.6217 39.6056 66.0528 38.9773V40.1165H68.3835V31.1958H63.2546C60.6655 31.1958 58.9258 33.0433 58.9258 35.7922ZM66.0528 32.9313V35.7538C66.0528 37.4423 65.1165 38.5762 63.7233 38.5762C62.329 38.5762 61.354 37.4242 61.354 35.773C61.354 34.1004 62.3279 32.9313 63.7233 32.9313H66.0528Z" fill="#AFAEB1"/>
<path d="M34.3903 36.2274C34.3903 37.9224 33.6749 38.9346 32.4758 38.9346H32.4339C31.2799 38.9346 30.5838 38.029 30.5237 36.4493L30.5173 36.2839H28.4033L28.4076 36.4599C28.4805 39.1064 29.789 40.4483 32.2956 40.4483H32.6141C35.1957 40.4483 36.5043 39.0274 36.5043 36.2263V29.0688H34.3903V36.2274Z" fill="#AFAEB1"/>
<defs>
<linearGradient id="paint0_linear_245_48425" x1="12.5446" y1="0.00170898" x2="12.5266" y2="131" gradientUnits="userSpaceOnUse">
<stop stop-color="#AFAEB1"/>
<stop offset="0.99" stop-color="#4A4A4B" stop-opacity="0.98"/>
</linearGradient>
<linearGradient id="paint1_linear_245_48425" x1="16.4266" y1="0.00170898" x2="14.347" y2="164.766" gradientUnits="userSpaceOnUse">
<stop stop-color="#AFAEB1"/>
<stop offset="0.99" stop-color="#4A4A4B" stop-opacity="0.98"/>
</linearGradient>
<linearGradient id="paint2_linear_245_48425" x1="20.7781" y1="-0.000244141" x2="20.44" y2="46.3859" gradientUnits="userSpaceOnUse">
<stop stop-color="#AFAEB1"/>
<stop offset="0.99" stop-color="#4A4A4B" stop-opacity="0.98"/>
</linearGradient>
</defs>
</svg>
