<svg width="279" height="50" viewBox="0 0 279 50" fill="none" xmlns="http://www.w3.org/2000/svg">
<g clip-path="url(#clip0_245_48598)">
<path d="M67.7033 24.7496C67.7972 24.6244 67.9225 24.5931 68.173 24.6557L71.4918 25.7203C71.5857 25.7516 71.6484 25.8142 71.6484 25.8768C71.6484 25.9394 71.6484 26.0333 71.6171 26.096C71.3353 26.6595 71.0535 27.317 70.8343 28.0372C70.5838 28.7573 70.4586 29.5713 70.4586 30.448C70.4586 31.1681 70.5525 31.763 70.7717 32.264C70.9908 32.765 71.2413 33.1407 71.5857 33.4538C71.9301 33.7669 72.3059 33.9861 72.7129 34.1113C73.1199 34.2366 73.5583 34.2991 73.9966 34.2991C75.0298 34.2991 75.8439 34.0173 76.4388 33.4224C77.0337 32.8276 77.3155 31.9196 77.3155 30.6672V21.4934C77.3155 21.2742 77.4094 21.1803 77.6286 21.1803H81.3231C81.5423 21.1803 81.6362 21.2742 81.6362 21.4934V30.8551C81.6362 32.1388 81.4484 33.2346 81.0413 34.1426C80.6343 35.0506 80.102 35.802 79.4132 36.3656C78.7244 36.9605 77.9103 37.3675 76.9397 37.6493C76.0004 37.9311 74.9672 38.0563 73.9027 38.0563C72.8381 38.0563 71.8362 37.9311 70.8969 37.6493C69.9576 37.3675 69.1123 36.9605 68.3921 36.3656C67.672 35.7707 67.1084 35.0193 66.7014 34.1113C66.2944 33.172 66.0752 32.0762 66.0752 30.7924C66.0752 29.7592 66.2318 28.726 66.5135 27.6301C66.764 26.5969 67.171 25.6263 67.7033 24.7496ZM72.5563 18.8947C72.3372 18.8947 72.2432 18.8008 72.2432 18.5816V15.5758C72.2432 15.3566 72.3372 15.2627 72.5563 15.2627H76.3448C76.564 15.2627 76.6579 15.3566 76.6579 15.5758V18.5816C76.6579 18.8008 76.564 18.8947 76.3448 18.8947H72.5563Z" fill="#AFAEB1"/>
<path d="M87.6477 37.8371C87.4285 37.8371 87.3346 37.7432 87.3346 37.524V34.4244C87.3346 34.2052 87.4285 34.1113 87.6477 34.1113H91.1857C91.5928 34.1113 91.9685 34.0799 92.2816 34.0486C92.5947 33.986 92.8765 33.8921 93.1269 33.7042C93.3461 33.5164 93.534 33.2659 93.6905 32.9215C93.8158 32.5771 93.8784 32.1387 93.8784 31.5751H92.5947C91.3736 31.5751 90.2777 31.5125 89.3071 31.356C88.3365 31.1994 87.5225 30.9176 86.8336 30.448C86.1448 29.9783 85.6439 29.3521 85.2682 28.5068C84.9237 27.6927 84.7359 26.5656 84.7359 25.1879C84.7359 23.8729 84.9238 22.7771 85.2995 21.8691C85.6752 20.9611 86.1761 20.241 86.8023 19.7087C87.4285 19.1451 88.1487 18.7694 88.9314 18.5189C89.7455 18.2684 90.5595 18.1432 91.4362 18.1432C92.3442 18.1432 93.1896 18.2684 94.0036 18.4876C94.8177 18.7068 95.5378 19.0825 96.1327 19.6148C96.7589 20.147 97.2285 20.8358 97.573 21.7125C97.9174 22.5892 98.1052 23.685 98.1052 25.0001V32.1387C98.1052 34.0486 97.6356 35.4889 96.665 36.4282C95.6944 37.3675 94.1915 37.8371 92.125 37.8371H87.6477ZM91.4362 21.8377C90.5908 21.8377 89.9646 22.1196 89.5263 22.6832C89.088 23.2467 88.8688 24.0294 88.8688 25.0001C88.8688 26.1272 89.1193 26.8786 89.5889 27.2544C90.0586 27.6301 90.6848 27.8179 91.4675 27.8179H93.8158V24.8435C93.8784 22.871 93.0643 21.8377 91.4362 21.8377Z" fill="#AFAEB1"/>
<path d="M100.234 37.8372C100.015 37.8372 99.9212 37.7432 99.9212 37.5241V34.4244C99.9212 34.2053 100.015 34.1113 100.234 34.1113H100.923C101.768 34.1113 102.363 33.8921 102.708 33.4538C103.052 33.0154 103.24 32.3579 103.24 31.4812V18.926C103.24 18.7069 103.334 18.6129 103.553 18.6129H107.279C107.498 18.6129 107.592 18.7069 107.592 18.926V31.6378C107.592 33.7356 107.091 35.3011 106.121 36.303C105.15 37.3049 103.647 37.8058 101.643 37.8058H100.234V37.8372ZM103.522 15.5758C103.303 15.5758 103.209 15.4819 103.209 15.2627V12.257C103.209 12.0378 103.303 11.9439 103.522 11.9439H107.31C107.53 11.9439 107.623 12.0378 107.623 12.257V15.2627C107.623 15.4819 107.53 15.5758 107.31 15.5758H103.522Z" fill="#AFAEB1"/>
<path d="M119.521 24.7496C119.615 24.6244 119.74 24.5931 119.991 24.6557L123.31 25.7203C123.404 25.7516 123.466 25.8142 123.466 25.8768C123.466 25.9394 123.466 26.0333 123.435 26.096C123.153 26.6595 122.871 27.317 122.652 28.0372C122.402 28.7573 122.276 29.5713 122.276 30.448C122.276 31.1681 122.37 31.763 122.59 32.264C122.809 32.765 123.059 33.1407 123.404 33.4538C123.748 33.7669 124.124 33.9861 124.531 34.1113C124.938 34.2366 125.376 34.2991 125.814 34.2991C126.848 34.2991 127.662 34.0173 128.257 33.4224C128.852 32.8276 129.133 31.9196 129.133 30.6672V21.4934C129.133 21.2742 129.227 21.1803 129.446 21.1803H133.141C133.36 21.1803 133.454 21.2742 133.454 21.4934V30.8551C133.454 32.1388 133.266 33.2346 132.859 34.1426C132.452 35.0506 131.92 35.802 131.231 36.3656C130.542 36.9605 129.728 37.3675 128.758 37.6493C127.818 37.9311 126.785 38.0563 125.721 38.0563C124.656 38.0563 123.654 37.9311 122.715 37.6493C121.776 37.3675 120.93 36.9605 120.21 36.3656C119.49 35.7707 118.926 35.0193 118.519 34.1113C118.112 33.172 117.893 32.0762 117.893 30.7924C117.893 29.7592 118.05 28.726 118.331 27.6301C118.582 26.5969 118.989 25.6263 119.521 24.7496ZM124.374 18.8947C124.155 18.8947 124.061 18.8008 124.061 18.5816V15.5758C124.061 15.3566 124.155 15.2627 124.374 15.2627H128.163C128.382 15.2627 128.476 15.3566 128.476 15.5758V18.5816C128.476 18.8008 128.382 18.8947 128.163 18.8947H124.374Z" fill="#AFAEB1"/>
<path d="M139.466 37.8371C139.246 37.8371 139.153 37.7432 139.153 37.524V34.4244C139.153 34.2052 139.246 34.1113 139.466 34.1113H142.972C143.379 34.1113 143.755 34.0799 144.068 34.0486C144.381 33.986 144.663 33.8921 144.914 33.7042C145.133 33.5164 145.321 33.2659 145.477 32.9215C145.602 32.5771 145.665 32.1387 145.665 31.5751H144.413C143.191 31.5751 142.096 31.5125 141.125 31.356C140.154 31.1994 139.34 30.9176 138.652 30.448C137.963 29.9783 137.462 29.3521 137.086 28.5068C136.742 27.6927 136.554 26.5656 136.554 25.1879C136.554 23.8729 136.742 22.7771 137.117 21.8691C137.493 20.9611 137.994 20.241 138.62 19.7087C139.246 19.1451 139.967 18.7694 140.749 18.5189C141.563 18.2684 142.377 18.1432 143.254 18.1432C144.162 18.1432 145.007 18.2684 145.822 18.4876C146.636 18.7068 147.356 19.0825 147.951 19.6148C148.577 20.147 149.046 20.8358 149.391 21.7125C149.735 22.5892 149.923 23.685 149.923 25.0001V32.1387C149.923 34.0486 149.453 35.4889 148.483 36.4282C147.512 37.3675 146.009 37.8371 143.943 37.8371H139.466ZM143.254 21.8377C142.409 21.8377 141.783 22.1196 141.344 22.6832C140.906 23.2467 140.687 24.0294 140.687 25.0001C140.687 26.1272 140.937 26.8786 141.407 27.2544C141.876 27.6301 142.503 27.8179 143.285 27.8179H145.634V24.8435C145.696 22.871 144.882 21.8377 143.254 21.8377Z" fill="#AFAEB1"/>
<path d="M190.133 12.8987L175.261 27.7709C174.196 28.8354 174.948 30.6201 176.45 30.6201H181.241C181.366 30.6201 181.303 41.7977 181.272 46.9639C181.272 48.3728 182.399 49.5 183.808 49.5H190.352C191.73 49.5 192.857 48.3728 192.888 46.9952L193.045 14.0885C193.013 12.5856 191.197 11.8341 190.133 12.8987Z" fill="#AFAEB1"/>
<path d="M195.268 1.84634C192.732 0.969664 190.008 0.5 187.19 0.5C184.372 0.5 181.648 0.969664 179.112 1.84634C169.28 5.1965 162.173 14.5269 162.173 25.4853C162.173 35.4732 168.091 44.4591 177.264 48.4354C177.264 48.4354 177.264 48.4354 177.296 48.4354C178.172 48.8111 179.112 48.1537 179.112 47.2144V42.2987C179.112 41.8291 178.861 41.3908 178.454 41.1403C172.818 38.0093 169.249 32.0291 169.249 25.4853C169.249 18.5032 173.257 12.4291 179.112 9.48593C181.523 8.26484 184.278 7.57599 187.19 7.57599C190.102 7.57599 192.826 8.26484 195.268 9.48593C201.123 12.4291 205.13 18.5032 205.13 25.4853C205.13 31.7786 201.905 37.5083 196.52 40.7958C196.332 40.9211 196.113 41.0463 195.925 41.1403C195.518 41.3594 195.268 41.8291 195.268 42.2987V47.183C195.268 48.1536 196.27 48.7799 197.146 48.4041C198.211 47.9345 199.213 47.4022 200.215 46.8073C207.698 42.2361 212.175 34.2521 212.175 25.454C212.175 14.5581 205.099 5.22781 195.268 1.84634Z" fill="#AFAEB1"/>
</g>
<defs>
<clipPath id="clip0_245_48598">
<rect width="278.1" height="49" fill="white" transform="translate(0.0751953 0.5)"/>
</clipPath>
</defs>
</svg>
