<svg width="212" height="50" viewBox="0 0 212 50" fill="none" xmlns="http://www.w3.org/2000/svg">
<path d="M164.291 25.1797L157.243 21.1087V12.9929C157.241 11.8614 156.943 10.7503 156.377 9.77071C155.811 8.79113 154.999 7.97751 154.02 7.41132L148.442 4.18764C147.461 3.62384 146.35 3.32715 145.22 3.32715C144.089 3.32715 142.979 3.62384 141.998 4.18764L136.417 7.41132C135.439 7.97792 134.626 8.79163 134.061 9.77112C133.495 10.7506 133.196 11.8616 133.194 12.9929V21.1087L126.149 25.1797C125.171 25.7463 124.358 26.5601 123.792 27.5395C123.227 28.519 122.928 29.63 122.926 30.7613V37.2061C122.928 38.3379 123.226 39.4494 123.792 40.4293C124.357 41.4093 125.17 42.2235 126.149 42.7903L131.73 46.0113C132.71 46.5769 133.821 46.8746 134.952 46.8746C136.082 46.8746 137.194 46.5769 138.173 46.0113L145.2 41.9534L145.219 41.9666L145.24 41.9534L152.267 46.0113C153.246 46.5769 154.357 46.8746 155.488 46.8746C156.619 46.8746 157.73 46.5769 158.71 46.0113L164.291 42.7903C165.269 42.2233 166.082 41.4091 166.647 40.4291C167.212 39.4491 167.51 38.3377 167.511 37.2061V30.7613C167.51 29.6302 167.211 28.5193 166.646 27.5398C166.081 26.5603 165.269 25.7465 164.291 25.1797ZM136.706 12.9929C136.707 12.4781 136.843 11.9726 137.101 11.5269C137.358 11.0812 137.728 10.7111 138.173 10.4534L143.752 7.22974C144.198 6.97377 144.704 6.83911 145.219 6.83911C145.733 6.83911 146.239 6.97377 146.685 7.22974L152.267 10.4534C152.712 10.7111 153.082 11.0812 153.339 11.5269C153.597 11.9726 153.733 12.4781 153.733 12.9929V19.1061L148.915 16.3166C147.79 15.6687 146.515 15.3277 145.217 15.3277C143.92 15.3277 142.645 15.6687 141.52 16.3166L136.706 19.1061V12.9929ZM136.417 42.9692C135.971 43.2265 135.465 43.3619 134.95 43.3619C134.435 43.3619 133.929 43.2265 133.483 42.9692L127.905 39.7376C127.46 39.4792 127.09 39.1085 126.833 38.6624C126.575 38.2164 126.439 37.7106 126.438 37.1955V30.7613C126.439 30.2465 126.575 29.741 126.832 29.2953C127.09 28.8497 127.46 28.4795 127.905 28.2219L133.194 25.1666V30.7508C133.196 32.0492 133.539 33.3242 134.188 34.4484C134.837 35.5725 135.77 36.5062 136.893 37.1561L141.688 39.9271L136.417 42.9692ZM145.219 37.9113L138.646 34.1166C138.056 33.775 137.567 33.2843 137.226 32.6937C136.885 32.103 136.705 31.433 136.704 30.7508V23.1587L143.276 19.364C143.866 19.0238 144.536 18.8448 145.217 18.8448C145.899 18.8448 146.568 19.0238 147.159 19.364L153.731 23.1587V30.7482C153.729 31.4299 153.549 32.0993 153.208 32.6895C152.867 33.2797 152.378 33.77 151.788 34.1113L145.219 37.9113ZM163.999 37.2061C163.998 37.721 163.863 38.2266 163.606 38.6727C163.349 39.1188 162.98 39.4896 162.535 39.7482L156.954 42.9692C156.508 43.2265 156.002 43.3619 155.487 43.3619C154.972 43.3619 154.466 43.2265 154.02 42.9692L148.762 39.9271L153.557 37.1561C154.68 36.5056 155.612 35.5717 156.26 34.4477C156.909 33.3237 157.251 32.0489 157.254 30.7508V25.1666L162.545 28.2219C162.99 28.4796 163.36 28.8499 163.617 29.2956C163.874 29.7413 164.009 30.2467 164.01 30.7613L163.999 37.2061Z" fill="#AFAEB1"/>
<path d="M64.8831 26.6585C64.8831 26.8276 64.9332 26.993 65.027 27.1336C65.1209 27.2743 65.2544 27.3839 65.4105 27.4486C65.5666 27.5134 65.7384 27.5303 65.9041 27.4973C66.0698 27.4643 66.2221 27.3829 66.3416 27.2632C66.4611 27.1436 66.5424 26.9912 66.5754 26.8253C66.6084 26.6594 66.5914 26.4875 66.5268 26.3312C66.4621 26.1749 66.3526 26.0413 66.2121 25.9474C66.0716 25.8534 65.9064 25.8032 65.7374 25.8032C65.5115 25.8053 65.2954 25.8961 65.1356 26.056C64.9758 26.2159 64.8851 26.4323 64.8831 26.6585Z" fill="#AFAEB1"/>
<path d="M82.4331 16.7163H80.9504V24.54H82.4331V16.7163Z" fill="#AFAEB1"/>
<path d="M54.2752 24.5363V20.1048H53.5786C52.69 20.1048 52.1958 20.8363 52.1958 21.6837V24.5416H48.3182C47.9281 24.554 47.5397 24.485 47.1777 24.3392C46.8156 24.1933 46.4878 23.9737 46.2151 23.6942C45.724 23.142 45.4526 22.4283 45.4526 21.689C45.4526 20.9496 45.724 20.236 46.2151 19.6837L47.2929 20.5811C47.0515 20.897 46.9254 21.2861 46.9354 21.6837C46.9246 22.0847 47.0507 22.4773 47.2929 22.7969C47.4159 22.9495 47.5724 23.0716 47.7502 23.1538C47.928 23.2359 48.1224 23.2759 48.3182 23.2705H50.7105V21.6916C50.6974 21.3123 50.7629 20.9343 50.9027 20.5815C51.0426 20.2287 51.2539 19.9087 51.5232 19.6415C51.7926 19.3744 52.1142 19.1659 52.4679 19.0291C52.8216 18.8924 53.1997 18.8303 53.5786 18.8469H55.7631V23.2784H60.9341C60.8579 23.0684 60.8187 22.8467 60.8185 22.6232V21.6916C60.8279 21.2932 60.6997 20.9038 60.4557 20.589C60.331 20.4372 60.1734 20.3158 59.9948 20.2342C59.8162 20.1526 59.6214 20.1128 59.4252 20.1179C59.2296 20.1122 59.0353 20.1518 58.8575 20.2335C58.6797 20.3152 58.5231 20.4368 58.3999 20.589L57.3221 19.6916C57.8897 19.1522 58.6425 18.8515 59.4252 18.8515C60.2078 18.8515 60.9606 19.1522 61.5282 19.6916C62.0307 20.2348 62.3038 20.9514 62.2906 21.6916V22.7758C62.2913 22.9094 62.3448 23.0372 62.4394 23.1314C62.534 23.2256 62.6619 23.2784 62.7954 23.2784H66.8964C66.8202 23.0684 66.781 22.8467 66.7807 22.6232V21.6916C66.7905 21.2927 66.6613 20.9029 66.4153 20.589C66.2912 20.4372 66.134 20.3159 65.9559 20.2343C65.7777 20.1526 65.5833 20.1128 65.3874 20.1179C65.1919 20.1122 64.9976 20.1518 64.8198 20.2335C64.642 20.3152 64.4854 20.4368 64.3622 20.589L63.2843 19.6916C63.8517 19.1516 64.6046 18.8505 65.3874 18.8505C66.1703 18.8505 66.9232 19.1516 67.4905 19.6916C67.9937 20.2345 68.2677 20.9511 68.2555 21.6916V22.7758C68.2562 22.9089 68.3093 23.0363 68.4033 23.1305C68.4974 23.2246 68.6247 23.2777 68.7576 23.2784H69.1178V24.5495L54.2752 24.5363Z" fill="#AFAEB1"/>
<path d="M49.1411 26.6585C49.1411 26.4317 49.0511 26.2141 48.8909 26.0537C48.7307 25.8933 48.5134 25.8032 48.2868 25.8032C48.0602 25.8032 47.8428 25.8933 47.6826 26.0537C47.5224 26.2141 47.4324 26.4317 47.4324 26.6585C47.4324 26.8853 47.5224 27.1028 47.6826 27.2632C47.8428 27.4236 48.0602 27.5137 48.2868 27.5137C48.5134 27.5137 48.7307 27.4236 48.8909 27.2632C49.0511 27.1028 49.1411 26.8853 49.1411 26.6585Z" fill="#AFAEB1"/>
<path d="M88.3138 18.5892C88.4828 18.5892 88.648 18.539 88.7885 18.445C88.929 18.3511 89.0385 18.2175 89.1032 18.0612C89.1679 17.9049 89.1848 17.733 89.1518 17.5671C89.1188 17.4012 89.0375 17.2488 88.918 17.1292C88.7985 17.0096 88.6463 16.9281 88.4805 16.8951C88.3148 16.8621 88.143 16.879 87.9869 16.9438C87.8308 17.0085 87.6973 17.1181 87.6035 17.2588C87.5096 17.3994 87.4595 17.5648 87.4595 17.7339C87.4595 17.9608 87.5495 18.1783 87.7097 18.3387C87.8699 18.4991 88.0873 18.5892 88.3138 18.5892Z" fill="#AFAEB1"/>
<path d="M50.7369 25.8032C50.568 25.8032 50.4028 25.8534 50.2623 25.9474C50.1218 26.0413 50.0123 26.1749 49.9476 26.3312C49.8829 26.4875 49.866 26.6594 49.899 26.8253C49.932 26.9912 50.0133 27.1436 50.1328 27.2632C50.2523 27.3829 50.4045 27.4643 50.5703 27.4973C50.736 27.5303 50.9078 27.5134 51.0639 27.4486C51.22 27.3839 51.3535 27.2743 51.4473 27.1336C51.5412 26.993 51.5913 26.8276 51.5913 26.6585C51.5893 26.4323 51.4986 26.2159 51.3388 26.056C51.179 25.8961 50.9629 25.8053 50.7369 25.8032Z" fill="#AFAEB1"/>
<path d="M91.5634 18.8311C91.1844 18.815 90.8062 18.8774 90.4525 19.0144C90.0988 19.1515 89.7772 19.3602 89.5079 19.6276C89.2386 19.8949 89.0274 20.2151 88.8875 20.5681C88.7477 20.921 88.6822 21.2991 88.6953 21.6785C88.6916 22.2352 88.8427 22.7819 89.1317 23.2575H87.1837C86.9883 23.2628 86.7943 23.2228 86.6169 23.1407C86.4395 23.0585 86.2834 22.9363 86.161 22.7838C85.9189 22.4642 85.7927 22.0716 85.8035 21.6706C85.7935 21.273 85.9196 20.8839 86.161 20.568L85.0806 19.6706C84.5895 20.2229 84.3181 20.9365 84.3181 21.6759C84.3181 22.4153 84.5895 23.1289 85.0806 23.6811C85.3537 23.9601 85.6816 24.1793 86.0435 24.3252C86.4055 24.471 86.7937 24.5402 87.1837 24.5285H91.5634C92.3191 24.5285 93.044 24.228 93.5784 23.693C94.1128 23.158 94.413 22.4324 94.413 21.6759C94.413 20.9193 94.1128 20.1937 93.5784 19.6588C93.044 19.1238 92.3191 18.8232 91.5634 18.8232V18.8311ZM91.5634 23.2575C90.6748 23.2575 90.1806 22.5259 90.1806 21.6785C90.1806 20.8311 90.6748 20.0996 91.5634 20.0996C92.4519 20.0996 92.9567 20.8311 92.9567 21.6785C92.9567 22.5259 92.4493 23.2575 91.5634 23.2575Z" fill="#AFAEB1"/>
<path d="M111.537 18.8311C111.158 18.815 110.78 18.8774 110.427 19.0144C110.073 19.1515 109.751 19.3602 109.482 19.6276C109.213 19.8949 109.001 20.2151 108.862 20.5681C108.722 20.921 108.656 21.2991 108.669 21.6785C108.665 22.2352 108.816 22.7821 109.106 23.2575H107.223C107.167 23.261 107.111 23.2463 107.064 23.2155C107.016 23.1846 106.98 23.1394 106.961 23.0864C107.156 22.7226 107.263 22.3178 107.273 21.9048C107.286 21.5247 107.22 21.146 107.079 20.7926C106.939 20.4392 106.727 20.1189 106.456 19.8516C106.186 19.5844 105.863 19.3761 105.508 19.2399C105.153 19.1036 104.774 19.0424 104.395 19.0601C102.775 19.0601 101.629 19.9259 100.848 20.9022V19.5259H99.4657V23.268H97.8542C97.6097 23.268 97.5334 23.0785 97.5334 22.839V19.3548H96.0508V24.1364C96.0508 24.9917 95.546 25.7153 94.6575 25.7153V26.9864C95.0284 27.0031 95.3989 26.9444 95.7465 26.8139C96.0942 26.6834 96.4118 26.4838 96.6803 26.2271C96.9488 25.9703 97.1626 25.6618 97.3088 25.3202C97.455 24.9785 97.5305 24.6107 97.5308 24.239C97.5972 24.3325 97.6858 24.4079 97.7886 24.4585C97.8914 24.509 98.0052 24.5331 98.1197 24.5285H104.823C105.403 24.5191 105.957 24.2841 106.366 23.8732C106.477 24.0737 106.64 24.2405 106.837 24.3559C107.035 24.4712 107.26 24.5309 107.489 24.5285H111.537C112.293 24.5285 113.018 24.228 113.552 23.693C114.087 23.158 114.387 22.4324 114.387 21.6759C114.387 20.9193 114.087 20.1937 113.552 19.6588C113.018 19.1238 112.293 18.8232 111.537 18.8232V18.8311ZM104.376 23.2575H101.043C101.7 21.6627 102.941 20.3311 104.387 20.3311C105.275 20.3311 105.783 21.0601 105.783 21.9101C105.783 22.7601 105.257 23.2627 104.376 23.2627V23.2575ZM111.537 23.2627C110.649 23.2627 110.155 22.5311 110.155 21.6838C110.155 20.8364 110.649 20.1048 111.537 20.1048C112.426 20.1048 112.931 20.8364 112.931 21.6838C112.931 22.5311 112.423 23.2627 111.537 23.2627Z" fill="#AFAEB1"/>
<path d="M72.4514 16.7163H70.9688V24.54H72.4514V16.7163Z" fill="#AFAEB1"/>
<path d="M78.1798 22.3994C78.1798 23.0073 77.8748 23.2652 77.4595 23.2652H76.2055C75.961 23.2652 75.8874 23.0757 75.8874 22.8362V19.3546H74.4021V24.1362C74.4021 24.9915 73.8973 25.7152 73.0088 25.7152V26.9862C73.3797 27.0029 73.7502 26.9442 74.0978 26.8137C74.4455 26.6832 74.7632 26.4836 75.0317 26.2269C75.3002 25.9701 75.5139 25.6616 75.6601 25.32C75.8063 24.9783 75.8818 24.6105 75.8821 24.2389C75.9487 24.3321 76.0373 24.4074 76.1401 24.458C76.2429 24.5085 76.3566 24.5327 76.471 24.5283H77.6724C78.9868 24.5283 79.6046 23.7073 79.6046 22.4704V16.7073H78.1798V22.3994Z" fill="#AFAEB1"/>
<path d="M85.8665 37.9344V29.2371H87.3518V32.5213C87.5791 32.3374 87.8336 32.19 88.1062 32.0844C88.3605 31.9998 88.627 31.9581 88.8949 31.9607C89.3223 31.9533 89.746 32.0407 90.1356 32.2168C90.5251 32.3929 90.8708 32.6533 91.1478 32.9792C91.6869 33.59 91.9657 34.3878 91.9244 35.2019C91.8831 36.0159 91.5251 36.7814 90.927 37.3344C90.3785 37.8528 89.6492 38.1362 88.8949 38.1239C88.6263 38.1267 88.3594 38.0821 88.1062 37.9923C87.8358 37.8857 87.5818 37.7413 87.3518 37.5634V37.9292L85.8665 37.9344ZM88.8765 33.3055C88.6536 33.2974 88.4321 33.3428 88.2304 33.4381C88.0287 33.5333 87.8527 33.6755 87.7172 33.8528C87.4571 34.1924 87.3233 34.6121 87.3386 35.0397C87.3272 35.28 87.3638 35.5202 87.4464 35.7462C87.5291 35.9722 87.656 36.1793 87.8197 36.3555C87.9574 36.493 88.1217 36.6011 88.3025 36.673C88.4832 36.7449 88.6768 36.7793 88.8712 36.7739C89.0978 36.7813 89.3229 36.7357 89.5288 36.6407C89.7346 36.5456 89.9154 36.4038 90.0569 36.2265C90.316 35.8866 90.4489 35.467 90.4328 35.0397C90.4461 34.798 90.409 34.5563 90.3239 34.3298C90.2388 34.1032 90.1076 33.8969 89.9386 33.7239C89.7994 33.5831 89.6329 33.4724 89.4493 33.3986C89.2658 33.3248 89.069 33.2896 88.8712 33.295" fill="#AFAEB1"/>
<path d="M98.7871 37.9355H97.3018V37.5697C97.0718 37.7476 96.8177 37.892 96.5473 37.9986C96.2942 38.0888 96.0272 38.1333 95.7586 38.1302C95.3311 38.1388 94.907 38.0518 94.5173 37.8757C94.1275 37.6995 93.782 37.4385 93.5057 37.1118C92.9669 36.4997 92.6872 35.7017 92.726 34.8868C92.7647 34.0718 93.1189 33.304 93.7134 32.746C94.2688 32.2301 95.001 31.9474 95.7586 31.9565C96.0266 31.9535 96.2931 31.9953 96.5473 32.0802C96.8199 32.1858 97.0744 32.3331 97.3018 32.517V32.1591H98.7871V37.9355ZM95.7797 33.3065C95.553 33.2978 95.3274 33.3429 95.1214 33.438C94.9153 33.5331 94.7347 33.6756 94.594 33.8539C94.334 34.1935 94.2001 34.6131 94.2155 35.0407C94.2044 35.2821 94.2425 35.5233 94.3275 35.7495C94.4124 35.9757 94.5425 36.1822 94.7097 36.3565C94.851 36.4944 95.0185 36.6024 95.2023 36.6743C95.3861 36.7462 95.5824 36.7804 95.7797 36.7749C96.0039 36.7817 96.2265 36.7357 96.4297 36.6407C96.6329 36.5456 96.8109 36.4041 96.9495 36.2276C97.2096 35.888 97.3434 35.4683 97.3281 35.0407C97.3418 34.8001 97.3062 34.5593 97.2235 34.333C97.1408 34.1067 97.0126 33.8998 96.847 33.7249C96.7077 33.5844 96.5411 33.4739 96.3576 33.4001C96.1741 33.3263 95.9774 33.2909 95.7797 33.296" fill="#AFAEB1"/>
<path d="M101.784 32.4583C101.974 32.2957 102.189 32.1658 102.421 32.0741C102.647 31.9938 102.885 31.9555 103.125 31.961C103.463 31.9613 103.798 32.0303 104.108 32.1636C104.418 32.2921 104.696 32.486 104.923 32.732C105.339 33.1847 105.546 33.882 105.546 34.8373V37.9425H104.064V34.9215C104.064 34.2689 103.966 33.8346 103.777 33.6189C103.68 33.5125 103.561 33.4292 103.427 33.375C103.294 33.3208 103.15 33.2971 103.007 33.3057C102.828 33.2923 102.649 33.3218 102.484 33.3918C102.318 33.4619 102.172 33.5704 102.058 33.7083C101.874 33.9346 101.795 34.3794 101.795 35.0399V37.9346H100.31V32.1452H101.795L101.784 32.4583Z" fill="#AFAEB1"/>
<path d="M110.104 34.5818L112.749 37.9344H110.927L109.09 35.5739L108.543 36.1081V37.9344H107.058V29.2371H108.543V34.2186L110.641 32.1581H112.594L110.104 34.5818Z" fill="#AFAEB1"/>
<path d="M53.1846 37.9338H51.7019V37.5681C51.4706 37.7454 51.2158 37.8897 50.9448 37.997C50.6918 38.0871 50.4248 38.1317 50.1562 38.1286C49.7275 38.1362 49.3025 38.0483 48.9119 37.8713C48.5214 37.6942 48.175 37.4324 47.898 37.1049C47.3635 36.4908 47.0867 35.6938 47.1254 34.8802C47.1641 34.0667 47.5153 33.2996 48.1057 32.7391C48.6614 32.2237 49.3934 31.9411 50.1509 31.9497C50.4188 31.9467 50.6854 31.9885 50.9396 32.0733C51.2128 32.1794 51.4681 32.3267 51.6967 32.5102V32.1575H53.1794L53.1846 37.9338ZM50.1772 33.3049C49.9505 33.2967 49.7251 33.3419 49.5192 33.437C49.3132 33.5321 49.1325 33.6743 48.9916 33.8523C48.7315 34.1919 48.5977 34.6115 48.613 35.0391C48.6017 35.2808 48.6399 35.5222 48.7254 35.7485C48.8108 35.9748 48.9417 36.1812 49.1099 36.3549C49.2507 36.4927 49.4178 36.6007 49.6011 36.6726C49.7845 36.7445 49.9804 36.7787 50.1772 36.7733C50.4018 36.7801 50.6248 36.7341 50.8284 36.6391C51.032 36.544 51.2105 36.4025 51.3497 36.226C51.6088 35.886 51.7417 35.4664 51.7256 35.0391C51.7393 34.7985 51.7038 34.5577 51.621 34.3314C51.5383 34.1051 51.4102 33.8982 51.2445 33.7233C51.1054 33.5825 50.9389 33.4718 50.7553 33.3981C50.5717 33.3243 50.375 33.289 50.1772 33.2944" fill="#AFAEB1"/>
<path d="M56.1943 29.2371H54.709V37.9344H56.1943V29.2371Z" fill="#AFAEB1"/>
<path d="M67.5515 37.9355H66.0662V37.5697C65.8362 37.7476 65.5821 37.892 65.3117 37.9986C65.0586 38.0888 64.7916 38.1333 64.523 38.1302C64.0955 38.1388 63.6714 38.0518 63.2817 37.8757C62.892 37.6995 62.5464 37.4385 62.2701 37.1118C61.7313 36.4997 61.4516 35.7017 61.4904 34.8868C61.5291 34.0718 61.8833 33.304 62.4778 32.746C63.0332 32.2301 63.7654 31.9474 64.523 31.9565C64.791 31.9535 65.0575 31.9953 65.3117 32.0802C65.5843 32.1858 65.8388 32.3331 66.0662 32.517V32.1591H67.5515V37.9355ZM64.5441 33.3065C64.3174 33.2978 64.0918 33.3429 63.8858 33.438C63.6797 33.5331 63.4991 33.6756 63.3585 33.8539C63.0984 34.1935 62.9646 34.6131 62.9799 35.0407C62.9688 35.2821 63.0069 35.5233 63.0919 35.7495C63.1769 35.9757 63.3069 36.1822 63.4741 36.3565C63.6154 36.4944 63.7829 36.6024 63.9667 36.6743C64.1505 36.7462 64.3468 36.7804 64.5441 36.7749C64.7683 36.7817 64.9909 36.7357 65.1941 36.6407C65.3973 36.5456 65.5753 36.4041 65.7139 36.2276C65.974 35.888 66.1078 35.4683 66.0925 35.0407C66.1062 34.8001 66.0706 34.5593 65.9879 34.333C65.9052 34.1067 65.777 33.8998 65.6114 33.7249C65.4721 33.5844 65.3055 33.4739 65.122 33.4001C64.9385 33.3263 64.7418 33.2909 64.5441 33.296" fill="#AFAEB1"/>
<path d="M69.9224 29.2764C70.0452 29.2741 70.1672 29.2961 70.2813 29.3413C70.3955 29.3865 70.4996 29.4539 70.5875 29.5396C70.6734 29.6237 70.741 29.7245 70.7862 29.8359C70.8315 29.9473 70.8533 30.0668 70.8504 30.187C70.8541 30.3088 70.8327 30.4301 70.7875 30.5433C70.7422 30.6565 70.6742 30.7592 70.5875 30.8448C70.4999 30.9311 70.3959 30.9988 70.2817 31.044C70.1674 31.0892 70.0453 31.1109 69.9224 31.108C69.8009 31.1087 69.6805 31.0853 69.5681 31.0392C69.4557 30.993 69.3535 30.925 69.2675 30.8392C69.1815 30.7533 69.1133 30.6512 69.0669 30.5388C69.0204 30.4264 68.9967 30.3059 68.9971 30.1843C68.9942 30.0641 69.016 29.9446 69.0613 29.8333C69.1065 29.7219 69.1741 29.621 69.26 29.537C69.3456 29.4517 69.4474 29.3846 69.5594 29.3394C69.6713 29.2942 69.7912 29.2719 69.9119 29.2738" fill="#AFAEB1"/>
<path d="M73.6738 32.4581C73.863 32.2954 74.078 32.1656 74.31 32.0739C74.536 31.9938 74.7747 31.9554 75.0145 31.9607C75.3525 31.9611 75.687 32.0301 75.9977 32.1634C76.3071 32.2918 76.5851 32.4857 76.8126 32.7318C77.228 33.1844 77.4383 33.8818 77.4383 34.8371V37.9423H75.953V34.9213C75.953 34.2686 75.8557 33.8344 75.6665 33.6186C75.5695 33.5123 75.45 33.4289 75.3167 33.3747C75.1835 33.3206 75.0398 33.2969 74.8962 33.3055C74.7174 33.2923 74.5381 33.3219 74.373 33.3919C74.208 33.4619 74.062 33.5703 73.9472 33.7081C73.7632 33.9344 73.6843 34.3792 73.6843 35.0397V37.9344H72.199V29.2371H73.6843L73.6738 32.4581Z" fill="#AFAEB1"/>
<path d="M79.6912 29.2764C79.8136 29.2738 79.9353 29.2958 80.0491 29.341C80.1628 29.3862 80.2664 29.4537 80.3537 29.5396C80.4399 29.6234 80.5078 29.7242 80.5531 29.8356C80.5983 29.9471 80.62 30.0667 80.6166 30.187C80.6208 30.3089 80.5996 30.4303 80.5543 30.5436C80.5091 30.6569 80.4407 30.7595 80.3537 30.8449C80.2668 30.9312 80.1632 30.9991 80.0494 31.0443C79.9355 31.0895 79.8137 31.1112 79.6912 31.108C79.5697 31.1087 79.4493 31.0853 79.3369 31.0392C79.2245 30.993 79.1223 30.9251 79.0363 30.8392C78.9503 30.7533 78.8821 30.6512 78.8357 30.5388C78.7892 30.4264 78.7655 30.3059 78.7659 30.1843C78.763 30.0641 78.7848 29.9446 78.8301 29.8333C78.8753 29.7219 78.9429 29.621 79.0288 29.537C79.1144 29.4517 79.2162 29.3846 79.3282 29.3394C79.4401 29.2942 79.56 29.2719 79.6807 29.2738L79.6912 29.2764ZM80.4221 37.9317H78.9368V32.1422H80.4221V37.9317Z" fill="#AFAEB1"/>
<path d="M57.606 34.4511V37.9485H59.0886V34.3906C59.0886 33.6011 59.4961 33.3617 60.1402 33.3617H60.9709V32.0459L60.0902 32.0327C58.413 32.0327 57.606 32.9538 57.606 34.4432" fill="#AFAEB1"/>
<path d="M70.6638 32.1575H69.1812V38.0996C69.1812 38.9706 68.6685 39.7127 67.7668 39.7127V41.0048C68.1422 41.0115 68.5152 40.9435 68.8642 40.805C69.2133 40.6665 69.5314 40.4601 69.8003 40.1978C70.0692 39.9355 70.2834 39.6225 70.4308 39.2768C70.5781 38.9311 70.6555 38.5596 70.6586 38.1838L70.6638 32.1575Z" fill="#AFAEB1"/>
</svg>
