<svg xmlns="http://www.w3.org/2000/svg" width="32" height="33" viewBox="0 0 32 33" fill="none">
  <path d="M7.90805 9.74797L9.60805 15.4133M17.084 22.892L22.752 24.592M15.5773 16.9226L23.256 9.2439M5.33334 7.83325C5.33334 8.0959 5.38507 8.35597 5.48558 8.59862C5.58609 8.84127 5.73341 9.06175 5.91913 9.24747C6.10485 9.43318 6.32533 9.5805 6.56798 9.68101C6.81063 9.78152 7.0707 9.83325 7.33334 9.83325C7.59599 9.83325 7.85606 9.78152 8.09871 9.68101C8.34136 9.5805 8.56184 9.43318 8.74756 9.24747C8.93327 9.06175 9.08059 8.84127 9.1811 8.59862C9.28161 8.35597 9.33334 8.0959 9.33334 7.83325C9.33334 7.57061 9.28161 7.31054 9.1811 7.06789C9.08059 6.82523 8.93327 6.60476 8.74756 6.41904C8.56184 6.23332 8.34136 6.086 8.09871 5.98549C7.85606 5.88498 7.59599 5.83325 7.33334 5.83325C7.0707 5.83325 6.81063 5.88498 6.56798 5.98549C6.32533 6.086 6.10485 6.23332 5.91913 6.41904C5.73341 6.60476 5.58609 6.82523 5.48558 7.06789C5.38507 7.31054 5.33334 7.57061 5.33334 7.83325ZM22.6667 7.83325C22.6667 8.36368 22.8774 8.87239 23.2525 9.24747C23.6275 9.62254 24.1362 9.83325 24.6667 9.83325C25.1971 9.83325 25.7058 9.62254 26.0809 9.24747C26.456 8.87239 26.6667 8.36368 26.6667 7.83325C26.6667 7.30282 26.456 6.79411 26.0809 6.41904C25.7058 6.04397 25.1971 5.83325 24.6667 5.83325C24.1362 5.83325 23.6275 6.04397 23.2525 6.41904C22.8774 6.79411 22.6667 7.30282 22.6667 7.83325ZM22.6667 25.1666C22.6667 25.697 22.8774 26.2057 23.2525 26.5808C23.6275 26.9559 24.1362 27.1666 24.6667 27.1666C25.1971 27.1666 25.7058 26.9559 26.0809 26.5808C26.456 26.2057 26.6667 25.697 26.6667 25.1666C26.6667 24.6362 26.456 24.1274 26.0809 23.7524C25.7058 23.3773 25.1971 23.1666 24.6667 23.1666C24.1362 23.1666 23.6275 23.3773 23.2525 23.7524C22.8774 24.1274 22.6667 24.6362 22.6667 25.1666ZM5.33334 21.1666C5.33334 22.7579 5.96548 24.284 7.0907 25.4092C8.21592 26.5344 9.74204 27.1666 11.3333 27.1666C12.9246 27.1666 14.4508 26.5344 15.576 25.4092C16.7012 24.284 17.3333 22.7579 17.3333 21.1666C17.3333 19.5753 16.7012 18.0492 15.576 16.9239C14.4508 15.7987 12.9246 15.1666 11.3333 15.1666C9.74204 15.1666 8.21592 15.7987 7.0907 16.9239C5.96548 18.0492 5.33334 19.5753 5.33334 21.1666Z" stroke="#2D313A" stroke-width="2.66667" stroke-linecap="round" stroke-linejoin="round"/>
</svg>