<svg width="42" height="42" viewBox="0 0 42 42" fill="none" xmlns="http://www.w3.org/2000/svg">
<path d="M2.25 12.6667H4.33333M2.25 29.3333H4.33333M12.6667 2.25V4.33333M29.3333 2.25V4.33333M37.6667 12.6667H39.75M37.6667 29.3333H39.75M12.6667 37.6667V39.75M29.3333 37.6667V39.75M12.6667 14.75C12.6667 14.1975 12.8862 13.6676 13.2769 13.2769C13.6676 12.8862 14.1975 12.6667 14.75 12.6667H27.25C27.8025 12.6667 28.3324 12.8862 28.7231 13.2769C29.1138 13.6676 29.3333 14.1975 29.3333 14.75V27.25C29.3333 27.8025 29.1138 28.3324 28.7231 28.7231C28.3324 29.1138 27.8025 29.3333 27.25 29.3333H14.75C14.1975 29.3333 13.6676 29.1138 13.2769 28.7231C12.8862 28.3324 12.6667 27.8025 12.6667 27.25V14.75Z" stroke="#2D313A" stroke-width="4.16667" stroke-linecap="round" stroke-linejoin="round"/>
</svg>
