<svg width="24" height="25" viewBox="0 0 24 25" fill="none" xmlns="http://www.w3.org/2000/svg">
<path fill-rule="evenodd" clip-rule="evenodd" d="M24 12.6045C24 19.232 18.6275 24.6045 12 24.6045C5.37259 24.6045 0 19.232 0 12.6045C0 5.97708 5.37259 0.604492 12 0.604492C18.6275 0.604492 24 5.97708 24 12.6045ZM6.12377 14.6045C6.04208 13.9493 6 13.2818 6 12.6045C6 11.9272 6.04209 11.2597 6.1238 10.6045H2.20004C2.06887 11.2507 2 11.9196 2 12.6045C2 13.2894 2.06887 13.9582 2.20004 14.6045H6.12377ZM6.50405 16.6045H2.83209C4.0096 19.2996 6.34063 21.3752 9.20108 22.2076C7.96156 20.5581 7.03345 18.6613 6.50405 16.6045ZM8.57976 16.6045H15.4203C14.7623 18.8154 13.5728 20.7974 12 22.4025C10.4272 20.7974 9.23776 18.8154 8.57976 16.6045ZM15.8583 14.6045H8.14179C8.04836 13.9513 8 13.2835 8 12.6045C8 11.9255 8.04836 11.2577 8.14179 10.6045H15.8583C15.9516 11.2577 16 11.9255 16 12.6045C16 13.2835 15.9516 13.9513 15.8583 14.6045ZM17.8763 14.6045C17.9579 13.9493 18 13.2818 18 12.6045C18 11.9272 17.9579 11.2597 17.8763 10.6045H21.8C21.9312 11.2507 22 11.9196 22 12.6045C22 13.2894 21.9312 13.9582 21.8 14.6045H17.8763ZM17.496 16.6045H21.1679C19.9904 19.2996 17.6593 21.3752 14.7989 22.2076C16.0384 20.5581 16.9665 18.6613 17.496 16.6045ZM12 2.80653C10.4272 4.41153 9.23776 6.39357 8.57976 8.60449H15.4203C14.7623 6.39357 13.5728 4.41153 12 2.80653ZM14.7989 3.00147C16.0384 4.65088 16.9665 6.54765 17.4959 8.60449H21.1679C19.9904 5.90947 17.6593 3.83376 14.7989 3.00147ZM2.83209 8.60449H6.50408C7.03348 6.54765 7.9616 4.65088 9.20111 3.00147C6.34064 3.83376 4.0096 5.90947 2.83209 8.60449Z" fill="#181A2E"/>
</svg>
