<svg xmlns="http://www.w3.org/2000/svg" width="51" height="50" viewBox="0 0 51 50" fill="none">
  <path d="M34.7083 31.25C32.2219 31.25 29.8374 32.2377 28.0792 33.9959C26.3211 35.754 25.3333 38.1386 25.3333 40.625C25.3333 35.4479 21.6042 31.25 17 31.25M34.7083 22.9166C32.2219 22.9166 29.8374 23.9044 28.0792 25.6625C26.3211 27.4207 25.3333 29.8052 25.3333 32.2916C25.3333 27.1146 21.6042 22.9166 17 22.9166M34.7083 14.5833C32.2219 14.5833 29.8374 15.571 28.0792 17.3292C26.3211 19.0873 25.3333 21.4719 25.3333 23.9583C25.3333 18.7812 21.6042 14.5833 17 14.5833M25.3333 8.33331V20.8333" stroke="#2D313A" stroke-width="4.16667" stroke-linecap="round" stroke-linejoin="round"/>
</svg>