<svg width="50" height="50" viewBox="0 0 50 50" fill="none" xmlns="http://www.w3.org/2000/svg">
<path d="M12.5 43.75V39.5833C12.5 37.3732 13.378 35.2536 14.9408 33.6908C16.5036 32.128 18.6232 31.25 20.8333 31.25H23.9583M42.0837 42.0832L45.8337 45.8332M16.6667 14.5833C16.6667 16.7935 17.5446 18.9131 19.1074 20.4759C20.6702 22.0387 22.7899 22.9167 25 22.9167C27.2101 22.9167 29.3298 22.0387 30.8926 20.4759C32.4554 18.9131 33.3333 16.7935 33.3333 14.5833C33.3333 12.3732 32.4554 10.2536 30.8926 8.69078C29.3298 7.12797 27.2101 6.25 25 6.25C22.7899 6.25 20.6702 7.12797 19.1074 8.69078C17.5446 10.2536 16.6667 12.3732 16.6667 14.5833ZM31.25 37.5C31.25 39.1576 31.9085 40.7473 33.0806 41.9194C34.2527 43.0915 35.8424 43.75 37.5 43.75C39.1576 43.75 40.7473 43.0915 41.9194 41.9194C43.0915 40.7473 43.75 39.1576 43.75 37.5C43.75 35.8424 43.0915 34.2527 41.9194 33.0806C40.7473 31.9085 39.1576 31.25 37.5 31.25C35.8424 31.25 34.2527 31.9085 33.0806 33.0806C31.9085 34.2527 31.25 35.8424 31.25 37.5Z" stroke="#2D313A" stroke-width="4.16667" stroke-linecap="round" stroke-linejoin="round"/>
</svg>
