<svg width="24" height="25" viewBox="0 0 24 25" fill="none" xmlns="http://www.w3.org/2000/svg">
<path d="M22.2234 0.744141H1.77187C0.792187 0.744141 0 1.51758 0 2.47383V23.0098C0 23.966 0.792187 24.7441 1.77187 24.7441H22.2234C23.2031 24.7441 24 23.966 24 23.0145V2.47383C24 1.51758 23.2031 0.744141 22.2234 0.744141ZM7.12031 21.1957H3.55781V9.73945H7.12031V21.1957ZM5.33906 8.17852C4.19531 8.17852 3.27188 7.25508 3.27188 6.11602C3.27188 4.97695 4.19531 4.05352 5.33906 4.05352C6.47813 4.05352 7.40156 4.97695 7.40156 6.11602C7.40156 7.25039 6.47813 8.17852 5.33906 8.17852ZM20.4516 21.1957H16.8937V15.627C16.8937 14.3004 16.8703 12.5895 15.0422 12.5895C13.1906 12.5895 12.9094 14.0379 12.9094 15.5332V21.1957H9.35625V9.73945H12.7687V11.3051H12.8156C13.2891 10.4051 14.4516 9.45352 16.1813 9.45352C19.7859 9.45352 20.4516 11.8254 20.4516 14.9098V21.1957Z" fill="#98A2B3"/>
</svg>
