<svg width="142" height="37" viewBox="0 0 142 37" fill="none" xmlns="http://www.w3.org/2000/svg">
<path d="M115.396 2.3283L113.463 2.48609C113.497 2.73722 113.54 3.00366 113.591 3.28373C113.799 4.42373 114.133 5.72114 114.55 7.00479C114.966 8.28906 115.46 9.54236 115.983 10.5978C116.282 11.2006 116.579 11.7162 116.864 12.1298C117.575 12.2153 118.127 12.8191 118.127 13.5512C118.127 14.342 117.484 14.983 116.69 14.983C115.897 14.983 115.254 14.342 115.254 13.5512C115.254 13.3796 115.284 13.215 115.34 13.0625C115.001 12.5607 114.68 11.9889 114.381 11.3867C113.811 10.2366 113.286 8.89952 112.85 7.55276C112.412 6.20539 112.058 4.83112 111.833 3.60289C111.773 3.27239 111.721 2.94709 111.679 2.6316L110 2.76864V4.20497C111.231 9.99974 114.398 15.7022 117.297 20.4754C118.007 20.5626 118.556 21.1655 118.556 21.8963C118.556 22.6871 117.913 23.3281 117.12 23.3281C116.326 23.3281 115.683 22.6871 115.683 21.8963C115.683 21.7225 115.714 21.556 115.771 21.4019C113.785 18.1346 111.598 14.3161 110 10.2567V15.892C111.065 18.9832 112.716 21.568 114.368 24.1531L114.368 24.1533C114.751 24.7537 115.135 25.3542 115.511 25.9609C117.407 29.0188 119.08 32.2008 119.275 36.1704L122.41 35.9146C122.496 33.7301 121.998 31.7968 121.347 30.2981C120.806 30.0928 120.422 29.5709 120.422 28.9595C120.422 28.1687 121.065 27.5277 121.858 27.5277C122.651 27.5277 123.294 28.1687 123.294 28.9595C123.294 29.252 123.206 29.524 123.055 29.7507C123.738 31.3767 124.259 33.4409 124.203 35.7684L126.399 35.5891C126.426 33.538 125.945 31.7219 125.327 30.2981C124.786 30.0928 124.402 29.5709 124.402 28.9595C124.402 28.1687 125.045 27.5277 125.838 27.5277C126.631 27.5277 127.274 28.1687 127.274 28.9595C127.274 29.252 127.186 29.524 127.035 29.7507C127.686 31.3006 128.19 33.2486 128.187 35.4432L130.379 35.2644C130.355 33.3462 129.892 31.6463 129.307 30.2981C128.766 30.0928 128.382 29.5709 128.382 28.9595C128.382 28.1687 129.025 27.5277 129.818 27.5277C130.611 27.5277 131.254 28.1687 131.254 28.9595C131.254 29.252 131.166 29.524 131.015 29.7507C131.634 31.2237 132.119 33.0565 132.163 35.1187L134.241 34.9492C134.179 33.3918 134.032 31.7777 133.682 30.2103C133.243 29.9654 132.946 29.4971 132.946 28.9595C132.946 28.1687 133.589 27.5277 134.382 27.5277C135.175 27.5277 135.818 28.1687 135.818 28.9595C135.818 29.3289 135.678 29.6656 135.448 29.9195C135.804 31.5583 135.957 33.2287 136.023 34.8038L138.31 34.6172C138.241 33.1631 138.091 31.6665 137.766 30.2103C137.327 29.9654 137.029 29.4971 137.029 28.9595C137.029 28.1687 137.672 27.5277 138.466 27.5277C139.259 27.5277 139.902 28.1687 139.902 28.9595C139.902 29.3289 139.762 29.6656 139.531 29.9195C139.863 31.4436 140.019 32.995 140.092 34.4718L141.936 34.3212C141.866 32.8771 141.716 31.3915 141.394 29.9457C140.955 29.7009 140.657 29.2325 140.657 28.695C140.657 27.9356 141.25 27.3143 142 27.2662V4.9231C142 2.3562 139.808 0.336186 137.25 0.544958L117.191 2.18184C117.186 2.18526 117.182 2.18866 117.177 2.19203C117.25 3.03537 117.494 3.87081 117.885 4.51807C117.897 4.53904 117.909 4.56032 117.92 4.58186C118.608 4.68844 119.134 5.28125 119.134 5.99658C119.134 6.78733 118.491 7.42837 117.697 7.42837C116.904 7.42837 116.261 6.78733 116.261 5.99658C116.261 5.80563 116.299 5.62341 116.367 5.45684C116.363 5.45031 116.358 5.44371 116.354 5.43704C115.81 4.53653 115.489 3.43179 115.396 2.3283Z" fill="#0020AC"/>
<path d="M117.494 36.3158C117.334 32.7811 115.851 29.8974 113.991 26.8972C113.638 26.3278 113.27 25.7527 112.896 25.1676C111.922 23.6469 110.906 22.059 110 20.3306V23.848C110.438 24.4211 110.884 25.1201 111.314 25.8833C112.013 27.1249 112.708 28.6018 113.298 30.1302C113.887 31.6573 114.378 33.2553 114.663 34.738C114.779 35.3449 114.864 35.9473 114.903 36.5272L117.494 36.3158Z" fill="#0020AC"/>
<path d="M113.122 36.6726C113.09 36.1854 113.018 35.6491 112.908 35.0723C112.648 33.7196 112.192 32.2258 111.63 30.7694C111.139 29.4953 110.572 28.2647 110 27.1991V31.6406C110.026 31.7491 110.04 31.8625 110.04 31.979C110.04 32.0956 110.026 32.209 110 32.3175V32.8042C110.166 33.2682 110.309 33.7974 110.412 34.3627C110.55 35.1191 110.623 35.9766 110.572 36.8807L113.122 36.6726Z" fill="#0020AC"/>
<path d="M59.0722 5.52255C58.65 5.52255 58.2959 5.37953 58.0098 5.0935C57.7238 4.80746 57.5808 4.45332 57.5808 4.03107C57.5808 3.62245 57.7306 3.26831 58.0302 2.96865C58.3163 2.68262 58.6636 2.5396 59.0722 2.5396C59.4672 2.5396 59.8146 2.68943 60.1142 2.98908C60.4139 3.28874 60.5637 3.63607 60.5637 4.03107C60.5637 4.4397 60.4207 4.78703 60.1347 5.07307C59.835 5.37272 59.4809 5.52255 59.0722 5.52255ZM55.3946 5.52255C54.9724 5.52255 54.6182 5.37953 54.3322 5.0935C54.0462 4.80746 53.9031 4.45332 53.9031 4.03107C53.9031 3.62245 54.053 3.26831 54.3526 2.96865C54.6387 2.68262 54.986 2.5396 55.3946 2.5396C55.7896 2.5396 56.137 2.68943 56.4366 2.98908C56.7363 3.28874 56.8861 3.63607 56.8861 4.03107C56.8861 4.4397 56.7431 4.78703 56.457 5.07307C56.1574 5.37272 55.8032 5.52255 55.3946 5.52255ZM57.07 7.34093H61.667L61.7079 15.6769C61.7079 16.3307 61.8917 16.8483 62.2595 17.2296C62.5319 17.4067 62.7499 17.4952 62.9133 17.4952H65.0586L65.0382 18.9867H61.9735C61.3605 18.9867 60.8566 18.8573 60.4616 18.5985C60.0802 18.8573 59.583 18.9867 58.9701 18.9867H45.8941C45.3493 18.9867 44.893 18.8709 44.5252 18.6394C44.1438 18.4078 43.8306 18.0741 43.5854 17.6383C43.313 17.2296 43.1768 16.6303 43.1768 15.8403C43.1768 15.4726 43.1768 14.9413 43.1768 14.2467C43.1768 13.552 43.1768 12.7961 43.1768 11.9788C43.1768 11.7473 43.1768 11.5361 43.1768 11.3454C43.1768 11.0185 43.2993 10.7189 43.5445 10.4465C43.7625 10.2694 43.9804 10.1809 44.1983 10.1809H46.7727C47.0587 10.2217 47.2017 10.3579 47.2017 10.5895C47.2017 10.8347 47.0246 10.9709 46.6705 10.9981C46.3845 10.9981 46.1189 11.1548 45.8737 11.468C45.7102 11.7132 45.6285 11.9924 45.6285 12.3057C45.6285 12.4828 45.6285 12.8233 45.6285 13.3273C45.6285 13.8176 45.6285 14.2875 45.6285 14.737C45.6285 15.2001 45.6285 15.5202 45.6285 15.6973C45.6285 16.2421 45.7715 16.712 46.0576 17.107C46.2074 17.2977 46.4594 17.4271 46.8135 17.4952H53.6784C53.0518 16.9232 52.6909 16.5145 52.5955 16.2694C52.2005 15.8199 51.9009 15.0299 51.6966 13.8994V11.5906C51.6966 10.5827 52.0916 9.66328 52.8816 8.83241C53.3992 8.35568 53.8963 8.02878 54.3731 7.85171C55.0677 7.59292 55.6807 7.43628 56.2119 7.38179C56.3072 7.36817 56.4639 7.36136 56.6818 7.36136C56.8044 7.34774 56.9338 7.34093 57.07 7.34093ZM54.1688 11.7745C54.1688 11.8971 54.1688 12.0946 54.1688 12.367C54.1688 12.6258 54.1688 12.8982 54.1688 13.1843C54.1688 13.4431 54.1688 13.661 54.1688 13.8381C54.1688 15.4726 54.8498 16.5895 56.2119 17.1888C56.7839 17.3931 57.2811 17.4952 57.7034 17.4952H58.0302C58.2346 17.4952 58.4729 17.3863 58.7453 17.1683C59.0722 16.8823 59.2357 16.2285 59.2357 15.2069C59.2357 15.2069 59.2357 14.9958 59.2357 14.5736C59.2357 14.1377 59.2357 13.6133 59.2357 13.0004C59.2357 12.3602 59.2357 11.7336 59.2357 11.1207C59.2357 10.4805 59.2357 9.94932 59.2357 9.52707C59.2357 9.0912 59.2357 8.86646 59.2357 8.85284H57.1721C56.4639 8.85284 55.776 9.09802 55.1086 9.58836C54.6863 10.0106 54.4344 10.3852 54.3526 10.7121C54.23 11.0935 54.1688 11.4476 54.1688 11.7745Z" fill="#0020AC"/>
<path d="M65.8622 2.51917H67.2924V9.2819H67.3332C67.4967 9.07758 67.7214 8.86646 68.0075 8.64853C68.5251 8.28077 69.0222 8.01516 69.4989 7.85171C70.4796 7.51119 71.4467 7.34093 72.4002 7.34093H80.634V15.2478C80.634 16.4328 80.8723 17.1343 81.349 17.3522C81.458 17.4203 81.6215 17.468 81.8394 17.4952H83.9234V18.9867H80.634C80.1845 18.9459 79.8644 18.8641 79.6737 18.7415C79.6328 18.7143 79.5988 18.6939 79.5715 18.6803C79.5307 18.653 79.4966 18.6326 79.4694 18.619C79.4558 18.6053 79.4421 18.5985 79.4285 18.5985C79.4149 18.5985 79.4013 18.5985 79.3876 18.5985C79.3876 18.5849 79.3876 18.5781 79.3876 18.5781C79.2242 18.7143 78.9586 18.8301 78.5908 18.9254C78.4138 18.9663 78.2912 18.9867 78.2231 18.9867H61.5716V17.4952H64.8202L64.8406 3.66331C64.8406 3.37728 64.9428 3.11167 65.1471 2.8665C65.4059 2.63494 65.6443 2.51917 65.8622 2.51917ZM67.2924 14.3693V17.4952H76.9563C77.1606 17.4952 77.399 17.3931 77.6714 17.1888C77.9983 16.8891 78.1618 16.3034 78.1618 15.4317V8.85284L72.5432 8.83241C70.5818 8.83241 69.1176 9.6088 68.1505 11.1616C67.701 12.0197 67.4286 12.8982 67.3332 13.7972C67.3196 13.9606 67.3128 14.0969 67.3128 14.2058C67.2992 14.2875 67.2924 14.342 67.2924 14.3693Z" fill="#0020AC"/>
<path d="M86.2463 5.52255C85.8241 5.52255 85.4699 5.37953 85.1839 5.0935C84.8979 4.80746 84.7548 4.45332 84.7548 4.03107C84.7548 3.62245 84.9047 3.26831 85.2043 2.96865C85.4904 2.68262 85.8377 2.5396 86.2463 2.5396C86.6413 2.5396 86.9886 2.68943 87.2883 2.98908C87.588 3.28874 87.7378 3.63607 87.7378 4.03107C87.7378 4.4397 87.5948 4.78703 87.3087 5.07307C87.0091 5.37272 86.6549 5.52255 86.2463 5.52255ZM86.0829 7.34093C86.0829 7.34093 86.1237 7.34093 86.2055 7.34093C86.3008 7.34093 86.4098 7.34093 86.5323 7.34093C86.6686 7.34093 86.798 7.34093 86.9205 7.34093C87.0568 7.34093 87.1657 7.34093 87.2474 7.34093C87.3292 7.34093 87.3768 7.34093 87.3905 7.34093L87.4109 15.9629C87.4654 16.3851 87.5607 16.712 87.6969 16.9436C87.8468 17.1888 88.0715 17.359 88.3712 17.4544L88.5959 17.4952H90.7616V18.9867H87.6561C87.0431 18.9867 86.546 18.8573 86.1646 18.5985C85.7696 18.8573 85.2656 18.9867 84.6527 18.9867H81.3633V17.4952H83.7128C84.0397 17.4271 84.2713 17.3318 84.4075 17.2092C84.7344 16.8414 84.8979 16.4873 84.8979 16.1468L84.9183 8.52594C84.9183 7.96749 85.1635 7.59292 85.6538 7.40223C85.6538 7.40223 85.6947 7.39541 85.7764 7.38179C85.8581 7.35455 85.9603 7.34093 86.0829 7.34093Z" fill="#0020AC"/>
<path d="M95.2266 7.34093C96.2073 7.40904 96.936 7.518 97.4128 7.66783C98.5978 8.04921 99.4695 8.66896 100.028 9.52707C100.423 10.249 100.62 10.9368 100.62 11.5906V18.9867H94.4298C93.8169 18.9867 93.3129 18.796 92.9179 18.4146H92.8975C92.5297 18.796 92.0394 18.9867 91.4264 18.9867H87.2585V17.4952H90.507C90.8203 17.4271 91.045 17.3318 91.1812 17.2092C91.4945 16.8278 91.6512 16.4669 91.6512 16.1264L91.692 9.15931V8.54637C91.692 7.98792 91.9372 7.60654 92.4276 7.40223C92.5093 7.37498 92.6591 7.36136 92.877 7.36136H94.1233C94.4366 7.36136 94.8044 7.35455 95.2266 7.34093ZM94.1642 8.85284L94.1846 15.9425C94.2391 16.3647 94.3277 16.6916 94.4502 16.9232C94.6137 17.1683 94.8384 17.3454 95.1245 17.4544C95.1926 17.468 95.2471 17.4748 95.2879 17.4748C95.3015 17.4884 95.3152 17.4952 95.3288 17.4952C95.3424 17.4952 95.356 17.4952 95.3696 17.4952H98.1687V11.938C98.1687 10.5214 97.5694 9.57474 96.3708 9.09802C95.8804 8.93457 95.4718 8.85284 95.1449 8.85284H94.1642Z" fill="#0020AC"/>
<path d="M55.1924 34.5528H42V27.9453C42 27.2411 42.1348 26.5819 42.4045 25.9676C42.6742 25.3383 43.0413 24.7914 43.5058 24.3269C43.9702 23.8625 44.5171 23.4954 45.1464 23.2257C45.7757 22.956 46.4424 22.8212 47.1466 22.8212V24.3719C46.6522 24.3719 46.1877 24.4693 45.7532 24.6641C45.3187 24.8439 44.9366 25.0986 44.607 25.4282C44.2924 25.7578 44.0377 26.1399 43.8429 26.5744C43.6631 26.9939 43.5732 27.4509 43.5732 27.9453V33.002H53.6417V30.867H55.1924V34.5528Z" fill="#0020AC"/>
<path d="M64.9263 25.7204C65.6455 25.7204 66.3122 25.8552 66.9265 26.1249C67.5558 26.3946 68.1026 26.7617 68.5671 27.2261C69.0316 27.6906 69.3987 28.2375 69.6684 28.8668C69.9381 29.496 70.0729 30.1628 70.0729 30.867V34.5528H62.0271C61.3229 34.5528 60.6562 34.4179 60.0269 34.1482C59.3976 33.8785 58.8507 33.5115 58.3862 33.047C57.9218 32.5825 57.5547 32.0356 57.285 31.4064C57.0153 30.7771 56.8805 30.1103 56.8805 29.4061V25.7204H64.9263ZM68.5222 30.867C68.5222 30.3725 68.4248 29.9081 68.23 29.4736C68.0502 29.0391 67.7955 28.6645 67.4659 28.3499C67.1363 28.0202 66.7542 27.7655 66.3197 27.5857C65.8852 27.3909 65.4207 27.2936 64.9263 27.2936H58.4537V29.4061C58.4537 29.9006 58.5436 30.3651 58.7234 30.7996C58.9181 31.2341 59.1728 31.6161 59.4875 31.9457C59.8171 32.2754 60.1992 32.5376 60.6337 32.7323C61.0682 32.9121 61.5327 33.002 62.0271 33.002H68.5222V30.867Z" fill="#0020AC"/>
<path d="M84.9534 25.7204V30.8903C84.9534 31.3997 84.856 31.8791 84.6612 32.3286C84.4664 32.7781 84.2042 33.1677 83.8746 33.4973C83.545 33.8269 83.1554 34.0891 82.7059 34.2839C82.2564 34.4787 81.777 34.5761 81.2676 34.5761H75.4467V33.0253H81.2676C81.8669 33.0253 82.3688 32.8156 82.7734 32.3961C83.1929 31.9915 83.4026 31.4896 83.4026 30.8903V30.9794C83.103 31.1891 82.7734 31.3539 82.4138 31.4738C82.0542 31.5936 81.6796 31.6536 81.29 31.6536H74.7275C74.323 31.6536 73.9409 31.5787 73.5814 31.4288C73.2218 31.264 72.9071 31.0468 72.6374 30.7771C72.3677 30.5074 72.1505 30.1927 71.9857 29.8332C71.8358 29.4736 71.7609 29.0915 71.7609 28.687C71.7609 28.2824 71.8358 27.9004 71.9857 27.5408C72.1505 27.1812 72.3677 26.8665 72.6374 26.5969C72.9071 26.3272 73.2218 26.1174 73.5814 25.9676C73.9409 25.8028 74.323 25.7204 74.7275 25.7204H84.9534ZM83.4026 27.2936H74.7275C74.338 27.2936 74.0084 27.4284 73.7387 27.6981C73.469 27.9678 73.3341 28.2974 73.3341 28.687C73.3341 29.0765 73.469 29.4061 73.7387 29.6758C74.0084 29.9455 74.338 30.0804 74.7275 30.0804H81.29C81.5897 30.0804 81.8669 30.0279 82.1216 29.9231C82.3763 29.8032 82.5936 29.6534 82.7734 29.4736C82.9681 29.2788 83.118 29.054 83.2228 28.7993C83.3427 28.5296 83.4026 28.2525 83.4026 27.9678V27.2936Z" fill="#0020AC"/>
<path d="M86.8212 24.4168V22.8212H88.3944V24.4168H86.8212ZM86.8212 34.5528V25.7204H88.3944V34.5528H86.8212Z" fill="#0020AC"/>
<path d="M91.814 27.2936V30.1478C91.814 30.5374 91.8889 30.9044 92.0387 31.249C92.1886 31.5936 92.3909 31.9008 92.6456 32.1705C92.9153 32.4252 93.2224 32.6275 93.567 32.7773C93.9116 32.9271 94.2787 33.002 94.6682 33.002H100.759V34.5528H94.6682C94.0539 34.5528 93.4771 34.4404 92.9377 34.2157C92.3983 33.9759 91.9264 33.6613 91.5218 33.2717C91.1323 32.8672 90.8176 32.3952 90.5779 31.8558C90.3532 31.3165 90.2408 30.7471 90.2408 30.1478V25.7204H100.759V27.2936H91.814Z" fill="#0020AC"/>
</svg>
