<svg width="137" height="28" viewBox="0 0 137 28" fill="none" xmlns="http://www.w3.org/2000/svg">
<path d="M0 26.0583C0.00359415 23.2045 0.0467206 20.3148 0.125792 18.0577C0.125792 18.0505 0.132981 18.0433 0.143764 18.0433C0.291124 18.0433 0.427701 18.1152 0.51396 18.2374L5.80454 25.8318C6.38679 26.6693 7.33924 27.176 8.35998 27.176H8.38154C11.397 27.176 13.5356 25.627 13.5356 22.6079C13.5356 15.6101 0.255181 16.2822 0.255181 7.48373C0.255181 2.70711 4.27703 0.0258789 10.0169 0.0258789C12.7017 0.0258789 15.1313 0.496705 17.0434 1.36649C17.3058 1.48509 17.4711 1.75106 17.4675 2.03859C17.4244 4.11601 17.3453 6.8224 17.1944 9.37784C17.1872 9.48926 17.0938 9.57911 16.9823 9.57911C16.9787 9.57911 16.9715 9.57912 16.968 9.57193L11.8032 1.93796C11.3216 1.22632 10.5201 0.787829 9.66106 0.780641H9.6395C7.08406 0.780641 5.32293 2.20393 5.32293 4.63716C5.32293 11.3834 18.6464 11.0886 18.6464 20.3472C18.6464 25.3322 14.4161 27.9739 8.17308 27.9739C5.41278 27.9739 2.51231 27.5067 0.46724 26.734C0.186897 26.6297 0.00359217 26.3566 0.00359217 26.0583" fill="#2D313A"/>
<path d="M39.9273 26.1301C39.0072 27.3881 37.6234 27.9308 35.8623 27.9308C33.4758 27.9308 31.8404 26.9676 31.2941 25.2496C29.9535 26.8418 27.9444 27.9308 25.4285 27.9308C22.2009 27.9308 20.1487 26.1697 20.1487 23.2368C20.1487 19.5492 23.4158 17.4143 31.0425 16.8285V13.3098C31.0425 10.0823 30.0793 8.61586 28.4871 8.61586H28.4727C27.8617 8.61586 27.2938 8.92136 26.9308 9.41016L22.3699 15.531C22.2908 15.6352 22.1686 15.6999 22.0356 15.6999C21.766 13.4644 21.6007 11.865 21.4785 9.83068C21.4605 9.5108 21.6546 9.21248 21.9565 9.10465C24.0304 8.38223 26.2444 7.99048 28.5266 7.99048C34.5612 7.99048 36.9477 10.8406 36.9477 14.8625V24.3331C36.9477 25.6305 37.6162 26.22 38.4968 26.22C38.8742 26.22 39.3342 26.1373 39.8374 25.9253L39.9201 26.1337L39.9273 26.1301ZM31.0461 24.5379V17.5006C27.4017 18.0038 25.9748 19.9734 25.9748 22.6546C25.9748 24.9584 26.9811 25.9217 28.3218 25.9217C29.2419 25.9217 30.0829 25.5443 31.0461 24.5379Z" fill="#2D313A"/>
<path d="M60.0438 26.3891C60.9639 26.8599 61.636 27.2876 62.3908 27.8016V27.931H51.957V27.8016C52.6686 27.2876 53.2976 26.8599 54.135 26.3891V13.5077C54.135 11.2397 53.1286 9.78412 51.0764 9.78412C49.8616 9.78412 48.8983 10.2981 47.892 11.3655V26.3855C48.7294 26.8563 49.3584 27.284 50.07 27.798V27.9274H39.5967V27.798C40.391 27.284 41.1062 26.8563 41.9868 26.3855V14.7189C41.9868 12.9829 41.0811 11.3691 39.5967 10.467C39.5967 10.3879 39.6434 10.3197 39.7153 10.2909C41.764 9.44268 44.4488 8.63399 46.8029 8.16316C47.281 8.06612 47.7123 8.46867 47.6584 8.95388L47.4319 10.9414C49.0241 9.05811 51.5796 7.94751 53.9661 7.94751C57.9448 7.94751 60.0402 10.4706 60.0402 14.496V26.3927L60.0438 26.3891Z" fill="#2D313A"/>
<path d="M82.6043 26.1303C81.6842 27.3883 80.3004 27.931 78.5393 27.931C76.1528 27.931 74.5174 26.9677 73.9711 25.2497C72.6305 26.8419 70.6214 27.931 68.1055 27.931C64.8779 27.931 62.8257 26.1698 62.8257 23.237C62.8257 19.5494 66.0928 17.4145 73.7195 16.8287V13.31C73.7195 10.0824 72.7563 8.61604 71.1641 8.61604H71.1497C70.5387 8.61604 69.9708 8.92154 69.6078 9.41034L64.9211 15.6965C64.8025 15.6965 64.7018 15.6066 64.6875 15.488C64.4323 13.3603 64.2741 11.8004 64.1555 9.82726C64.1376 9.50738 64.3316 9.20907 64.6371 9.10125C66.711 8.37882 68.925 7.98706 71.2072 7.98706C77.2418 7.98706 79.6283 10.8372 79.6283 14.8591V24.3296C79.6283 25.6271 80.2968 26.2166 81.1774 26.2166C81.5548 26.2166 82.0148 26.1339 82.518 25.9218L82.6007 26.1303H82.6043ZM73.7231 24.5381V17.5008C70.0787 18.0039 68.6518 19.9735 68.6518 22.6548C68.6518 24.9586 69.6582 25.9218 70.9988 25.9218C71.9189 25.9218 72.7599 25.5445 73.7231 24.5381Z" fill="#2D313A"/>
<path d="M102.149 26.1303C101.229 27.3883 99.8453 27.931 98.0842 27.931C95.6977 27.931 94.0624 26.9677 93.5161 25.2497C92.1754 26.8419 90.1663 27.931 87.6504 27.931C84.4229 27.931 82.3706 26.1698 82.3706 23.237C82.3706 19.5494 85.6377 17.4145 93.2645 16.8287V13.31C93.2645 10.0824 92.3012 8.61604 90.709 8.61604H90.6946C90.0836 8.61604 89.5158 8.92154 89.1528 9.41034L84.466 15.6965C84.3474 15.6965 84.2467 15.6066 84.2324 15.488C83.9772 13.3603 83.8191 11.8004 83.7004 9.82726C83.6825 9.50738 83.8766 9.20907 84.1821 9.10125C86.2559 8.37882 88.4699 7.98706 90.7522 7.98706C96.7867 7.98706 99.1732 10.8372 99.1732 14.8591V24.3296C99.1732 25.6271 99.8417 26.2166 100.722 26.2166C101.1 26.2166 101.56 26.1339 102.063 25.9218L102.146 26.1303H102.149ZM93.2681 24.5381V17.5008C89.6236 18.0039 88.1967 19.9735 88.1967 22.6548C88.1967 24.9586 89.2031 25.9218 90.5437 25.9218C91.4638 25.9218 92.3048 25.5445 93.2681 24.5381Z" fill="#2D313A"/>
<path d="M133.656 26.389C134.576 26.8598 135.291 27.2875 136.042 27.8015V27.9309H125.608V27.8015C126.277 27.2875 126.906 26.8598 127.747 26.389V13.4644C127.747 11.2397 126.784 9.78405 124.897 9.78405C124.735 9.78405 124.577 9.79842 124.415 9.82358C122.941 10.0644 121.881 11.3763 121.881 12.8714V26.389C122.805 26.8598 123.473 27.2875 124.228 27.8015V27.9309H113.794V27.8015C114.463 27.2875 115.135 26.8598 115.972 26.389V13.123C115.972 11.0276 115.009 9.78405 113.083 9.78405C113.043 9.78405 113.004 9.78405 112.968 9.78405C111.34 9.84515 110.067 11.2181 110.067 12.8499V26.3854C110.905 26.8562 111.534 27.2839 112.245 27.7979V27.9273H101.772V27.7979C102.566 27.2839 103.282 26.8562 104.158 26.3854V14.7188C104.158 12.9828 103.253 11.3691 101.772 10.4669V10.3375C103.835 9.47136 106.577 8.64111 108.975 8.1595C109.453 8.06246 109.884 8.46499 109.83 8.9502L109.604 10.9378C111.153 9.14069 113.582 7.94385 116.055 7.94385C118.528 7.94385 120.329 9.0149 121.252 10.8982C123.43 8.84238 125.526 7.94385 127.912 7.94385C131.474 7.94385 133.652 10.4274 133.652 14.363V26.389H133.656Z" fill="#2D313A"/>
</svg>
