<svg width="148" height="24" viewBox="0 0 148 24" fill="none" xmlns="http://www.w3.org/2000/svg">
<path d="M8.93562 0.149298C9.10247 0.1377 9.64769 0.13306 10.1459 0.1377C11.1752 0.152077 12.1937 0.211697 13.2128 0.360394C14.2215 0.498936 15.2541 0.69698 16.2208 1.0192C16.4018 1.07951 16.6603 1.17694 16.7943 1.23725C16.9282 1.29525 17.0457 1.3602 17.0551 1.37876C17.0669 1.39731 17.1068 1.60609 17.1468 1.8427C17.1867 2.07932 17.2337 2.41336 17.2549 2.58502C17.3765 3.69548 17.4136 4.80899 17.3982 5.92543C17.3912 6.50536 17.3794 7.05746 17.3606 7.31727L17.2032 7.33351C17.1139 7.34047 16.9635 7.34743 16.6838 7.35207L15.2221 5.3571C14.4183 4.25986 13.6898 3.27398 13.6052 3.16495C13.5206 3.05592 13.3538 2.85875 13.2339 2.7242C12.5871 1.9836 11.7888 1.40052 10.8157 1.16766C10.6606 1.13054 10.4279 1.08647 10.2987 1.06791C10.1694 1.04935 9.89915 1.02616 9.69939 1.01688C9.47614 1.0076 9.21763 1.01224 9.02962 1.02848C7.86442 1.14187 6.72092 1.72429 6.03093 2.67781C5.96983 2.76132 5.86877 2.92834 5.80297 3.04896C5.73717 3.16959 5.65022 3.35749 5.61027 3.46651C5.1698 4.66855 5.38026 5.89562 6.50329 6.60279C6.6396 6.69094 6.91926 6.84404 7.12606 6.94611C7.33287 7.04586 7.67598 7.19664 7.88984 7.27783C8.10369 7.36134 9.18708 7.73018 10.2987 8.10134L10.4258 8.14377C11.4953 8.50089 12.5533 8.85414 12.8132 8.9434C13.0835 9.03387 13.4971 9.18233 13.7298 9.27048C17.3158 10.6649 19.8583 13.0224 19.1114 17.1181C19.0903 17.2341 19.0409 17.4475 19.0057 17.5937C18.9681 17.7398 18.8952 17.9811 18.8459 18.1272C18.1973 19.9605 16.9125 21.4377 15.2338 22.4419C13.9447 23.2131 12.4908 23.66 11.0037 23.857C10.8086 23.8825 10.5031 23.9149 10.3222 23.9312C7.1142 24.1982 3.8609 23.6715 0.827867 22.6368L0.799666 22.4976C0.581664 21.5139 0.49919 20.4981 0.428355 19.4959C0.409554 19.1966 0.383703 18.7141 0.369603 18.4241C0.357853 18.1319 0.346102 17.4893 0.346102 16.0859L0.444805 16.0603C0.492606 16.0486 0.601132 16.0201 0.703219 15.9933L0.757365 15.9791C0.872519 15.9467 0.980622 15.9235 0.997072 15.9281C1.01117 15.9328 1.53994 16.573 2.16741 17.3501C4.2037 19.8626 6.35111 23.3812 10.0284 23.0682C10.1647 23.0543 10.3809 23.0219 10.5102 22.9963C10.6394 22.9708 10.8721 22.9082 11.0272 22.8572C13.8084 21.9421 14.5308 18.4881 12.0495 17.1274C11.9014 17.0485 11.6006 16.9024 11.3797 16.805C9.41172 15.937 7.32052 15.3643 5.31651 14.585C5.0063 14.4644 4.57388 14.2857 4.35298 14.1906C3.19025 13.69 2.08582 13.0518 1.26265 12.0843C1.1898 11.9962 1.0817 11.8547 1.02295 11.7712C0.00301591 10.3214 -0.149918 8.45066 0.113469 6.74894C0.141669 6.58191 0.193371 6.3221 0.228622 6.169C0.266223 6.0159 0.339076 5.75609 0.393127 5.58907C0.447179 5.42205 0.534132 5.18776 0.585833 5.06713C1.22912 3.56627 2.39297 2.36796 3.81246 1.55274C3.94171 1.48082 4.17907 1.35324 4.34123 1.27437C4.50338 1.19318 4.76659 1.07487 4.92874 1.0076C5.0909 0.940327 5.42461 0.819701 5.66902 0.73851C6.73046 0.395979 7.82411 0.226563 8.93562 0.149298Z" fill="white"/>
<path fill-rule="evenodd" clip-rule="evenodd" d="M36.2905 0.290832C40.0873 0.695991 42.5614 2.50885 43.0211 6.36621C43.047 6.56339 43.0799 6.85567 43.0916 7.01573C43.1057 7.17579 43.1292 7.49824 43.141 7.73485C43.1551 7.9993 43.1645 10.6415 43.1645 21.0037H46.3136V21.7576L41.7239 22.7296C39.2023 23.2655 37.0284 23.7248 36.6571 23.799C36.2189 22.7467 35.9283 21.6481 35.7994 20.5166C35.7806 20.331 35.757 20.0897 35.75 19.9761C35.743 19.8647 35.7312 19.7743 35.7218 19.7743C35.71 19.7743 35.6677 19.8601 35.6231 19.9645C35.5784 20.0712 35.475 20.2916 35.3904 20.4586C35.2394 20.7652 35.0656 21.0585 34.8711 21.3401C34.8006 21.4421 34.6572 21.63 34.5538 21.7576C33.6364 22.8896 32.3852 23.6215 30.9558 23.8802C25.7444 24.7376 20.5414 20.0074 23.0149 14.6361C23.0854 14.483 23.2053 14.2417 23.2852 14.1025C23.3627 13.9633 23.5273 13.7012 23.6471 13.5226C23.7693 13.344 23.9456 13.0981 24.2158 12.7571L35.703 11.6436L35.71 9.10349C35.7147 7.62118 35.7077 6.27342 35.6912 5.86747C35.6433 4.30502 35.6551 1.99259 33.9757 1.18393C33.8793 1.13985 33.6937 1.07722 33.5644 1.04242C32.844 0.861413 32.1379 0.98494 31.5316 1.42286C31.4353 1.49013 31.2496 1.63628 31.1204 1.7453C30.9911 1.85665 30.6973 2.12806 30.4647 2.35307C30.2344 2.57577 29.8372 2.9794 29.5834 3.24617C27.8536 5.0801 26.3755 7.14532 24.6224 8.95271L24.3051 8.89472C24.0067 8.83904 23.9879 8.8344 23.9785 8.77873C23.9714 8.74625 23.9526 8.63723 23.9362 8.53516C23.915 8.40989 23.9056 8.10601 23.908 7.59567C23.908 6.13458 24.1211 4.63514 24.5049 3.22297C24.5543 3.03043 24.6389 2.74975 24.6906 2.59664C24.7399 2.44354 24.8151 2.23941 24.8527 2.1443C24.8927 2.04919 24.9514 1.91 24.9843 1.83577C25.0407 1.71051 25.0548 1.69891 25.2052 1.63164C25.2922 1.5922 25.4896 1.51101 25.6447 1.4507C26.3845 1.15194 27.1691 0.947161 27.9478 0.775655C30.7128 0.166621 33.4684 -0.0291479 36.2905 0.290832ZM29.7808 13.685C29.8114 13.5574 29.8678 13.3509 29.9101 13.228L29.9829 13.0006H35.7147V19.1247L35.5808 19.3057C35.5056 19.4031 35.3505 19.5817 35.233 19.7023C35.1178 19.8207 34.9369 19.9854 34.8335 20.0642C34.0077 20.6941 32.9325 20.9698 31.9076 20.723C31.8113 20.6975 31.6374 20.6349 31.5199 20.5838C28.9928 19.4863 29.2358 15.9611 29.7808 13.685Z" fill="white"/>
<path d="M73.3958 5.85584C73.417 6.0159 73.4475 6.25483 73.4616 6.38938C73.4804 6.56336 73.4898 8.90165 73.5039 22.3955H76.2065V23.277H63.2576V22.3955H66.0307L66.0236 14.6662C66.0189 7.60028 66.0142 6.91364 65.979 6.70254C65.9578 6.57507 65.9179 6.37817 65.8944 6.26214C65.2555 3.39567 61.4286 3.04499 59.2766 4.4756C59.1638 4.55215 58.9734 4.69829 58.8559 4.80036C58.7384 4.90243 58.5598 5.07641 58.2755 5.39189V22.3955H61.0485V23.277H47.6061V22.3955H50.8022V3.11856H47.4416L47.4534 2.34377L54.1067 1.0504C56.4835 0.588541 58.2668 0.242089 58.2708 0.242089C58.2731 0.242089 58.2778 1.22102 58.2872 4.58927L58.4635 4.30162C58.5598 4.14156 58.7055 3.9119 58.7901 3.79128C58.8724 3.67065 59.011 3.48275 59.0933 3.37373C62.9836 -1.63978 72.6242 -0.7137 73.3958 5.85584Z" fill="white"/>
<path fill-rule="evenodd" clip-rule="evenodd" d="M92.2692 0.267634C96.066 0.672793 98.5401 2.48565 98.9998 6.34301C99.0257 6.54019 99.0586 6.83247 99.0704 6.99254C99.0845 7.1526 99.1079 7.47504 99.1197 7.71165C99.1338 7.9761 99.1432 10.6183 99.1432 20.9805H102.292V21.7344L97.7026 22.7064C95.181 23.2423 93.0072 23.7016 92.6359 23.7758C92.1976 22.7235 91.907 21.6249 91.7781 20.4934C91.7593 20.3078 91.7358 20.0665 91.7287 19.9529C91.7217 19.8415 91.7099 19.7511 91.7005 19.7511C91.6888 19.7511 91.6465 19.8369 91.6018 19.9413C91.5572 20.048 91.4538 20.2684 91.3692 20.4354C91.2182 20.742 91.0443 21.0353 90.8498 21.3169C90.7793 21.4189 90.6359 21.6068 90.5325 21.7344C89.6151 22.8664 88.3639 23.5983 86.9346 23.857C81.7231 24.7144 76.5202 19.9842 78.9936 14.6129C79.0641 14.4598 79.184 14.2185 79.2639 14.0793C79.3414 13.9401 79.506 13.678 79.6259 13.4994C79.7481 13.3208 79.9243 13.0749 80.1946 12.7339L91.6817 11.6204L91.6888 9.08029C91.6935 7.59799 91.6864 6.25022 91.67 5.84427C91.622 4.28182 91.6339 1.96939 89.9544 1.16073C89.8581 1.11666 89.6724 1.05402 89.5432 1.01923C88.8227 0.838215 88.1167 0.961742 87.5103 1.39966C87.414 1.46694 87.2283 1.61308 87.0991 1.72211C86.9698 1.83345 86.6761 2.10486 86.4434 2.32988C86.2131 2.55257 85.8159 2.9562 85.5621 3.22297C83.8324 5.0569 82.3542 7.12212 80.6011 8.92951L80.2839 8.87152C79.9854 8.81584 79.9666 8.8112 79.9572 8.75553C79.9502 8.72306 79.9314 8.61403 79.9149 8.51196C79.8938 8.38669 79.8844 8.08281 79.8867 7.57247C79.8867 6.11138 80.0998 4.61194 80.4836 3.19977C80.533 3.00724 80.6176 2.72655 80.6693 2.57345C80.7186 2.42035 80.7938 2.21621 80.8314 2.1211C80.8714 2.02599 80.9301 1.88681 80.963 1.81258C81.0194 1.68731 81.0335 1.67571 81.1839 1.60844C81.2709 1.569 81.4683 1.48781 81.6234 1.4275C82.3633 1.12875 83.1478 0.923963 83.9265 0.752458C86.6916 0.143424 89.4471 -0.0523452 92.2692 0.267634ZM85.7595 13.6618C85.7901 13.5342 85.8465 13.3277 85.8888 13.2048L85.9616 12.9774H91.6935V19.1015L91.5595 19.2825C91.4843 19.3799 91.3292 19.5585 91.2117 19.6791C91.0966 19.7975 90.9156 19.9622 90.8122 20.041C89.9864 20.6709 88.9112 20.9466 87.8864 20.6998C87.79 20.6743 87.6161 20.6117 87.4986 20.5606C84.9715 19.4631 85.2145 15.9379 85.7595 13.6618Z" fill="white"/>
<path d="M127.972 2.71956C128.051 2.83091 128.185 3.042 128.27 3.18814C128.462 3.51978 128.62 3.8716 128.747 4.23202C128.799 4.37817 128.867 4.59158 128.895 4.70757C128.926 4.82355 128.956 4.92794 128.966 4.93954C128.977 4.95114 129.046 4.84675 129.121 4.70757C129.196 4.56838 129.325 4.34337 129.407 4.20883C129.769 3.63422 130.18 3.10794 130.655 2.62213C132.604 0.632172 135.369 -0.110233 138.119 0.184092C138.312 0.20265 138.624 0.246725 138.812 0.279201C140.74 0.612095 142.475 1.65429 143.369 3.42012C143.459 3.59178 143.578 3.85391 143.637 4.00005C143.862 4.55939 144.002 5.14512 144.088 5.73985C144.119 5.95094 144.157 6.26411 144.171 6.43577C144.187 6.64454 144.194 9.33775 144.194 22.3955H147.273V23.277H133.948L133.96 22.4071L136.744 22.3955V14.875C136.744 9.98032 136.735 7.2384 136.721 7.0273C136.692 6.66435 136.641 6.30068 136.545 5.94862C135.978 3.87101 133.638 3.43592 131.75 3.80287C131.595 3.83303 131.379 3.88638 131.269 3.91886C130.452 4.17623 129.72 4.6743 129.205 5.35709C129.137 5.44524 129.083 5.53107 129.083 5.54267C129.083 5.75361 129.148 5.9854 129.172 6.1922C129.208 6.4868 129.21 7.25232 129.224 22.3955H131.95V23.277H118.978V22.3955H121.751L121.744 14.6198C121.739 8.52353 121.732 6.80461 121.709 6.66774C121.232 3.91028 118.271 2.97526 115.817 4.13923C115.178 4.45031 114.688 4.87766 114.231 5.41509V22.3955H117.027V23.277H103.585V22.3955H106.781V3.11855L103.409 3.10695V2.34608L108.755 1.30684C111.695 0.736188 114.13 0.262963 114.231 0.242085V2.39944C114.231 3.58482 114.238 4.55679 114.247 4.55679C114.259 4.55911 114.329 4.45704 114.405 4.33177C114.634 3.96075 114.882 3.59589 115.159 3.25774C118.142 -0.452399 124.969 -1.46468 127.972 2.71956Z" fill="white"/>
</svg>
