<svg width="126" height="52" viewBox="0 0 126 52" fill="none" xmlns="http://www.w3.org/2000/svg">
<path d="M38 11.3376C31.1119 10.0605 15.5768 12.1549 10 30.7491H20.9545L26.1828 40.9657H38V30.7491L20.9545 30.7491C24.502 23.7479 27.8135 20.8917 38 21.2988V11.3376Z" fill="black"/>
<path d="M56.2811 29.464C55.5731 29.464 54.9131 29.362 54.3011 29.158C53.7011 28.954 53.1731 28.672 52.7171 28.312C52.2611 27.964 51.9011 27.538 51.6371 27.034C51.3851 26.542 51.2591 25.996 51.2591 25.396C51.2591 25.156 51.2771 24.844 51.3131 24.46C51.3611 24.064 51.4151 23.62 51.4751 23.128C51.5471 22.636 51.6251 22.132 51.7091 21.616L53.2211 21.832C53.1011 22.624 52.9991 23.344 52.9151 23.992C52.8431 24.64 52.8071 25.102 52.8071 25.378C52.8071 25.906 52.9511 26.374 53.2391 26.782C53.5391 27.19 53.9471 27.508 54.4631 27.736C54.9911 27.964 55.5971 28.078 56.2811 28.078H61.3751C62.2751 28.078 62.9531 27.832 63.4091 27.34C63.8771 26.848 64.1111 26.134 64.1111 25.198V24.586H65.6231V25.216C65.6231 26.044 65.4551 26.776 65.1191 27.412C64.7951 28.06 64.3151 28.564 63.6791 28.924C63.0551 29.284 62.2871 29.464 61.3751 29.464H56.2811ZM63.0851 25C62.6651 25 62.2391 24.958 61.8071 24.874C61.3871 24.778 60.9671 24.598 60.5471 24.334L61.4291 23.182C61.5971 23.29 61.7591 23.38 61.9151 23.452C62.0711 23.512 62.2391 23.554 62.4191 23.578C62.6111 23.602 62.8331 23.614 63.0851 23.614H66.5771V25H63.0851ZM66.5771 25V23.614C66.6491 23.614 66.7091 23.632 66.7571 23.668C66.8051 23.692 66.8411 23.734 66.8651 23.794C66.8891 23.854 66.9071 23.926 66.9191 24.01C66.9311 24.094 66.9371 24.19 66.9371 24.298C66.9371 24.406 66.9311 24.508 66.9191 24.604C66.9071 24.688 66.8891 24.76 66.8651 24.82C66.8411 24.88 66.8051 24.928 66.7571 24.964C66.7091 24.988 66.6491 25 66.5771 25ZM66.5703 25V23.614H69.1803C69.8643 23.614 70.5243 23.5 71.1603 23.272C71.7963 23.044 72.3783 22.738 72.9063 22.354C73.4463 21.97 73.9143 21.55 74.3103 21.094C74.7063 20.626 75.0123 20.152 75.2283 19.672C75.4443 19.18 75.5523 18.724 75.5523 18.304V17.206L76.3623 18.448C75.6783 18.1 75.0003 17.836 74.3283 17.656C73.6683 17.476 73.0203 17.386 72.3843 17.386C71.7603 17.386 71.1123 17.476 70.4403 17.656C69.7683 17.836 69.0963 18.1 68.4243 18.448L69.2343 17.206V18.304C69.2343 18.724 69.3423 19.18 69.5583 19.672C69.7863 20.152 70.0923 20.626 70.4763 21.094C70.8723 21.55 71.3343 21.97 71.8623 22.354C72.3903 22.738 72.9723 23.044 73.6083 23.272C74.2443 23.5 74.9103 23.614 75.6063 23.614H78.0903V25H75.6963C74.7603 25 73.8843 24.85 73.0683 24.55C72.2523 24.25 71.5143 23.854 70.8543 23.362C70.1943 22.858 69.6243 22.312 69.1443 21.724C68.6763 21.124 68.3163 20.53 68.0643 19.942C67.8123 19.342 67.6863 18.796 67.6863 18.304V17.224C68.2023 16.948 68.7303 16.72 69.2703 16.54C69.8103 16.36 70.3443 16.228 70.8723 16.144C71.4003 16.048 71.9043 16 72.3843 16C72.8763 16 73.3863 16.048 73.9143 16.144C74.4423 16.228 74.9703 16.36 75.4983 16.54C76.0383 16.72 76.5663 16.948 77.0823 17.224V18.304C77.0823 18.796 76.9563 19.342 76.7043 19.942C76.4523 20.53 76.0863 21.124 75.6063 21.724C75.1383 22.312 74.5743 22.858 73.9143 23.362C73.2543 23.854 72.5163 24.25 71.7003 24.55C70.8843 24.85 70.0083 25 69.0723 25H66.5703ZM66.5703 25C66.4983 25 66.4383 24.988 66.3903 24.964C66.3423 24.928 66.3063 24.88 66.2823 24.82C66.2583 24.76 66.2403 24.688 66.2283 24.604C66.2163 24.508 66.2103 24.406 66.2103 24.298C66.2103 24.154 66.2223 24.034 66.2463 23.938C66.2583 23.842 66.2943 23.764 66.3543 23.704C66.4023 23.644 66.4743 23.614 66.5703 23.614V25ZM78.0903 25V23.614C78.1623 23.614 78.2223 23.632 78.2703 23.668C78.3183 23.692 78.3543 23.734 78.3783 23.794C78.4023 23.854 78.4203 23.926 78.4323 24.01C78.4443 24.094 78.4503 24.19 78.4503 24.298C78.4503 24.406 78.4443 24.508 78.4323 24.604C78.4203 24.688 78.4023 24.76 78.3783 24.82C78.3543 24.88 78.3183 24.928 78.2703 24.964C78.2223 24.988 78.1623 25 78.0903 25ZM91.836 25V23.614H93.78V25H91.836ZM78.084 25C78.012 25 77.952 24.988 77.904 24.964C77.856 24.928 77.82 24.88 77.796 24.82C77.772 24.76 77.754 24.688 77.742 24.604C77.73 24.508 77.724 24.406 77.724 24.298C77.724 24.154 77.736 24.034 77.76 23.938C77.772 23.842 77.808 23.764 77.868 23.704C77.916 23.644 77.988 23.614 78.084 23.614V25ZM87.714 25C87.294 25 86.88 24.922 86.472 24.766C86.064 24.598 85.68 24.346 85.32 24.01L86.31 22.966C86.586 23.194 86.832 23.362 87.048 23.47C87.264 23.566 87.486 23.614 87.714 23.614H90.936L90.288 24.262V19.996C90.288 19.792 90.264 19.492 90.216 19.096C90.18 18.7 90.12 18.256 90.036 17.764C89.964 17.26 89.874 16.756 89.766 16.252L91.278 16C91.362 16.42 91.446 16.888 91.53 17.404C91.614 17.92 91.686 18.412 91.746 18.88C91.806 19.348 91.836 19.72 91.836 19.996V25H87.714ZM78.084 25V23.614H80.712L80.334 23.992V17.8H81.846V25H78.084ZM81.846 25V23.614H83.808C84.216 23.614 84.522 23.554 84.726 23.434C84.942 23.314 85.092 23.074 85.176 22.714C85.26 22.354 85.302 21.826 85.302 21.13V16.9H86.832V21.13C86.832 22.078 86.73 22.84 86.526 23.416C86.322 23.98 85.998 24.388 85.554 24.64C85.11 24.88 84.528 25 83.808 25H81.846ZM93.78 25V23.614C93.852 23.614 93.912 23.632 93.96 23.668C94.008 23.692 94.044 23.734 94.068 23.794C94.092 23.854 94.11 23.926 94.122 24.01C94.134 24.094 94.14 24.19 94.14 24.298C94.14 24.406 94.134 24.508 94.122 24.604C94.11 24.688 94.092 24.76 94.068 24.82C94.044 24.88 94.008 24.928 93.96 24.964C93.912 24.988 93.852 25 93.78 25ZM104.041 25V23.614H105.985V25H104.041ZM93.7812 25C93.7092 25 93.6492 24.988 93.6012 24.964C93.5532 24.928 93.5172 24.88 93.4932 24.82C93.4692 24.76 93.4512 24.688 93.4392 24.604C93.4272 24.508 93.4212 24.406 93.4212 24.298C93.4212 24.154 93.4332 24.034 93.4572 23.938C93.4692 23.842 93.5052 23.764 93.5652 23.704C93.6132 23.644 93.6852 23.614 93.7812 23.614V25ZM93.7812 25V23.614H103.555L102.511 24.37V20.59C102.511 19.774 102.415 19.132 102.223 18.664C102.043 18.196 101.725 17.866 101.269 17.674C100.825 17.482 100.219 17.386 99.4513 17.386C98.9473 17.386 98.4493 17.422 97.9573 17.494C97.4653 17.554 97.0813 17.644 96.8053 17.764L97.7413 16.828C97.6693 17.116 97.5973 17.482 97.5253 17.926C97.4533 18.358 97.3933 18.826 97.3453 19.33C97.2973 19.822 97.2733 20.314 97.2733 20.806C97.2733 21.31 97.2973 21.808 97.3453 22.3C97.3933 22.792 97.4473 23.218 97.5073 23.578C97.5673 23.926 97.6153 24.172 97.6513 24.316L96.1933 24.73C96.1453 24.574 96.0853 24.304 96.0133 23.92C95.9413 23.536 95.8753 23.074 95.8153 22.534C95.7673 21.994 95.7433 21.418 95.7433 20.806C95.7433 20.218 95.7733 19.648 95.8333 19.096C95.8933 18.532 95.9593 18.022 96.0312 17.566C96.1152 17.11 96.1933 16.744 96.2653 16.468C96.5293 16.36 96.9493 16.252 97.5253 16.144C98.1133 16.036 98.7553 15.982 99.4513 15.982C100.471 15.982 101.323 16.132 102.007 16.432C102.691 16.732 103.201 17.218 103.537 17.89C103.873 18.562 104.041 19.462 104.041 20.59V25H93.7812ZM105.985 25V23.614C106.057 23.614 106.117 23.632 106.165 23.668C106.213 23.692 106.249 23.734 106.273 23.794C106.297 23.854 106.315 23.926 106.327 24.01C106.339 24.094 106.345 24.19 106.345 24.298C106.345 24.406 106.339 24.508 106.327 24.604C106.315 24.688 106.297 24.76 106.273 24.82C106.249 24.88 106.213 24.928 106.165 24.964C106.117 24.988 106.057 25 105.985 25ZM108.14 25V12.112H109.688V25H108.14ZM105.98 25V23.614H108.14V25H105.98ZM105.98 25C105.908 25 105.848 24.988 105.8 24.964C105.752 24.928 105.716 24.88 105.692 24.82C105.668 24.76 105.65 24.688 105.638 24.604C105.626 24.508 105.62 24.406 105.62 24.298C105.62 24.154 105.632 24.034 105.656 23.938C105.668 23.842 105.704 23.764 105.764 23.704C105.812 23.644 105.884 23.614 105.98 23.614V25ZM112.753 25V12.112H114.283V25H112.753ZM50.338 41V38.822H51.994V41H50.338ZM58.8826 45.464C58.1746 45.464 57.5146 45.362 56.9026 45.158C56.3026 44.954 55.7746 44.672 55.3186 44.312C54.8626 43.964 54.5026 43.538 54.2386 43.034C53.9866 42.542 53.8606 41.996 53.8606 41.396C53.8606 41.156 53.8786 40.844 53.9146 40.46C53.9626 40.064 54.0166 39.62 54.0766 39.128C54.1486 38.636 54.2266 38.132 54.3106 37.616L55.8226 37.832C55.7026 38.624 55.6006 39.344 55.5166 39.992C55.4446 40.64 55.4086 41.102 55.4086 41.378C55.4086 41.906 55.5526 42.374 55.8406 42.782C56.1406 43.19 56.5486 43.508 57.0646 43.736C57.5926 43.964 58.1986 44.078 58.8826 44.078H63.9766C64.8766 44.078 65.5546 43.832 66.0106 43.34C66.4786 42.848 66.7126 42.134 66.7126 41.198V40.586H68.2246V41.216C68.2246 42.044 68.0566 42.776 67.7206 43.412C67.3966 44.06 66.9166 44.564 66.2806 44.924C65.6566 45.284 64.8886 45.464 63.9766 45.464H58.8826ZM65.6866 41C65.2666 41 64.8406 40.958 64.4086 40.874C63.9886 40.778 63.5686 40.598 63.1486 40.334L64.0306 39.182C64.1986 39.29 64.3606 39.38 64.5166 39.452C64.6726 39.512 64.8406 39.554 65.0206 39.578C65.2126 39.602 65.4346 39.614 65.6866 39.614H69.1786V41H65.6866ZM69.1786 41V39.614C69.2506 39.614 69.3106 39.632 69.3586 39.668C69.4066 39.692 69.4426 39.734 69.4666 39.794C69.4906 39.854 69.5086 39.926 69.5206 40.01C69.5326 40.094 69.5386 40.19 69.5386 40.298C69.5386 40.406 69.5326 40.508 69.5206 40.604C69.5086 40.688 69.4906 40.76 69.4666 40.82C69.4426 40.88 69.4066 40.928 69.3586 40.964C69.3106 40.988 69.2506 41 69.1786 41ZM59.0086 48.794V47.12H60.5386V48.794H59.0086ZM61.5826 48.794V47.12H63.1126V48.794H61.5826ZM73.0059 40.91C72.3579 40.358 71.8659 39.728 71.5299 39.02C71.1939 38.312 71.0259 37.562 71.0259 36.77C71.0259 36.086 71.1459 35.456 71.3859 34.88C71.6379 34.292 71.9739 33.782 72.3939 33.35C72.8259 32.918 73.3299 32.588 73.9059 32.36C74.4819 32.12 75.0999 32 75.7599 32C76.1199 32 76.4979 32.036 76.8939 32.108C77.2899 32.18 77.6739 32.282 78.0459 32.414L77.5419 33.71C77.2419 33.614 76.9419 33.536 76.6419 33.476C76.3419 33.416 76.0599 33.386 75.7959 33.386C75.1719 33.386 74.6139 33.53 74.1219 33.818C73.6299 34.106 73.2459 34.508 72.9699 35.024C72.7059 35.528 72.5739 36.11 72.5739 36.77C72.5739 37.37 72.6939 37.934 72.9339 38.462C73.1859 38.99 73.5519 39.464 74.0319 39.884L73.0059 40.91ZM69.1719 41V39.614H78.2619V41H69.1719ZM69.1719 41C69.0999 41 69.0399 40.988 68.9919 40.964C68.9439 40.928 68.9079 40.88 68.8839 40.82C68.8599 40.76 68.8419 40.688 68.8299 40.604C68.8179 40.508 68.8119 40.406 68.8119 40.298C68.8119 40.154 68.8239 40.034 68.8479 39.938C68.8599 39.842 68.8959 39.764 68.9559 39.704C69.0039 39.644 69.0759 39.614 69.1719 39.614V41ZM81.4991 41V28.112H83.0291V41H81.4991ZM92.4861 41V39.614H94.4121V41H92.4861ZM85.4661 41V39.614H92.1621L90.9381 40.694V36.896C90.9381 36.008 90.8361 35.312 90.6321 34.808C90.4401 34.292 90.1161 33.926 89.6601 33.71C89.2041 33.494 88.5921 33.386 87.8241 33.386H86.3661V32H87.8241C88.8081 32 89.6481 32.156 90.3441 32.468C91.0401 32.768 91.5681 33.278 91.9281 33.998C92.3001 34.706 92.4861 35.672 92.4861 36.896V41H85.4661ZM94.4121 41V39.614C94.4841 39.614 94.5441 39.632 94.5921 39.668C94.6401 39.692 94.6761 39.734 94.7001 39.794C94.7241 39.854 94.7421 39.926 94.7541 40.01C94.7661 40.094 94.7721 40.19 94.7721 40.298C94.7721 40.406 94.7661 40.508 94.7541 40.604C94.7421 40.688 94.7241 40.76 94.7001 40.82C94.6761 40.88 94.6401 40.928 94.5921 40.964C94.5441 40.988 94.4841 41 94.4121 41ZM94.4141 41V39.614H97.0961L96.3581 40.226V32H97.8881V41H94.4141ZM94.4141 41C94.3421 41 94.2821 40.988 94.2341 40.964C94.1861 40.928 94.1501 40.88 94.1261 40.82C94.1021 40.76 94.0841 40.688 94.0721 40.604C94.0601 40.508 94.0541 40.406 94.0541 40.298C94.0541 40.154 94.0661 40.034 94.0901 39.938C94.1021 39.842 94.1381 39.764 94.1981 39.704C94.2461 39.644 94.3181 39.614 94.4141 39.614V41ZM96.3581 44.33V42.656H97.9061V44.33H96.3581ZM100.056 41V39.614H108.912L108.066 40.478V28.112H109.614V41H100.056ZM102.882 39.614V30.668H104.412V39.614H102.882ZM102.774 45.914C102.582 45.674 102.432 45.434 102.324 45.194C102.216 44.966 102.162 44.726 102.162 44.474C102.162 44.114 102.252 43.79 102.432 43.502C102.612 43.226 102.852 43.004 103.152 42.836C103.452 42.68 103.776 42.602 104.124 42.602C104.316 42.602 104.508 42.626 104.7 42.674C104.904 42.734 105.078 42.812 105.222 42.908L104.736 43.772C104.64 43.712 104.544 43.67 104.448 43.646C104.364 43.634 104.274 43.628 104.178 43.628C103.902 43.628 103.68 43.706 103.512 43.862C103.356 44.018 103.278 44.222 103.278 44.474C103.278 44.618 103.308 44.762 103.368 44.906C103.44 45.05 103.542 45.206 103.674 45.374L102.774 45.914ZM101.82 45.932V44.924H105.474V45.932H101.82ZM112.753 41V28.112H114.283V41H112.753Z" fill="black"/>
</svg>
