<svg width="94" height="49" viewBox="0 0 94 49" fill="none" xmlns="http://www.w3.org/2000/svg">
<path d="M23.2566 0.5C22.9844 0.895954 22.6596 1.33927 22.2756 1.82999C21.5836 2.7526 21.007 3.40604 20.5072 3.86744C21.0455 4.9055 21.4299 5.82812 21.6221 6.67377C21.8143 7.51961 21.9681 8.82667 22.0834 10.6336C22.1603 12.4021 22.2756 15.2084 22.314 19.0528C22.3525 21.8976 23.1443 23.4848 24.2592 24.7533C25.3741 26.0219 27.181 26.6371 29.7567 26.6371C32.222 26.6371 38.3469 26.8114 39.879 24.6412C40.3403 23.9876 40.8786 22.988 41.4937 21.681C41.5488 24.0491 42.3529 24.8032 44.3567 25.639C51.0281 28.4217 64.5721 27.1203 70.3296 25.658C72.8381 24.9612 73.0145 24.4324 74.4156 22.0971C74.3068 23.5848 74.5746 24.73 75.2838 25.5327C75.3679 25.6279 75.473 25.7021 75.589 25.7539C77.301 26.5183 79.4675 26.4309 81.1103 26.0032C81.2597 25.9643 81.3985 25.8931 81.5128 25.7893C82.2665 25.1056 83.0532 23.926 83.8729 22.2509C83.6807 23.8271 84.1035 25.0189 85.1799 25.8263C86.1973 26.6551 88.6031 27.0779 90.2549 27.1668L92.9236 21.4437C91.503 21.4404 89.1669 21.2862 88.1017 20.9438C86.9484 20.6748 86.2179 20.2134 85.872 19.5983L86.8323 16.3514L85.9961 15.8686C85.3281 16.2426 84.6595 16.5945 83.9926 16.9239C83.7168 17.5867 83.3998 18.2026 83.1069 18.7717L83.1066 18.7724C83.0047 18.9702 82.9058 19.1625 82.8125 19.349C81.6107 21.5023 77.9876 21.1469 76.6839 19.752L78.5292 16.0448L77.9996 15.739C77.0462 16.2801 76.091 16.7762 75.1408 17.2266C73.8089 19.4596 72.2501 20.7035 70.9178 21.1188C68.2718 22.2947 44.743 24.4364 43.4637 19.5679L44.4047 16.4696L43.545 15.9733C42.7815 16.3959 42.0175 16.7896 41.2564 17.154C40.7341 18.2477 39.8382 19.4404 39.1535 20.2754C38.5634 20.995 37.7174 21.4448 36.794 21.5602C33.6692 21.9505 26.4081 22.5646 25.5601 19.9834C25.2141 19.3298 25.0436 17.7457 25.0436 16.6309C25.0436 11.5562 25.0051 8.13475 24.9667 6.32781C24.9282 4.52106 24.8129 3.21382 24.6976 2.36817C24.6295 1.99356 24.5388 1.61145 24.4187 1.21513L23.2566 0.5Z" fill="#2D313A"/>
<path d="M92.9561 21.374L93.1905 20.8714C93.4515 20.1831 93.6429 19.613 93.7635 19.1609C94.0911 17.9318 94.031 16.1087 93.8669 14.6259L92.8894 14.0616C91.9115 15.1231 90.7547 16.1645 89.8339 16.8923C90.9929 18.0711 92.9561 20.4595 92.9561 21.1601V21.374Z" fill="#2D313A"/>
<path d="M82.2039 4.733L79.4406 7.05177L55.7837 11.4455L57.4143 8.38799L59.4457 6.68352L83.5126 2.26398L82.2039 4.733Z" fill="#2D313A"/>
<path d="M39.0571 7.7879L42.438 4.1462C43.6688 5.36054 44.9869 6.39302 46.269 7.30182L42.9253 10.9871C41.9865 10.0061 40.4603 8.62795 39.0571 7.7879Z" fill="#2D313A"/>
<path d="M0.716004 30.5957L1.1334 48.5L2.40582 47.2229L4.58943 41.1622L4.36297 22.321L0.716004 30.5957Z" fill="#2D313A"/>
<path d="M10.1267 11.1031L8.78085 12.2819L7.09453 16.0355C10.6774 12.382 15.4009 18.408 14.9585 21.0779L16.3363 18.3926C16.2899 15.128 13.6736 10.2357 10.1267 11.1031Z" fill="#2D313A"/>
<path d="M13.8096 21.3265C14.2427 21.3302 14.5952 21.3121 14.842 21.2965L11.0804 26.7372C7.64962 26.0739 6.41553 25.1494 4.41636 22.1999L6.78091 17.0101C8.32862 19.8093 11.5842 21.2681 13.8096 21.3265Z" fill="#2D313A"/>
</svg>
