<svg width="148" height="25" viewBox="0 0 148 25" fill="none" xmlns="http://www.w3.org/2000/svg">
<path d="M8.93562 0.75379C9.10247 0.742192 9.64769 0.737552 10.1459 0.742192C11.1752 0.756569 12.1937 0.816189 13.2128 0.964886C14.2215 1.10343 15.2541 1.30147 16.2208 1.62369C16.4018 1.684 16.6603 1.78143 16.7943 1.84174C16.9282 1.89974 17.0457 1.96469 17.0551 1.98325C17.0669 2.00181 17.1068 2.21058 17.1468 2.44719C17.1867 2.68381 17.2337 3.01785 17.2549 3.18951C17.3765 4.29998 17.4136 5.41348 17.3982 6.52992C17.3912 7.10986 17.3794 7.66195 17.3606 7.92176L17.2032 7.938C17.1139 7.94496 16.9635 7.95192 16.6838 7.95656L15.2221 5.96159C14.4183 4.86436 13.6898 3.87847 13.6052 3.76944C13.5206 3.66041 13.3538 3.46324 13.2339 3.32869C12.5871 2.58809 11.7888 2.00501 10.8157 1.77215C10.6606 1.73504 10.4279 1.69096 10.2987 1.6724C10.1694 1.65385 9.89915 1.63065 9.69939 1.62137C9.47614 1.61209 9.21763 1.61673 9.02962 1.63297C7.86442 1.74637 6.72092 2.32878 6.03093 3.2823C5.96983 3.36581 5.86877 3.53283 5.80297 3.65346C5.73717 3.77408 5.65022 3.96198 5.61027 4.07101C5.1698 5.27304 5.38026 6.50011 6.50329 7.20728C6.6396 7.29543 6.91926 7.44854 7.12606 7.5506C7.33287 7.65035 7.67598 7.80114 7.88984 7.88233C8.10369 7.96584 9.18708 8.33467 10.2987 8.70583L10.4258 8.74826C11.4953 9.10538 12.5533 9.45863 12.8132 9.54789C13.0835 9.63836 13.4971 9.78683 13.7298 9.87498C17.3158 11.2694 19.8583 13.6269 19.1114 17.7226C19.0903 17.8386 19.0409 18.052 19.0057 18.1982C18.9681 18.3443 18.8952 18.5856 18.8459 18.7317C18.1973 20.565 16.9125 22.0422 15.2338 23.0464C13.9447 23.8176 12.4908 24.2645 11.0037 24.4614C10.8086 24.487 10.5031 24.5194 10.3222 24.5357C7.1142 24.8027 3.8609 24.276 0.827867 23.2413L0.799666 23.1021C0.581664 22.1184 0.49919 21.1025 0.428355 20.1004C0.409554 19.8011 0.383703 19.3186 0.369603 19.0286C0.357853 18.7364 0.346102 18.0938 0.346102 16.6903L0.444805 16.6648C0.492606 16.653 0.601132 16.6246 0.703219 16.5978L0.757365 16.5836C0.872519 16.5512 0.980622 16.528 0.997072 16.5326C1.01117 16.5372 1.53994 17.1775 2.16741 17.9546C4.2037 20.4671 6.35111 23.9857 10.0284 23.6727C10.1647 23.6588 10.3809 23.6263 10.5102 23.6008C10.6394 23.5753 10.8721 23.5127 11.0272 23.4616C13.8084 22.5466 14.5308 19.0926 12.0495 17.7319C11.9014 17.653 11.6006 17.5069 11.3797 17.4095C9.41172 16.5415 7.32052 15.9688 5.31651 15.1895C5.0063 15.0689 4.57388 14.8902 4.35298 14.7951C3.19025 14.2945 2.08582 13.6563 1.26265 12.6888C1.1898 12.6007 1.0817 12.4592 1.02295 12.3756C0.00301591 10.9259 -0.149918 9.05515 0.113469 7.35343C0.141669 7.18641 0.193371 6.9266 0.228622 6.77349C0.266223 6.62039 0.339076 6.36058 0.393127 6.19356C0.447179 6.02654 0.534132 5.79225 0.585833 5.67162C1.22912 4.17076 2.39297 2.97245 3.81246 2.15723C3.94171 2.08532 4.17907 1.95773 4.34123 1.87886C4.50338 1.79767 4.76659 1.67936 4.92874 1.61209C5.0909 1.54482 5.42461 1.42419 5.66902 1.343C6.73046 1.00047 7.82411 0.831055 8.93562 0.75379Z" fill="#2D313A"/>
<path fill-rule="evenodd" clip-rule="evenodd" d="M36.2905 0.895324C40.0873 1.30048 42.5614 3.11334 43.0211 6.9707C43.047 7.16788 43.0799 7.46016 43.0916 7.62023C43.1057 7.78029 43.1292 8.10273 43.141 8.33934C43.1551 8.60379 43.1645 11.246 43.1645 21.6082H46.3136V22.3621L41.7239 23.3341C39.2023 23.8699 37.0284 24.3293 36.6571 24.4035C36.2189 23.3512 35.9283 22.2525 35.7994 21.1211C35.7806 20.9355 35.757 20.6942 35.75 20.5806C35.743 20.4692 35.7312 20.3788 35.7218 20.3788C35.71 20.3788 35.6677 20.4646 35.6231 20.569C35.5784 20.6757 35.475 20.896 35.3904 21.0631C35.2394 21.3697 35.0656 21.663 34.8711 21.9446C34.8006 22.0466 34.6572 22.2345 34.5538 22.3621C33.6364 23.4941 32.3852 24.226 30.9558 24.4847C25.7444 25.342 20.5414 20.6119 23.0149 15.2405C23.0854 15.0874 23.2053 14.8462 23.2852 14.707C23.3627 14.5678 23.5273 14.3057 23.6471 14.1271C23.7693 13.9485 23.9456 13.7026 24.2158 13.3616L35.703 12.2481L35.71 9.70798C35.7147 8.22568 35.7077 6.87791 35.6912 6.47196C35.6433 4.90951 35.6551 2.59708 33.9757 1.78842C33.8793 1.74435 33.6937 1.68171 33.5644 1.64692C32.844 1.4659 32.1379 1.58943 31.5316 2.02735C31.4353 2.09462 31.2496 2.24077 31.1204 2.3498C30.9911 2.46114 30.6973 2.73255 30.4647 2.95757C30.2344 3.18026 29.8372 3.58389 29.5834 3.85066C27.8536 5.68459 26.3755 7.74981 24.6224 9.5572L24.3051 9.49921C24.0067 9.44353 23.9879 9.4389 23.9785 9.38322C23.9714 9.35075 23.9526 9.24172 23.9362 9.13965C23.915 9.01438 23.9056 8.7105 23.908 8.20016C23.908 6.73907 24.1211 5.23963 24.5049 3.82746C24.5543 3.63493 24.6389 3.35424 24.6906 3.20114C24.7399 3.04803 24.8151 2.8439 24.8527 2.74879C24.8927 2.65368 24.9514 2.5145 24.9843 2.44026C25.0407 2.315 25.0548 2.3034 25.2052 2.23613C25.2922 2.19669 25.4896 2.1155 25.6447 2.05519C26.3845 1.75644 27.1691 1.55165 27.9478 1.38015C30.7128 0.771113 33.4684 0.575344 36.2905 0.895324ZM29.7808 14.2895C29.8114 14.1619 29.8678 13.9554 29.9101 13.8325L29.9829 13.6051H35.7147V19.7292L35.5808 19.9102C35.5056 20.0076 35.3505 20.1862 35.233 20.3068C35.1178 20.4251 34.9369 20.5898 34.8335 20.6687C34.0077 21.2986 32.9325 21.5743 31.9076 21.3275C31.8113 21.302 31.6374 21.2394 31.5199 21.1883C28.9928 20.0908 29.2358 16.5656 29.7808 14.2895Z" fill="#2D313A"/>
<path d="M73.3958 6.46033C73.417 6.62039 73.4475 6.85932 73.4616 6.99387C73.4804 7.16785 73.4898 9.50614 73.5039 23H76.2065V23.8815H63.2576V23H66.0307L66.0236 15.2707C66.0189 8.20477 66.0142 7.51813 65.979 7.30703C65.9578 7.17956 65.9179 6.98267 65.8944 6.86663C65.2555 4.00016 61.4286 3.64948 59.2766 5.08009C59.1638 5.15664 58.9734 5.30279 58.8559 5.40485C58.7384 5.50692 58.5598 5.6809 58.2755 5.99639V23H61.0485V23.8815H47.6061V23H50.8022V3.72305H47.4416L47.4534 2.94826L54.1067 1.65489C56.4835 1.19303 58.2668 0.846582 58.2708 0.846582C58.2731 0.846582 58.2778 1.82551 58.2872 5.19376L58.4635 4.90611C58.5598 4.74605 58.7055 4.5164 58.7901 4.39577C58.8724 4.27514 59.011 4.08725 59.0933 3.97822C62.9836 -1.03529 72.6242 -0.109208 73.3958 6.46033Z" fill="#2D313A"/>
<path fill-rule="evenodd" clip-rule="evenodd" d="M92.2692 0.872126C96.066 1.27729 98.5401 3.09014 98.9998 6.9475C99.0257 7.14468 99.0586 7.43697 99.0704 7.59703C99.0845 7.75709 99.1079 8.07953 99.1197 8.31615C99.1338 8.58059 99.1432 11.2228 99.1432 21.585H102.292V22.3389L97.7026 23.3109C95.181 23.8467 93.0072 24.3061 92.6359 24.3803C92.1976 23.328 91.907 22.2293 91.7781 21.0979C91.7593 20.9123 91.7358 20.671 91.7287 20.5574C91.7217 20.446 91.7099 20.3556 91.7005 20.3556C91.6888 20.3556 91.6465 20.4414 91.6018 20.5458C91.5572 20.6525 91.4538 20.8729 91.3692 21.0399C91.2182 21.3465 91.0443 21.6398 90.8498 21.9214C90.7793 22.0234 90.6359 22.2113 90.5325 22.3389C89.6151 23.4709 88.3639 24.2028 86.9346 24.4615C81.7231 25.3188 76.5202 20.5887 78.9936 15.2173C79.0641 15.0642 79.184 14.823 79.2639 14.6838C79.3414 14.5446 79.506 14.2825 79.6259 14.1039C79.7481 13.9253 79.9243 13.6794 80.1946 13.3384L91.6817 12.2249L91.6888 9.68479C91.6935 8.20248 91.6864 6.85471 91.67 6.44876C91.622 4.88631 91.6339 2.57388 89.9544 1.76522C89.8581 1.72115 89.6724 1.65852 89.5432 1.62372C88.8227 1.44271 88.1167 1.56623 87.5103 2.00416C87.414 2.07143 87.2283 2.21757 87.0991 2.3266C86.9698 2.43795 86.6761 2.70935 86.4434 2.93437C86.2131 3.15706 85.8159 3.5607 85.5621 3.82746C83.8324 5.66139 82.3542 7.72662 80.6011 9.534L80.2839 9.47601C79.9854 9.42034 79.9666 9.4157 79.9572 9.36002C79.9502 9.32755 79.9314 9.21852 79.9149 9.11645C79.8938 8.99119 79.8844 8.6873 79.8867 8.17696C79.8867 6.71587 80.0998 5.21643 80.4836 3.80427C80.533 3.61173 80.6176 3.33104 80.6693 3.17794C80.7186 3.02484 80.7938 2.8207 80.8314 2.72559C80.8714 2.63048 80.9301 2.4913 80.963 2.41707C81.0194 2.2918 81.0335 2.2802 81.1839 2.21293C81.2709 2.1735 81.4683 2.09231 81.6234 2.03199C82.3633 1.73324 83.1478 1.52846 83.9265 1.35695C86.6916 0.747916 89.4471 0.552147 92.2692 0.872126ZM85.7595 14.2663C85.7901 14.1387 85.8465 13.9322 85.8888 13.8093L85.9616 13.5819H91.6935V19.706L91.5595 19.887C91.4843 19.9844 91.3292 20.163 91.2117 20.2836C91.0966 20.4019 90.9156 20.5666 90.8122 20.6455C89.9864 21.2754 88.9112 21.5511 87.8864 21.3043C87.79 21.2788 87.6161 21.2162 87.4986 21.1651C84.9715 20.0676 85.2145 16.5424 85.7595 14.2663Z" fill="#2D313A"/>
<path d="M127.972 3.32405C128.051 3.4354 128.185 3.64649 128.27 3.79264C128.462 4.12428 128.62 4.47609 128.747 4.83652C128.799 4.98266 128.867 5.19607 128.895 5.31206C128.926 5.42805 128.956 5.53243 128.966 5.54403C128.977 5.55563 129.046 5.45124 129.121 5.31206C129.196 5.17288 129.325 4.94786 129.407 4.81332C129.769 4.23872 130.18 3.71243 130.655 3.22662C132.604 1.23666 135.369 0.494259 138.119 0.788584C138.312 0.807142 138.624 0.851217 138.812 0.883693C140.74 1.21659 142.475 2.25878 143.369 4.02461C143.459 4.19627 143.578 4.4584 143.637 4.60454C143.862 5.16388 144.002 5.74961 144.088 6.34434C144.119 6.55544 144.157 6.8686 144.171 7.04026C144.187 7.24904 144.194 9.94225 144.194 23H147.273V23.8815H133.948L133.96 23.0116L136.744 23V15.4794C136.744 10.5848 136.735 7.84289 136.721 7.63179C136.692 7.26884 136.641 6.90517 136.545 6.55312C135.978 4.47551 133.638 4.04042 131.75 4.40737C131.595 4.43752 131.379 4.49088 131.269 4.52335C130.452 4.78072 129.72 5.27879 129.205 5.96159C129.137 6.04974 129.083 6.13556 129.083 6.14716C129.083 6.35811 129.148 6.58989 129.172 6.79669C129.208 7.09129 129.21 7.85681 129.224 23H131.95V23.8815H118.978V23H121.751L121.744 15.2243C121.739 9.12802 121.732 7.4091 121.709 7.27223C121.232 4.51477 118.271 3.57975 115.817 4.74373C115.178 5.0548 114.688 5.48215 114.231 6.01958V23H117.027V23.8815H103.585V23H106.781V3.72304L103.409 3.71145V2.95057L108.755 1.91133C111.695 1.34068 114.13 0.867455 114.231 0.846578V3.00393C114.231 4.18931 114.238 5.16128 114.247 5.16128C114.259 5.1636 114.329 5.06153 114.405 4.93626C114.634 4.56524 114.882 4.20038 115.159 3.86223C118.142 0.152093 124.969 -0.860184 127.972 3.32405Z" fill="#2D313A"/>
</svg>
