<svg width="94" height="48" viewBox="0 0 94 48" fill="none" xmlns="http://www.w3.org/2000/svg">
<path d="M23.2566 0C22.9844 0.395954 22.6596 0.839274 22.2756 1.32999C21.5836 2.2526 21.007 2.90604 20.5072 3.36744C21.0455 4.4055 21.4299 5.32812 21.6221 6.17377C21.8143 7.01961 21.9681 8.32667 22.0834 10.1336C22.1603 11.9021 22.2756 14.7084 22.314 18.5528C22.3525 21.3976 23.1443 22.9848 24.2592 24.2533C25.3741 25.5219 27.181 26.1371 29.7567 26.1371C32.222 26.1371 38.3469 26.3114 39.879 24.1412C40.3403 23.4876 40.8786 22.488 41.4937 21.181C41.5488 23.5491 42.3529 24.3032 44.3567 25.139C51.0281 27.9217 64.5721 26.6203 70.3296 25.158C72.8381 24.4612 73.0145 23.9324 74.4156 21.5971C74.3068 23.0848 74.5746 24.23 75.2838 25.0327C75.3679 25.1279 75.473 25.2021 75.589 25.2539C77.301 26.0183 79.4675 25.9309 81.1103 25.5032C81.2597 25.4643 81.3985 25.3931 81.5128 25.2893C82.2665 24.6056 83.0532 23.426 83.8729 21.7509C83.6807 23.3271 84.1035 24.5189 85.1799 25.3263C86.1973 26.1551 88.6031 26.5779 90.2549 26.6668L92.9236 20.9437C91.503 20.9404 89.1669 20.7862 88.1017 20.4438C86.9484 20.1748 86.2179 19.7134 85.872 19.0983L86.8323 15.8514L85.9961 15.3686C85.3281 15.7426 84.6595 16.0945 83.9926 16.4239C83.7168 17.0867 83.3998 17.7026 83.1069 18.2717L83.1066 18.2724C83.0047 18.4702 82.9058 18.6625 82.8125 18.849C81.6107 21.0023 77.9876 20.6469 76.6839 19.252L78.5292 15.5448L77.9996 15.239C77.0462 15.7801 76.091 16.2762 75.1408 16.7266C73.8089 18.9596 72.2501 20.2035 70.9178 20.6188C68.2718 21.7947 44.743 23.9364 43.4637 19.0679L44.4047 15.9696L43.545 15.4733C42.7815 15.8959 42.0175 16.2896 41.2564 16.654C40.7341 17.7477 39.8382 18.9404 39.1535 19.7754C38.5634 20.495 37.7174 20.9448 36.794 21.0602C33.6692 21.4505 26.4081 22.0646 25.5601 19.4834C25.2141 18.8298 25.0436 17.2457 25.0436 16.1309C25.0436 11.0562 25.0051 7.63475 24.9667 5.82781C24.9282 4.02106 24.8129 2.71382 24.6976 1.86817C24.6295 1.49356 24.5388 1.11145 24.4187 0.715127L23.2566 0Z" fill="#F9FAFB"/>
<path d="M92.9561 20.874L93.1905 20.3714C93.4515 19.6831 93.6429 19.113 93.7635 18.6609C94.0911 17.4318 94.031 15.6087 93.8669 14.1259L92.8894 13.5616C91.9115 14.6231 90.7547 15.6645 89.8339 16.3923C90.9929 17.5711 92.9561 19.9595 92.9561 20.6601V20.874Z" fill="#F9FAFB"/>
<path d="M82.2039 4.233L79.4406 6.55177L55.7837 10.9455L57.4143 7.88799L59.4457 6.18352L83.5126 1.76398L82.2039 4.233Z" fill="#F9FAFB"/>
<path d="M39.0571 7.2879L42.438 3.6462C43.6688 4.86054 44.9869 5.89302 46.269 6.80182L42.9253 10.4871C41.9865 9.50609 40.4603 8.12795 39.0571 7.2879Z" fill="#F9FAFB"/>
<path d="M0.716004 30.0957L1.1334 48L2.40582 46.7229L4.58943 40.6622L4.36297 21.821L0.716004 30.0957Z" fill="#F9FAFB"/>
<path d="M10.1267 10.6031L8.78085 11.7819L7.09453 15.5355C10.6774 11.882 15.4009 17.908 14.9585 20.5779L16.3363 17.8926C16.2899 14.628 13.6736 9.73574 10.1267 10.6031Z" fill="#F9FAFB"/>
<path d="M13.8096 20.8265C14.2427 20.8302 14.5952 20.8121 14.842 20.7965L11.0804 26.2372C7.64962 25.5739 6.41553 24.6494 4.41636 21.6999L6.78091 16.5101C8.32862 19.3093 11.5842 20.7681 13.8096 20.8265Z" fill="#F9FAFB"/>
</svg>
