<svg width="156" height="52" viewBox="0 0 156 52" fill="none" xmlns="http://www.w3.org/2000/svg">
<path d="M38 11.3376C31.1119 10.0605 15.5768 12.1549 10 30.7491H20.9545L26.1828 40.9657H38V30.7491L20.9545 30.7491C24.502 23.7479 27.8135 20.8917 38 21.2988V11.3376Z" fill="black"/>
<path d="M50.934 18.7C50.934 21.85 52.14 23.38 54.552 23.38C56.64 23.38 57.792 22.39 58.044 20.104H60.294C60.006 23.632 58.044 25.27 54.588 25.27C50.682 25.27 48.684 23.074 48.684 18.7C48.684 14.326 50.628 12.13 54.336 12.13C57.63 12.13 59.466 13.786 59.754 17.296H57.504C57.252 15.01 56.226 14.02 54.3 14.02C52.068 14.02 50.934 15.55 50.934 18.7ZM63.8778 25H61.7178V16H63.8778L63.6978 17.89H64.0578C64.4538 16.432 65.2458 16 66.6678 16H68.2158V18.07L66.2538 17.908C64.6878 17.764 63.8778 18.556 63.8778 20.374V25ZM75.8464 21.238H77.9704C77.7004 23.794 76.2244 25.27 73.5784 25.27C70.5184 25.27 68.8624 23.434 68.8624 20.5C68.8624 17.566 70.4824 15.73 73.4524 15.73C76.2064 15.73 77.6104 17.404 77.6104 20.302H70.9864C70.9864 22.192 71.4364 23.47 73.5784 23.47C75.0724 23.47 75.6844 22.75 75.8464 21.238ZM71.1664 19.042H75.4144C75.3784 18.106 74.7484 17.476 73.4704 17.476C72.1744 17.476 71.4544 17.98 71.1664 19.042ZM84.6373 16C86.1133 16 86.9773 16.864 86.9773 18.34V22.75C86.9773 23.254 87.0313 23.38 87.5173 23.29L88.5433 23.11V25H87.3373C86.0233 25 85.2133 24.226 85.2133 23.11H84.8533C84.4933 24.55 83.5753 25.27 82.0633 25.27C80.0473 25.252 79.0033 24.208 79.0033 22.552C79.0033 20.662 80.1913 19.69 82.7833 19.69H84.8173V18.25C84.8173 17.746 84.7813 17.674 84.2773 17.71L79.6873 17.98V16H84.6373ZM82.7113 23.47C84.1153 23.47 84.8173 22.678 84.8173 21.076V20.86H82.9453C81.7393 20.86 81.1633 21.274 81.1633 22.192C81.1633 23.002 81.6673 23.47 82.7113 23.47ZM88.2736 17.8V16H90.0736L90.4336 12.94H92.6836L92.0536 15.82L92.1616 16.162L95.5816 16V17.8H92.2336V22.75C92.2336 23.254 92.2696 23.326 92.7736 23.29L95.9416 23.02V25H92.6836C91.0276 25 90.0736 24.046 90.0736 22.39V17.8H88.2736ZM98.9302 13.498C98.9302 12.688 99.4342 12.22 100.37 12.22C101.306 12.22 101.81 12.688 101.81 13.498C101.81 14.308 101.306 14.776 100.37 14.776C99.4342 14.776 98.9302 14.308 98.9302 13.498ZM97.6342 16H99.2902C101.036 16 101.882 16.864 101.882 18.61V23.164H104.582V25H97.0942V23.164H99.8122V18.16C99.8122 17.656 99.7582 17.53 99.2722 17.62L97.6342 17.89V16ZM113.594 16L111.2 25H106.754L104.342 16H106.502L108.788 24.73H109.148L111.434 16H113.594ZM121.145 21.238H123.269C122.999 23.794 121.523 25.27 118.877 25.27C115.817 25.27 114.161 23.434 114.161 20.5C114.161 17.566 115.781 15.73 118.751 15.73C121.505 15.73 122.909 17.404 122.909 20.302H116.285C116.285 22.192 116.735 23.47 118.877 23.47C120.371 23.47 120.983 22.75 121.145 21.238ZM116.465 19.042H120.713C120.677 18.106 120.047 17.476 118.769 17.476C117.473 17.476 116.753 17.98 116.465 19.042ZM57.414 41H49.08V28.4H57.414V30.254H51.222V33.764H56.874V35.636H51.222V39.128H57.414V41ZM61.2411 41H59.0811V32H61.2411L61.0611 33.98H61.4211C61.7811 32.522 62.7351 31.73 64.4991 31.73C66.8571 31.73 67.8651 32.954 67.8651 35.384V41H65.5251L65.8851 35.78C65.9751 34.358 65.2551 33.71 63.7611 33.71C62.0151 33.71 61.2411 34.718 61.2411 36.374V41ZM77.1285 27.5H79.2885V38.66C79.2885 39.164 79.3245 39.29 79.8285 39.2L80.8545 39.02V41H79.6485C78.3165 41 77.3085 40.118 77.3085 38.93H76.9485C76.4985 40.388 75.4365 41.27 73.6005 41.27C70.9185 41.27 69.4425 39.434 69.4425 36.5C69.4425 33.566 70.9185 31.73 73.6005 31.73C75.5265 31.73 76.4985 32.612 76.9485 34.07H77.3085L77.1285 32.432V27.5ZM77.0385 36.5C77.0385 34.79 75.9945 33.62 74.2125 33.62C72.4845 33.62 71.6025 34.646 71.6025 36.5C71.6025 38.354 72.4845 39.38 74.2125 39.38C76.1385 39.38 77.0385 38.21 77.0385 36.5ZM88.5554 37.238H90.6794C90.4094 39.794 88.9334 41.27 86.2874 41.27C83.2274 41.27 81.5714 39.434 81.5714 36.5C81.5714 33.566 83.1914 31.73 86.1614 31.73C88.9154 31.73 90.3194 33.404 90.3194 36.302H83.6954C83.6954 38.192 84.1454 39.47 86.2874 39.47C87.7814 39.47 88.3934 38.75 88.5554 37.238ZM83.8754 35.042H88.1234C88.0874 34.106 87.4574 33.476 86.1794 33.476C84.8834 33.476 84.1634 33.98 83.8754 35.042ZM97.3463 32C98.8223 32 99.6863 32.864 99.6863 34.34V38.75C99.6863 39.254 99.7403 39.38 100.226 39.29L101.252 39.11V41H100.046C98.7323 41 97.9223 40.226 97.9223 39.11H97.5623C97.2023 40.55 96.2843 41.27 94.7723 41.27C92.7563 41.252 91.7123 40.208 91.7123 38.552C91.7123 36.662 92.9003 35.69 95.4923 35.69H97.5263V34.25C97.5263 33.746 97.4903 33.674 96.9863 33.71L92.3963 33.98V32H97.3463ZM95.4203 39.47C96.8243 39.47 97.5263 38.678 97.5263 37.076V36.86H95.6543C94.4483 36.86 93.8723 37.274 93.8723 38.192C93.8723 39.002 94.3763 39.47 95.4203 39.47ZM110.448 32L108.054 41H103.608L101.196 32H103.356L105.642 40.73H106.002L108.288 32H110.448ZM111.015 36.5C111.015 33.566 112.869 31.73 115.821 31.73C118.773 31.73 120.609 33.566 120.609 36.5C120.609 39.434 118.773 41.27 115.821 41.27C112.869 41.27 111.015 39.434 111.015 36.5ZM113.139 36.5C113.139 38.408 114.039 39.47 115.821 39.47C117.585 39.47 118.503 38.408 118.503 36.5C118.503 34.592 117.585 33.53 115.821 33.53C114.039 33.53 113.139 34.592 113.139 36.5ZM122.149 32H124.489L124.129 37.22C124.021 38.66 124.759 39.29 126.235 39.29C127.963 39.29 128.737 38.3 128.773 36.698V32H130.933V38.66C130.933 39.164 130.969 39.29 131.473 39.2L132.481 39.02V41H131.293C129.925 41 128.953 40.172 128.971 39.02H128.611C128.251 40.478 127.189 41.27 125.497 41.27C123.139 41.27 122.149 40.046 122.149 37.616V32ZM135.966 41H133.806V32H135.966L135.786 33.89H136.146C136.542 32.432 137.334 32 138.756 32H140.304V34.07L138.342 33.908C136.776 33.764 135.966 34.556 135.966 36.374V41ZM141.121 39.812C141.121 38.894 141.625 38.354 142.579 38.354C143.533 38.354 144.037 38.894 144.037 39.812C144.037 40.73 143.533 41.27 142.579 41.27C141.625 41.27 141.121 40.73 141.121 39.812Z" fill="black"/>
</svg>
