<svg xmlns="http://www.w3.org/2000/svg" width="32" height="33" viewBox="0 0 32 33" fill="none">
  <path d="M20 8.5L24 12.5M8 28.5L28 8.5L24 4.5L4 24.5L8 28.5ZM12 4.5C12 5.20724 12.281 5.88552 12.781 6.38562C13.2811 6.88572 13.9594 7.16667 14.6667 7.16667C13.9594 7.16667 13.2811 7.44762 12.781 7.94771C12.281 8.44781 12 9.12609 12 9.83333C12 9.12609 11.719 8.44781 11.219 7.94771C10.7189 7.44762 10.0406 7.16667 9.33333 7.16667C10.0406 7.16667 10.7189 6.88572 11.219 6.38562C11.719 5.88552 12 5.20724 12 4.5ZM25.3333 17.8333C25.3333 18.5406 25.6143 19.2189 26.1144 19.719C26.6145 20.219 27.2928 20.5 28 20.5C27.2928 20.5 26.6145 20.781 26.1144 21.281C25.6143 21.7811 25.3333 22.4594 25.3333 23.1667C25.3333 22.4594 25.0524 21.7811 24.5523 21.281C24.0522 20.781 23.3739 20.5 22.6667 20.5C23.3739 20.5 24.0522 20.219 24.5523 19.719C25.0524 19.2189 25.3333 18.5406 25.3333 17.8333Z" stroke="#2D313A" stroke-width="2.66667" stroke-linecap="round" stroke-linejoin="round"/>
</svg>