<svg width="50" height="50" viewBox="0 0 50 50" fill="none" xmlns="http://www.w3.org/2000/svg">
<path d="M33.3335 12.5H39.5835C40.136 12.5 40.6659 12.7195 41.0566 13.1102C41.4473 13.5009 41.6668 14.0308 41.6668 14.5833V37.5C41.6668 38.6051 41.2278 39.6649 40.4464 40.4463C39.665 41.2277 38.6052 41.6667 37.5002 41.6667M37.5002 41.6667C36.3951 41.6667 35.3353 41.2277 34.5539 40.4463C33.7725 39.6649 33.3335 38.6051 33.3335 37.5V10.4167C33.3335 9.86414 33.114 9.33424 32.7233 8.94354C32.3326 8.55284 31.8027 8.33334 31.2502 8.33334H10.4168C9.8643 8.33334 9.33439 8.55284 8.94369 8.94354C8.55299 9.33424 8.3335 9.86414 8.3335 10.4167V35.4167C8.3335 37.0743 8.99198 38.664 10.1641 39.8361C11.3362 41.0082 12.9259 41.6667 14.5835 41.6667H37.5002ZM16.6668 16.6667H25.0002M16.6668 25H25.0002M16.6668 33.3333H25.0002" stroke="#2D313A" stroke-width="4.16667" stroke-linecap="round" stroke-linejoin="round"/>
</svg>
