<svg xmlns="http://www.w3.org/2000/svg" width="51" height="50" viewBox="0 0 51 50" fill="none">
  <path d="M24.6396 12.5C19.4521 12.5 16.2146 15.0458 14.9167 20.1396C16.8604 17.5917 19.1313 16.6396 21.7229 17.275C23.2021 17.6375 24.2583 18.6917 25.4271 19.8583C27.3354 21.7583 29.5938 23.9583 34.3604 23.9583C39.5479 23.9583 42.7854 21.4125 44.0833 16.3188C42.1396 18.8667 39.8688 19.8188 37.2771 19.1833C35.7979 18.8208 34.7417 17.7667 33.5729 16.6C31.6646 14.7 29.4583 12.5 24.6396 12.5ZM16.3063 26.0417C11.1188 26.0417 7.88126 28.5875 6.58334 33.6813C8.52709 31.1333 10.7979 30.1813 13.3896 30.8167C14.8688 31.1792 15.925 32.2333 17.0938 33.4C19.0021 35.3 21.2083 37.5 26.0271 37.5C31.2146 37.5 34.4521 34.9542 35.75 29.8604C33.8063 32.4083 31.5354 33.3604 28.9438 32.725C27.4646 32.3625 26.4083 31.3083 25.2396 30.1417C23.3313 28.2417 21.125 26.0417 16.3063 26.0417Z" stroke="#2D313A" stroke-width="4.16667" stroke-linecap="round" stroke-linejoin="round"/>
</svg>