<svg width="24" height="20" viewBox="0 0 24 20" fill="none" xmlns="http://www.w3.org/2000/svg">
<path d="M7.55016 19.4941C16.6045 19.4941 21.5583 11.9908 21.5583 5.486C21.5583 5.27506 21.5536 5.05944 21.5442 4.8485C22.5079 4.1516 23.3395 3.28839 24 2.29944C23.1025 2.69874 22.1496 2.95952 21.1739 3.07288C22.2013 2.45705 22.9705 1.48961 23.3391 0.349907C22.3726 0.922698 21.3156 1.32675 20.2134 1.54475C19.4708 0.755702 18.489 0.233257 17.4197 0.0581916C16.3504 -0.116874 15.2532 0.065191 14.2977 0.576237C13.3423 1.08728 12.5818 1.89885 12.1338 2.88545C11.6859 3.87206 11.5754 4.97876 11.8195 6.03444C9.86249 5.93623 7.94794 5.42785 6.19998 4.54224C4.45203 3.65663 2.90969 2.41358 1.67297 0.893658C1.0444 1.97738 0.852057 3.25979 1.13503 4.48023C1.418 5.70068 2.15506 6.76759 3.19641 7.46413C2.41463 7.43931 1.64998 7.22882 0.965625 6.85006V6.911C0.964925 8.04829 1.3581 9.15073 2.07831 10.0309C2.79852 10.9111 3.80132 11.5147 4.91625 11.7391C4.19206 11.9373 3.43198 11.9661 2.69484 11.8235C3.00945 12.8016 3.62157 13.657 4.44577 14.2705C5.26997 14.8839 6.26512 15.2247 7.29234 15.2454C5.54842 16.6152 3.39417 17.3583 1.17656 17.3548C0.783287 17.3542 0.390399 17.33 0 17.2826C2.25286 18.7279 4.87353 19.4955 7.55016 19.4941Z" fill="#98A2B3"/>
</svg>
