<svg xmlns="http://www.w3.org/2000/svg" width="51" height="50" viewBox="0 0 51 50" fill="none">
  <path d="M13.5166 39.2688C14.0322 37.5526 15.0873 36.0483 16.5254 34.9791C17.9635 33.9099 19.7079 33.3328 21.4999 33.3333H29.8332C31.6275 33.3327 33.3741 33.9112 34.8132 34.9829C36.2523 36.0545 37.3071 37.562 37.8207 39.2813M6.91663 25C6.91663 27.4623 7.40161 29.9005 8.34388 32.1753C9.28616 34.4502 10.6673 36.5172 12.4084 38.2583C14.1495 39.9994 16.2165 41.3805 18.4913 42.3227C20.7662 43.265 23.2043 43.75 25.6666 43.75C28.1289 43.75 30.5671 43.265 32.8419 42.3227C35.1168 41.3805 37.1838 39.9994 38.9249 38.2583C40.666 36.5172 42.0471 34.4502 42.9894 32.1753C43.9316 29.9005 44.4166 27.4623 44.4166 25C44.4166 22.5377 43.9316 20.0995 42.9894 17.8247C42.0471 15.5498 40.666 13.4828 38.9249 11.7417C37.1838 10.0006 35.1168 8.61953 32.8419 7.67726C30.5671 6.73498 28.1289 6.25 25.6666 6.25C23.2043 6.25 20.7662 6.73498 18.4913 7.67726C16.2165 8.61953 14.1495 10.0006 12.4084 11.7417C10.6673 13.4828 9.28616 15.5498 8.34388 17.8247C7.40161 20.0995 6.91663 22.5377 6.91663 25ZM19.4166 20.8333C19.4166 22.4909 20.0751 24.0807 21.2472 25.2528C22.4193 26.4249 24.009 27.0833 25.6666 27.0833C27.3242 27.0833 28.9139 26.4249 30.086 25.2528C31.2581 24.0807 31.9166 22.4909 31.9166 20.8333C31.9166 19.1757 31.2581 17.586 30.086 16.4139C28.9139 15.2418 27.3242 14.5833 25.6666 14.5833C24.009 14.5833 22.4193 15.2418 21.2472 16.4139C20.0751 17.586 19.4166 19.1757 19.4166 20.8333Z" stroke="#2D313A" stroke-width="4.16667" stroke-linecap="round" stroke-linejoin="round"/>
</svg>