<svg width="24" height="25" viewBox="0 0 24 25" fill="none" xmlns="http://www.w3.org/2000/svg">
<path fill-rule="evenodd" clip-rule="evenodd" d="M24 12.1045C24 18.732 18.6275 24.1045 12 24.1045C5.37259 24.1045 0 18.732 0 12.1045C0 5.47708 5.37259 0.104492 12 0.104492C18.6275 0.104492 24 5.47708 24 12.1045ZM6.12377 14.1045C6.04208 13.4493 6 12.7818 6 12.1045C6 11.4272 6.04209 10.7597 6.1238 10.1045H2.20004C2.06887 10.7507 2 11.4196 2 12.1045C2 12.7894 2.06887 13.4582 2.20004 14.1045H6.12377ZM6.50405 16.1045H2.83209C4.0096 18.7996 6.34063 20.8752 9.20108 21.7076C7.96156 20.0581 7.03345 18.1613 6.50405 16.1045ZM8.57976 16.1045H15.4203C14.7623 18.3154 13.5728 20.2974 12 21.9025C10.4272 20.2974 9.23776 18.3154 8.57976 16.1045ZM15.8583 14.1045H8.14179C8.04836 13.4513 8 12.7835 8 12.1045C8 11.4255 8.04836 10.7577 8.14179 10.1045H15.8583C15.9516 10.7577 16 11.4255 16 12.1045C16 12.7835 15.9516 13.4513 15.8583 14.1045ZM17.8763 14.1045C17.9579 13.4493 18 12.7818 18 12.1045C18 11.4272 17.9579 10.7597 17.8763 10.1045H21.8C21.9312 10.7507 22 11.4196 22 12.1045C22 12.7894 21.9312 13.4582 21.8 14.1045H17.8763ZM17.496 16.1045H21.1679C19.9904 18.7996 17.6593 20.8752 14.7989 21.7076C16.0384 20.0581 16.9665 18.1613 17.496 16.1045ZM12 2.30653C10.4272 3.91153 9.23776 5.89357 8.57976 8.10449H15.4203C14.7623 5.89357 13.5728 3.91153 12 2.30653ZM14.7989 2.50147C16.0384 4.15088 16.9665 6.04765 17.4959 8.10449H21.1679C19.9904 5.40947 17.6593 3.33376 14.7989 2.50147ZM2.83209 8.10449H6.50408C7.03348 6.04765 7.9616 4.15088 9.20111 2.50147C6.34064 3.33376 4.0096 5.40947 2.83209 8.10449Z" fill="#181A2E"/>
</svg>
