<svg xmlns="http://www.w3.org/2000/svg" width="50" height="50" viewBox="0 0 50 50" fill="none">
  <path d="M16.6667 43.75V41.6667C16.6667 40.5616 17.1057 39.5018 17.8871 38.7204C18.6685 37.939 19.7283 37.5 20.8333 37.5H29.1667C30.2717 37.5 31.3315 37.939 32.1129 38.7204C32.8943 39.5018 33.3333 40.5616 33.3333 41.6667V43.75M35.4167 20.8333H39.5833C40.6884 20.8333 41.7482 21.2723 42.5296 22.0537C43.311 22.8351 43.75 23.8949 43.75 25V27.0833M6.25 27.0833V25C6.25 23.8949 6.68899 22.8351 7.47039 22.0537C8.25179 21.2723 9.3116 20.8333 10.4167 20.8333H14.5833M20.8333 27.0833C20.8333 28.1884 21.2723 29.2482 22.0537 30.0296C22.8351 30.811 23.8949 31.25 25 31.25C26.1051 31.25 27.1649 30.811 27.9463 30.0296C28.7277 29.2482 29.1667 28.1884 29.1667 27.0833C29.1667 25.9783 28.7277 24.9185 27.9463 24.1371C27.1649 23.3557 26.1051 22.9167 25 22.9167C23.8949 22.9167 22.8351 23.3557 22.0537 24.1371C21.2723 24.9185 20.8333 25.9783 20.8333 27.0833ZM31.25 10.4167C31.25 11.5217 31.689 12.5815 32.4704 13.3629C33.2518 14.1443 34.3116 14.5833 35.4167 14.5833C36.5217 14.5833 37.5815 14.1443 38.3629 13.3629C39.1443 12.5815 39.5833 11.5217 39.5833 10.4167C39.5833 9.3116 39.1443 8.25179 38.3629 7.47039C37.5815 6.68899 36.5217 6.25 35.4167 6.25C34.3116 6.25 33.2518 6.68899 32.4704 7.47039C31.689 8.25179 31.25 9.3116 31.25 10.4167ZM10.4167 10.4167C10.4167 11.5217 10.8557 12.5815 11.6371 13.3629C12.4185 14.1443 13.4783 14.5833 14.5833 14.5833C15.6884 14.5833 16.7482 14.1443 17.5296 13.3629C18.311 12.5815 18.75 11.5217 18.75 10.4167C18.75 9.3116 18.311 8.25179 17.5296 7.47039C16.7482 6.68899 15.6884 6.25 14.5833 6.25C13.4783 6.25 12.4185 6.68899 11.6371 7.47039C10.8557 8.25179 10.4167 9.3116 10.4167 10.4167Z" stroke="#2D313A" stroke-width="4.16667" stroke-linecap="round" stroke-linejoin="round"/>
</svg>