<svg xmlns="http://www.w3.org/2000/svg" width="50" height="50" viewBox="0 0 50 50" fill="none">
  <path d="M43.75 22.9167V16.6667C43.75 15.5616 43.311 14.5018 42.5296 13.7204C41.7482 12.939 40.6884 12.5 39.5833 12.5H27.0833M27.0833 12.5L33.3333 18.75M27.0833 12.5L33.3333 6.25M6.25 27.0833V33.3333C6.25 34.4384 6.68899 35.4982 7.47039 36.2796C8.25179 37.061 9.3116 37.5 10.4167 37.5H22.9167M22.9167 37.5L16.6667 31.25M22.9167 37.5L16.6667 43.75M6.25 12.5C6.25 14.1576 6.90848 15.7473 8.08058 16.9194C9.25269 18.0915 10.8424 18.75 12.5 18.75C14.1576 18.75 15.7473 18.0915 16.9194 16.9194C18.0915 15.7473 18.75 14.1576 18.75 12.5C18.75 10.8424 18.0915 9.25269 16.9194 8.08058C15.7473 6.90848 14.1576 6.25 12.5 6.25C10.8424 6.25 9.25269 6.90848 8.08058 8.08058C6.90848 9.25269 6.25 10.8424 6.25 12.5ZM31.25 37.5C31.25 39.1576 31.9085 40.7473 33.0806 41.9194C34.2527 43.0915 35.8424 43.75 37.5 43.75C39.1576 43.75 40.7473 43.0915 41.9194 41.9194C43.0915 40.7473 43.75 39.1576 43.75 37.5C43.75 35.8424 43.0915 34.2527 41.9194 33.0806C40.7473 31.9085 39.1576 31.25 37.5 31.25C35.8424 31.25 34.2527 31.9085 33.0806 33.0806C31.9085 34.2527 31.25 35.8424 31.25 37.5Z" stroke="#2D313A" stroke-width="4.16667" stroke-linecap="round" stroke-linejoin="round"/>
</svg>